<?xml version="1.0" encoding="UTF-8" standalone="no"?>
<!-- Created with Inkscape (http://www.inkscape.org/) -->

<svg
   xmlns:dc="http://purl.org/dc/elements/1.1/"
   xmlns:cc="http://creativecommons.org/ns#"
   xmlns:rdf="http://www.w3.org/1999/02/22-rdf-syntax-ns#"
   xmlns:svg="http://www.w3.org/2000/svg"
   xmlns="http://www.w3.org/2000/svg"
   version="1.2"
   width="1812.0342"
   height="808.59595"
   viewBox="0 0 1876.9459 601.8053"
   id="LugUSAC_Logo"
   xml:space="preserve"
   style="overflow:visible"><metadata
     id="metadata3014"><rdf:RDF><cc:Work
         rdf:about=""><dc:format>image/svg+xml</dc:format><dc:type
           rdf:resource="http://purl.org/dc/dcmitype/StillImage" /><dc:title></dc:title></cc:Work></rdf:RDF></metadata><defs
     id="defs2397" /><flowRoot
     transform="matrix(2.353578,0,0,2.353578,-1382.4223,-267.65362)"
     id="flowRoot3269"
     xml:space="preserve"
     style="font-size:22px;font-style:normal;font-variant:normal;font-weight:normal;font-stretch:normal;text-align:start;line-height:100%;writing-mode:lr-tb;text-anchor:start;fill:#114c1d;fill-opacity:1;stroke:none;font-family:Molengo;-inkscape-font-specification:Molengo"><flowRegion
       id="flowRegion3271"><rect
         width="325.51709"
         height="376.37912"
         x="757.84442"
         y="170.13805"
         id="rect3273"
         style="fill:#114c1d" /></flowRegion><flowPara
       id="flowPara3275"
       style="font-size:266px;fill:#114c1d" /></flowRoot><flowRoot
     transform="matrix(2.353578,0,0,2.353578,-1371.8924,-267.65362)"
     id="flowRoot3277"
     xml:space="preserve"
     style="font-size:22px;font-style:normal;font-variant:normal;font-weight:normal;font-stretch:normal;text-align:start;line-height:100%;writing-mode:lr-tb;text-anchor:start;fill:#114c1d;fill-opacity:1;stroke:none;font-family:Molengo;-inkscape-font-specification:Molengo"><flowRegion
       id="flowRegion3279"><rect
         width="325.51709"
         height="376.37912"
         x="757.84442"
         y="170.13805"
         id="rect3281"
         style="fill:#114c1d" /></flowRegion><flowPara
       id="flowPara3283"
       style="font-size:266px;fill:#114c1d" /></flowRoot><g
     transform="translate(3.3637025,6.5112938)"
     id="layer1"
     style="display:inline"><rect
       width="1812.0342"
       height="808.59595"
       x="-3.2473731"
       y="-6.2861128"
       transform="matrix(1.0358226,0,0,1.0358226,0,-116.0151)"
       id="rect3868"
       style="fill:#000000;fill-opacity:1" /></g><g
     transform="translate(3.3637025,6.5112938)"
     id="layer2"
     style="display:inline"><path
       d="m 1560.6803,359.91121 c 0,-45.03804 12.2275,-81.10933 36.6827,-108.21401 24.6589,-27.10418 57.979,-40.65639 99.9604,-40.65669 25.4739,3e-4 44.5286,2.1401 57.1639,6.41947 12.635,4.27994 27.0023,12.32974 43.1022,24.14946 l -18.9527,33.01446 c -12.024,-8.76287 -23.5383,-14.97855 -34.5429,-18.64707 -11.005,-3.8718 -23.0288,-5.70594 -36.0714,-5.50241 -29.7539,2.6e-4 -53.5976,10.69939 -71.5313,32.09739 -17.73,21.39845 -26.595,47.17823 -26.5949,77.3394 -1e-4,30.16146 8.8649,55.94123 26.5949,77.3394 17.9337,21.3983 41.7774,32.09741 71.5313,32.09739 13.0426,0.20382 25.0664,-1.52842 36.0714,-5.19673 11.0046,-3.87201 22.5189,-10.1896 34.5429,-18.95272 l 18.9527,33.01443 c -16.0999,11.82 -30.4672,19.8698 -43.1022,24.14946 -12.6353,4.27965 -31.69,6.41947 -57.1639,6.41947 -41.9814,0 -75.3015,-13.5522 -99.9604,-40.65667 -24.4552,-27.10439 -36.6827,-63.1757 -36.6827,-108.21403 m 129.918,-148.8707 0,0 m 87.7328,39.12823 0,0 m -87.7328,253.11077 0,0 m 9.1706,0 0,0"
       id="flowRoot2455"
       style="font-size:22px;font-style:normal;font-variant:normal;font-weight:normal;font-stretch:normal;text-align:start;line-height:100%;writing-mode:lr-tb;text-anchor:start;fill:#ffffff;fill-opacity:1;stroke:none;font-family:Molengo;-inkscape-font-specification:Molengo" /><path
       d="m 96.923311,27.02692 0,393.34183 c -9.4e-5,16.56408 3.056804,28.50308 9.170699,35.81701 6.31745,7.09891 13.2464,10.64834 20.78687,10.64832 3.05675,2e-5 13.55209,-0.86043 31.48599,-2.58143 l 3.97397,37.75308 c -20.37944,4.51746 -37.39614,6.77619 -51.05011,6.77619 -20.786967,0 -36.580911,-6.66862 -47.381857,-20.00589 C 53.107785,475.22367 47.707289,453.49686 47.707336,423.59551 l 0,-396.56859 49.215975,0 m 5.808109,475.94684 0,0 m -30.568926,-267.17558 0,0 m 0,-208.77126 0,0"
       id="flowRoot2437"
       style="font-size:22px;font-style:normal;font-variant:normal;font-weight:normal;font-stretch:normal;text-align:start;line-height:100%;writing-mode:lr-tb;text-anchor:start;fill:#118b28;fill-opacity:1;stroke:none;font-family:Molengo;-inkscape-font-specification:Molengo" /><path
       d="m 239.33701,371.52741 c -1e-4,34.84868 6.1137,59.91518 18.34137,75.19957 12.22745,15.28452 29.54982,22.92675 51.96719,22.9267 12.02361,5e-5 23.02839,-3.15876 33.01443,-9.47638 9.98564,-6.52131 17.72976,-14.26543 23.2324,-23.23238 5.50217,-8.9668 9.78183,-17.32231 12.83896,-25.06652 3.05664,-7.94782 4.5851,-14.1635 4.58533,-18.64704 l 0,-176.68845 49.21598,0 0,286.7366 -49.21598,0 0,-52.57856 c -18.34159,38.72067 -48.1972,58.08096 -89.56698,58.08096 -7.3367,0 -15.08081,-1.01895 -23.23238,-3.05689 -8.15183,-1.83412 -17.22062,-5.50241 -27.20635,-11.00482 -9.78216,-5.50238 -18.54523,-12.53322 -26.28928,-21.09255 -7.54042,-8.55928 -13.95987,-20.17546 -19.25844,-34.84858 -5.09486,-14.67301 -7.64228,-31.38402 -7.64223,-50.13305 l 0,-172.10311 49.21598,0 0,154.9845 m 70.30855,131.7521 0,0 m 0,-292.239 0,0 m 107.60264,39.12823 0,0 m -9.47637,253.11077 0,0"
       id="flowRoot2429"
       style="font-size:22px;font-style:normal;font-variant:normal;font-weight:normal;font-stretch:normal;text-align:start;line-height:100%;writing-mode:lr-tb;text-anchor:start;fill:#118b28;fill-opacity:1;stroke:none;font-family:Molengo;-inkscape-font-specification:Molengo" /><g
       transform="translate(-2.638789,21.60379)"
       id="g3315"><path
         d="m 1443.9446,470.68012 c 2.779,9.91 -0.868,27.199 -5,33.496 -19.17,3.822 -47.301,2.475 -68.991,3 -6.361,0.153 -12.569,2.781 -16.998,-2 -0.646,-7.416 9.975,-7.717 16.998,-8.999 7.641,-1.396 16.566,-1.51 20.997,-3.999 1.363,-0.766 9.275,-6.758 6.5,-10 20.96,0.63 33.115,-4.546 46.494,-11.498 z"
         id="path2472"
         style="fill:#edbb0a;fill-rule:evenodd" /><path
         d="m 1293.3544,126.2612 c -8.067,-5.594 -23.27,-7.952 -35.995,-15.998 -9.156,-5.79 -24.156,-17.158003 -22.997,-26.997003 0.993,-8.436 21.409,-18.622 31.996,-19.997 14.522,-1.887 29.401,4.61 37.995,1 1.3345,10.065549 8.9465,11.519927 9.998,20.998 1.603,17.172003 -13.4627,31.191683 -20.997,40.994003 z"
         id="path2474"
         style="fill:#edbb0a;fill-rule:evenodd" /><path
         d="m 1471.0002,449.86144 c -9.1974,11.34609 -19.1449,18.36391 -27.9639,23.93191 -38.837,24.521 -91.9631,12.22321 -108.3721,-4.31454 -14.1925,-14.30389 -29.2845,-31.61541 -27.0668,-66.69363 2.4278,-38.63236 33.3012,-62.99352 91.1782,-78.01118 27.5742,-5.70335 53.5801,-5.82567 72.0583,-5.70998 -0.1382,-20.9261 3.8385,-65.37806 -14.8089,-79.41431 -18.7243,-12.50139 -35.958,-12.67521 -55.1399,-11.54166 -29.3024,1.73162 -55.7523,11.79915 -70.0206,18.73949 -4.893,-15.688 -4.5873,-26.23434 -10.6003,-38.59734 -9.518,-19.569 -20.228,-30.396 -26.997,-53.993 -2.086,-7.273 -5.327,-16.675 -3.999,-23.997 1.937,-10.676 15.463,-17.361 18.997,-26.997 9.768,-23.367859 -2.7417,-22.070189 -6.998,-37.995003 -0.145,-3.927036 6.261,-12.474 8.998,-16.998 10.777,-17.809 26.988,-31.943 47.994,-40.9949999 61.791,-26.6250001 131.857,-0.724 158.98,47.9939999 10.442,18.756 13.905,33.699 14.998,60.992003 1.08,26.989 -4.385,45.392 -14.998,63.992 -2.354,4.125 -7.026,9.983 -10.999,15.998 -3.154,4.776 -10.5465,11.64732 -11.2706,17.20993 -0.8347,6.41332 7.2186,13.76607 11.2706,20.78607 11.917,20.645 10.4595,44.45577 11.7925,69.38827 1.333,24.9325 0.3465,47.33864 0.244,82.09185 -0.1025,34.75447 3.6691,61.25808 12.7871,75.33858 9.118,14.0805 17.2764,6.0303 17.1714,9.1513 -0.4,11.864 -29.448,19.478 -42.995,16.997 -18.182,-3.327 -38,-10.88882 -34.24,-37.35276 z M 1345.2612,102.2642 c 1.773,7.982 12.461,19.075 20.997,20.997 19.366,4.362 35.407,-8.103 38.995,-19.998 7.344,-24.340003 -12.554,-40.960003 -30.996,-39.995003 -22.219,1.163 -33.442,18.989 -28.996,38.996003 z m 45.0914,263.17893 c -33.2146,11.49543 -41.2618,33.50735 -37.9401,49.17287 8.318,27.29 23.6202,34.75619 55.2002,33.07127 42.719,-2.26792 57.7528,-31.90937 61.0509,-54.01958 2.0614,-13.81935 2.7695,-21.99833 2.2385,-39.95648 -40.0716,1.48063 -47.3349,0.23649 -80.5495,11.73192 z"
         id="path2454"
         style="fill:#ffffff;fill-opacity:1;fill-rule:evenodd" /></g><g
       transform="translate(43.361211,21.60379)"
       id="g3320"><path
         d="m 506.43689,468.7955 c 6.95879,0.87417 13.62274,1.04488 20.87836,1.33106 -6.58742,4.32063 1.955,10.74366 1.62223,17.05156 -7.78271,1.12874 -9.34937,-3.9599 -14.64034,-5.32291 -6.79241,-0.1371 -13.5329,5.37083 -18.6322,2.66079 1.21792,-7.65493 8.9231,-8.69782 10.77195,-15.7205 z"
         id="path2470"
         style="fill:#edbb0a;fill-rule:evenodd" /><path
         d="m 468.29,409.616 c 6.14,-17.352 31.50705,-30.5942 43.89685,-42.0822 -19.20209,-9.32528 -34.96383,-24.34428 -47.89585,-40.9078 -6.921,-11.445 -11.208,-30.738 -7.999,-48.994 2.605,-22.867 8.588,-41.005 20.998,-57.993 4.171,-5.711 9.696,-11.319 9.999,-15.998 0.383,-5.921 -5.055,-11.583 -6.999,-17.998 -10.19353,-28.4281 -4.01477,-66.7351 27.996,-76.991 1.51347,14.8505 6.02068,71.74449 29.997,68.992 32.41899,-31.06274 -28.30891,-71.2772 25.996,-92.989 40.41628,9.55888 -14.3499,55.19042 31.9098,67.8407 23.76001,-23.49172 0.21402,-58.084 36.0832,-74.8387 22.38556,4.835497 9.18777,44.2882 5.999,62.992 -2.589,12.252 -10.162,23.386 -6.999,35.996 13.353,16.128 27.7888,-5.06535 34.996,-13.999 11.61853,-2.67115 36.83967,19.5305 37.996,31.89946 -25.65445,27.22267 -0.48945,0 -25.997,27.09354 7.873,18.855 14.416,32.453 15.998,52.994 5.015,65.101 -36.08,114.985 -103.987,114.985 -12.842,0 -27.954,-4.769 -40.995,-2 -10.532,2.236 -22.54885,7.79458 -22.997,20.998 -0.64423,18.98016 36.354,11.833 54.993,8.999 20.518,-3.121 44.269,-6.422 64.992,-3 15.912,2.627 39.745,15.153 48.994,26.997 10.805,13.835 14.271,37.521 11.998,57.992 -2.561,23.062 -17.422,45.138 -34.995,57.993 -54.499,39.864 -170.181,28.775 -209.974,-13.999 5.183,-10.152 16.358,-22.857 25.997,-33.995 3.073,-3.552 7.51,-8.634 9.999,-8.999 29.79717,17.25704 48.58557,24.5388 81.991,24.997 25.67461,2.00695 53.38217,-0.91184 67.992,-24.997 4.854,-14.824 -1.686,-28.929 -9.999,-33.996 -11.553,-7.041 -29.03,-6.21 -44.994,-4.999 -48.46303,6.6615 -138.05654,30.4798 -124.99,-51.993 z m 54.993,-145.982 c -7.32438,52.07004 21.07548,86.59964 72.991,73.991 25.798,-8.417 39.067,-44.021 31.996,-72.991 -19.50444,-56.21257 -91.94105,-52.97853 -104.987,-1 z"
         id="path2458"
         style="fill:#118b28;fill-opacity:1;fill-rule:evenodd" /><path
         d="m 456.292,277.632 c -3.209,18.255 1.078,37.548 7.999,48.994 -11.246,-5.062 -45.031,-4.103 -47.994,-17.997 -4.151,-19.462 26.275,-23.245 39.995,-30.997 z"
         id="path2468"
         style="fill:#edbb0a;fill-rule:evenodd" /><path
         d="m 501.98122,468.02974 c -5.5029,-26.15219 -12.26766,-51.8964 -18.57497,-77.90719 -40.63893,30.19521 -13.33209,74.40362 18.57497,77.90719 z"
         id="path2497"
         style="fill:#aa0000;fill-opacity:1;fill-rule:evenodd;stroke:none" /></g><path
       d="m 839.85391,371.52741 c -1e-4,34.84868 6.11371,59.91518 18.34137,75.19957 12.22744,15.28452 29.54982,22.92675 51.96718,22.9267 12.02361,5e-5 23.02841,-3.15876 33.01445,-9.47638 9.98563,-6.52131 17.72975,-14.26543 23.23239,-23.23238 5.50217,-8.9668 9.78184,-17.32231 12.83896,-25.06652 3.05664,-7.94782 4.5851,-14.1635 4.58534,-18.64704 l 0,-176.68845 49.216,0 0,286.7366 -49.216,0 0,-52.57856 c -18.34159,38.72067 -48.19721,58.08096 -89.56699,58.08096 -7.3367,0 -15.08081,-1.01895 -23.23238,-3.05689 -8.15183,-1.83412 -17.22062,-5.50241 -27.20635,-11.00482 -9.78216,-5.50238 -18.54523,-12.53322 -26.28928,-21.09255 -7.54042,-8.55928 -13.95987,-20.17546 -19.25844,-34.84858 -5.09486,-14.67301 -7.64228,-31.38402 -7.64223,-50.13305 l 0,-172.10311 49.21598,0 0,154.9845 m 70.30855,131.7521 0,0 m 0,-292.239 0,0 m 107.60264,39.12823 0,0 m -9.4764,253.11077 0,0"
       id="flowRoot2419"
       style="font-size:22px;font-style:normal;font-variant:normal;font-weight:normal;font-stretch:normal;text-align:start;line-height:100%;writing-mode:lr-tb;text-anchor:start;fill:#ffffff;fill-opacity:1;stroke:none;font-family:Molengo;-inkscape-font-specification:Molengo" /><path
       d="m 1174.2934,211.04051 c 18.3412,3e-4 34.6446,2.44581 48.9103,7.33655 14.2653,4.6875 25.2701,10.08802 33.0144,16.20153 l -17.4243,36.68273 c -6.3177,-5.0946 -15.2846,-9.88374 -26.9006,-14.36742 -11.6164,-4.48319 -23.1307,-6.7249 -34.5429,-6.72516 -15.2846,2.6e-4 -27.2065,3.9742 -35.7657,11.92188 -8.5594,7.94816 -12.839,16.50746 -12.839,25.67792 0,10.39363 3.2607,18.85103 9.7821,25.3722 6.5213,6.52156 19.6659,13.24672 39.4339,20.17551 l 29.9576,10.39342 c 21.8057,7.54049 37.9053,17.52635 48.2989,29.95757 10.597,12.22768 15.8956,28.53111 15.8958,48.91029 -2e-4,26.49312 -8.967,47.48377 -26.9006,62.972 -17.934,15.48827 -42.3891,23.23238 -73.3654,23.23238 -16.5074,0 -32.4032,-1.73223 -47.6876,-5.19672 -15.0807,-3.26067 -31.9955,-10.29151 -50.7444,-21.09255 l 17.73,-37.90548 c 15.692,9.37451 29.0404,15.89587 40.0453,19.56411 11.0047,3.46452 23.9455,5.19675 38.8225,5.19673 35.256,2e-5 52.8841,-15.18253 52.8843,-45.54771 -2e-4,-18.34127 -16.8131,-33.01435 -50.4388,-44.01928 l -29.9575,-10.39342 c -21.3983,-7.54021 -37.2942,-18.23932 -47.6876,-32.09739 -10.1896,-14.06153 -15.2845,-29.54976 -15.2844,-46.46476 -10e-5,-21.19423 8.8649,-39.73937 26.595,-55.63548 17.7299,-16.09935 40.4527,-24.14915 68.1687,-24.14945 m 1.2227,292.239 0,0 m 0,-292.239 0,0 m 60.2208,39.12823 0,0"
       id="flowRoot2445"
       style="font-size:22px;font-style:normal;font-variant:normal;font-weight:normal;font-stretch:normal;text-align:start;line-height:100%;writing-mode:lr-tb;text-anchor:start;fill:#ffffff;fill-opacity:1;stroke:#ffffff;font-family:Molengo;-inkscape-font-specification:Molengo" /><path
       d="m 1026.5412,567.89207 c 0,-3.75349 1.4829,-5.63026 4.4487,-5.63031 2.317,5e-5 4.5876,1.34391 6.8119,4.03158 l 22.1737,25.99673 0,-24.88457 c 0,-1.57551 0.6024,-2.82669 1.8073,-3.75354 1.0658,-0.83407 2.3401,-1.25113 3.823,-1.25118 1.5292,5e-5 2.8267,0.44027 3.8926,1.32069 1.1121,0.88051 1.6682,2.10852 1.6682,3.68403 l 0,41.63647 c 0,3.2438 -1.3902,4.8657 -4.1706,4.8657 -2.6414,0 -4.9815,-1.25118 -7.0205,-3.75354 l -22.1737,-27.38694 0,25.7187 c 0,1.71459 -0.556,3.05844 -1.6682,4.03158 -1.1122,0.9268 -2.4329,1.3902 -3.9621,1.3902 -1.5292,0 -2.8499,-0.48657 -3.962,-1.45972 -1.1122,-0.97313 -1.6683,-2.29381 -1.6683,-3.96206 l 0,-40.59382 m 68.1654,6.04737 c 1.2975,4e-5 2.8963,0.44027 4.7962,1.32069 1.6682,0.78781 3.0816,1.69144 4.2401,2.71088 0.9268,-2.68768 2.7341,-4.03153 5.4218,-4.03157 1.4365,4e-5 2.6877,0.50978 3.7536,1.52922 1.0657,1.01951 1.5986,2.43288 1.5986,4.24011 l 0,31.34899 c 0,1.20483 -0.5561,2.13164 -1.6682,2.7804 -1.0658,0.64876 -2.3634,0.97314 -3.8926,0.97314 -1.4829,0 -2.7803,-0.32438 -3.8925,-0.97314 -1.1122,-0.64876 -1.6683,-1.55239 -1.6682,-2.71089 -2.8731,2.40968 -5.9779,3.61452 -9.3144,3.61452 -5.4217,0 -9.7314,-2.13164 -12.9288,-6.39492 -2.9194,-3.84621 -4.3792,-8.52655 -4.3792,-14.04101 0,-5.51444 1.4829,-10.1716 4.4487,-13.9715 3.2902,-4.26325 7.7851,-6.39488 13.4849,-6.39492 m 0.9037,11.26061 c -2.5488,3e-5 -4.5646,0.92682 -6.0474,2.7804 -1.2975,1.62193 -1.9463,3.66087 -1.9463,6.11688 0,2.54872 0.6951,4.74986 2.0853,6.60345 1.5292,1.99263 3.5681,2.98894 6.1169,2.98893 2.4096,10e-6 4.3327,-0.94996 5.7693,-2.84991 1.2975,-1.76091 1.9462,-3.89254 1.9463,-6.39492 -10e-5,-2.50234 -0.6951,-4.65714 -2.0853,-6.46443 -1.3903,-1.85358 -3.3365,-2.78037 -5.8388,-2.7804 m 42.1958,-11.1216 c 5.6534,5e-5 9.5228,0.97319 11.6081,2.91943 2.1316,1.89997 3.1975,3.7999 3.1975,5.69981 0,1.20487 -0.4171,2.20117 -1.2512,2.98893 -0.8341,0.78781 -1.761,1.1817 -2.7804,1.18166 -0.4171,4e-5 -0.7878,-0.0695 -1.1121,-0.20852 -2.9195,-1.20481 -5.4218,-1.80723 -7.5071,-1.80726 -2.8268,3e-5 -5.0743,1.06585 -6.7425,3.19746 -1.4829,1.89997 -2.2243,4.19379 -2.2243,6.88149 0,2.45603 0.6487,4.51816 1.9463,6.18639 1.4365,1.89994 3.3828,2.84992 5.8388,2.84991 1.9926,10e-6 4.7962,-0.69509 8.4107,-2.0853 0.4634,-0.18535 0.9267,-0.27804 1.3902,-0.27805 1.1121,10e-6 2.0621,0.46342 2.8499,1.39021 0.8341,0.9268 1.2512,2.03896 1.2512,3.33647 0,1.8536 -0.8804,3.42917 -2.6413,4.72668 -1.3903,1.01948 -3.2902,1.89994 -5.6999,2.64137 -2.178,0.6951 -3.9853,1.04266 -5.4218,1.04266 -6.1632,0 -10.9826,-2.06213 -14.4581,-6.18639 -3.0584,-3.66085 -4.5876,-8.22533 -4.5876,-13.69347 0,-5.51442 1.5523,-10.26427 4.6572,-14.24953 3.3828,-4.35593 7.8083,-6.5339 13.2764,-6.53395 m 25.6067,-11.74719 c 1.9464,6e-5 3.4524,0.62565 4.5182,1.87678 1.1122,1.20489 1.6683,2.64143 1.6683,4.30962 0,1.62193 -0.5097,3.01214 -1.5292,4.1706 -1.1586,1.25122 -2.7109,1.8768 -4.6573,1.87677 -2.1316,3e-5 -3.823,-0.64872 -5.0741,-1.94628 -1.1585,-1.15846 -1.7377,-2.54866 -1.7377,-4.1706 0,-1.66819 0.6023,-3.10473 1.8072,-4.30962 1.2048,-1.20479 2.873,-1.80721 5.0046,-1.80727 m -5.6997,45.39002 0,-25.64919 c 0,-1.94623 0.5793,-3.52179 1.7377,-4.72666 1.0195,-1.01945 2.2475,-1.52919 3.684,-1.52922 1.4366,3e-5 2.6646,0.50977 3.684,1.52922 1.0659,1.15853 1.5988,2.73408 1.5988,4.72666 l 0,25.44066 c 0,2.03897 -0.5329,3.61453 -1.5988,4.72668 -1.0657,1.11216 -2.3169,1.66824 -3.7535,1.66824 -1.4365,0 -2.6877,-0.53291 -3.7535,-1.59873 -1.0658,-1.11216 -1.5987,-2.64137 -1.5987,-4.58766 m 34.6659,-33.78184 c 3.6145,4e-5 6.5571,1.06586 8.8278,3.19746 l 0,-8.96679 c -10e-5,-1.85355 0.556,-3.29009 1.6682,-4.30962 1.1122,-1.01944 2.456,-1.52917 4.0316,-1.52923 1.5292,6e-5 2.8499,0.50979 3.962,1.52923 1.1122,1.01953 1.6682,2.45607 1.6683,4.30962 l 0,42.19255 c -10e-5,1.43654 -0.533,2.5487 -1.5988,3.33647 -1.0194,0.78779 -2.2938,1.18168 -3.823,1.18168 -1.5293,0 -2.8499,-0.39389 -3.9621,-1.18168 -1.2512,-0.83411 -1.8767,-1.9231 -1.8767,-3.26696 -3.0585,2.68772 -6.2328,4.03158 -9.5229,4.03158 -5.1901,0 -9.3839,-2.17798 -12.5812,-6.53394 -2.8732,-3.93888 -4.3097,-8.66556 -4.3097,-14.18003 0,-5.42175 1.4134,-9.96307 4.24,-13.62395 3.1975,-4.12424 7.623,-6.18635 13.2765,-6.18639 m 1.5292,11.05208 c -2.5487,3e-5 -4.5645,0.97316 -6.0474,2.91942 -1.3438,1.76095 -2.0158,3.89258 -2.0158,6.39492 0,2.54872 0.672,4.70352 2.0158,6.46443 1.4829,1.94629 3.4987,2.91943 6.0474,2.91942 2.317,10e-6 4.1937,-1.01948 5.6303,-3.05844 1.2975,-1.89993 1.9463,-4.14741 1.9463,-6.74247 0,-2.456 -0.6024,-4.49495 -1.8073,-6.11688 -1.3902,-1.85357 -3.3133,-2.78037 -5.7693,-2.7804 m 43.447,-11.05208 c 5.5608,4e-5 10.0789,2.22435 13.5544,6.67296 3.1975,4.0316 4.7962,8.85096 4.7963,14.45807 -10e-5,5.42179 -1.5756,9.93993 -4.7267,13.55444 -3.5682,4.07792 -8.573,6.11688 -15.0142,6.11688 -5.5144,0 -9.9631,-2.13164 -13.3459,-6.39492 -3.0121,-3.79987 -4.5181,-8.45703 -4.5181,-13.9715 0,-5.56077 1.5755,-10.24111 4.7266,-14.04101 3.5682,-4.26325 8.4107,-6.39488 14.5276,-6.39492 m -1.5292,11.46914 c -2.039,3e-5 -3.6609,0.88049 -4.8657,2.64138 -1.1585,1.71461 -1.7378,3.77672 -1.7377,6.18639 -10e-5,2.50238 0.6023,4.61084 1.8072,6.32541 1.3902,1.99263 3.2438,2.98893 5.5608,2.98892 2.595,10e-6 4.6572,-0.92678 6.1863,-2.78039 1.3902,-1.71457 2.0854,-3.77669 2.0854,-6.18639 0,-2.456 -0.7415,-4.5413 -2.2244,-6.2559 -1.6682,-1.94625 -3.9389,-2.91939 -6.8119,-2.91942 m 25.5297,2.43285 c 0,-4.35593 1.4598,-7.80825 4.3791,-10.35698 2.6878,-2.31696 6.0474,-3.47546 10.079,-3.4755 3.7998,4e-5 7.2985,1.04269 10.496,3.12795 2.0853,1.34388 3.1279,3.05847 3.1279,5.14373 0,1.15853 -0.3476,2.15484 -1.0426,2.98892 -0.6952,0.83416 -1.5524,1.25122 -2.5719,1.25119 -0.6024,3e-5 -1.228,-0.16216 -1.8768,-0.48657 -3.2901,-1.66822 -6.1632,-2.50233 -8.6191,-2.50236 -1.9001,3e-5 -2.85,0.76464 -2.85,2.29383 0,0.88049 1.4829,2.06216 4.4486,3.54501 3.9853,1.9463 6.7888,3.61454 8.4107,5.00472 2.9658,2.6414 4.4487,5.7925 4.4487,9.45336 0,3.7072 -1.4597,6.51077 -4.3792,8.4107 -2.5486,1.66824 -5.862,2.50236 -9.9398,2.50236 -4.8658,0 -9.0132,-1.01948 -12.4423,-3.05844 -1.5293,-0.92679 -2.2939,-2.47918 -2.2939,-4.65717 0,-1.29751 0.3476,-2.40968 1.0427,-3.33647 0.695,-0.97313 1.645,-1.4597 2.8499,-1.45971 0.7414,10e-6 1.5292,0.20854 2.3633,0.62558 3.8926,1.80727 6.8352,2.7109 8.8278,2.71089 1.8536,10e-6 2.7803,-0.78777 2.7803,-2.36334 0,-0.97312 -1.4828,-2.06211 -4.4485,-3.26696 -4.1243,-1.66823 -6.9047,-3.01208 -8.3413,-4.03158 -2.9658,-2.13163 -4.4486,-4.81934 -4.4486,-8.06316 m 52.0499,-8.48021 c 0,-1.7609 0.5561,-3.12792 1.6682,-4.10109 0.9732,-0.88042 2.1781,-1.32065 3.6145,-1.32069 1.4366,4e-5 2.6878,0.44027 3.7537,1.32069 1.1121,0.88049 1.6681,2.03899 1.6681,3.4755 2.7804,-3.10475 6.0011,-4.65713 9.6619,-4.65718 5.2828,5e-5 9.546,2.22436 12.7899,6.67297 2.9657,4.07794 4.4486,8.92047 4.4486,14.52758 0,5.37545 -1.4134,9.84725 -4.2401,13.41542 -3.1048,4.03158 -7.4376,6.04737 -12.9984,6.04737 -3.2901,0 -6.3254,-0.9268 -9.1057,-2.7804 l 0,12.78984 c -1e-4,1.66822 -0.5794,2.98891 -1.7378,3.96206 -1.1585,1.01947 -2.5256,1.52921 -4.1012,1.52923 -1.4828,-2e-5 -2.7571,-0.50976 -3.823,-1.52923 -1.0657,-1.01949 -1.5987,-2.50237 -1.5987,-4.44863 l 0,-44.90344 m 19.3238,6.04736 c -2.5487,3e-5 -4.5877,0.97317 -6.1169,2.91942 -1.3439,1.7146 -2.0158,3.84623 -2.0157,6.39492 -10e-5,2.54871 0.695,4.70352 2.0852,6.46443 1.4829,1.94629 3.4987,2.91943 6.0474,2.91941 2.3633,2e-5 4.2401,-0.94995 5.6302,-2.84991 1.2049,-1.66822 1.8074,-3.75353 1.8074,-6.25589 0,-2.59502 -0.6257,-4.79617 -1.8769,-6.60345 -1.3901,-1.99259 -3.2437,-2.9889 -5.5607,-2.98893 m 41.1032,-11.46914 c 1.2975,4e-5 2.8962,0.44027 4.7962,1.32069 1.6682,0.78781 3.0816,1.69144 4.2401,2.71088 0.9268,-2.68768 2.734,-4.03153 5.4217,-4.03157 1.4366,4e-5 2.6878,0.50978 3.7536,1.52922 1.0658,1.01951 1.5987,2.43288 1.5987,4.24011 l 0,31.34899 c 0,1.20483 -0.5561,2.13164 -1.6682,2.7804 -1.0658,0.64876 -2.3634,0.97314 -3.8926,0.97314 -1.4828,0 -2.7804,-0.32438 -3.8925,-0.97314 -1.1122,-0.64876 -1.6683,-1.55239 -1.6683,-2.71089 -2.873,2.40968 -5.9778,3.61452 -9.3143,3.61452 -5.4218,0 -9.7313,-2.13164 -12.9288,-6.39492 -2.9195,-3.84621 -4.3792,-8.52655 -4.3792,-14.04101 0,-5.51444 1.4829,-10.1716 4.4487,-13.9715 3.2901,-4.26325 7.7851,-6.39488 13.4849,-6.39492 m 0.9036,11.26061 c -2.5487,3e-5 -4.5645,0.92682 -6.0474,2.7804 -1.2974,1.62193 -1.9463,3.66087 -1.9463,6.11688 0,2.54872 0.6952,4.74986 2.0854,6.60345 1.5292,1.99263 3.5682,2.98894 6.1169,2.98893 2.4096,10e-6 4.3327,-0.94996 5.7693,-2.84991 1.2975,-1.76091 1.9462,-3.89254 1.9462,-6.39492 0,-2.50234 -0.6951,-4.65714 -2.0852,-6.46443 -1.3903,-1.85358 -3.3366,-2.78037 -5.8389,-2.7804 m 24.4708,-5.83883 c 0,-1.7609 0.5097,-3.10475 1.5293,-4.03158 0.8804,-0.83408 2.0157,-1.25114 3.406,-1.25119 1.4828,5e-5 2.7803,0.41711 3.8925,1.25119 1.2048,0.97317 1.8073,2.17801 1.8073,3.61452 2.3633,-3.10474 5.329,-4.65713 8.8972,-4.65717 1.2975,4e-5 2.4328,0.71831 3.406,2.15481 1.0194,1.39023 1.5291,2.75725 1.5293,4.10109 -2e-4,1.99265 -1.2049,3.52186 -3.6147,4.58765 -2.2243,0.83414 -4.4485,1.66827 -6.6728,2.50236 -2.3635,1.20487 -3.545,2.98895 -3.545,5.35227 l 0,16.12631 c 0,1.76093 -0.5562,3.15111 -1.6683,4.1706 -1.0659,1.01948 -2.3402,1.52922 -3.823,1.52922 -1.4366,0 -2.6183,-0.4634 -3.545,-1.3902 -1.0659,-1.01948 -1.5988,-2.45601 -1.5988,-4.30962 l 0,-29.75026 m 44.4071,-5.42178 c 1.2975,4e-5 2.8962,0.44027 4.7962,1.32069 1.6682,0.78781 3.0816,1.69144 4.24,2.71088 0.9269,-2.68768 2.7341,-4.03153 5.4218,-4.03157 1.4365,4e-5 2.6877,0.50978 3.7536,1.52922 1.0658,1.01951 1.5986,2.43288 1.5988,4.24011 l 0,31.34899 c -2e-4,1.20483 -0.5562,2.13164 -1.6683,2.7804 -1.0659,0.64876 -2.3634,0.97314 -3.8926,0.97314 -1.4828,0 -2.7804,-0.32438 -3.8925,-0.97314 -1.1122,-0.64876 -1.6683,-1.55239 -1.6683,-2.71089 -2.873,2.40968 -5.9778,3.61452 -9.3143,3.61452 -5.4218,0 -9.7314,-2.13164 -12.9288,-6.39492 -2.9195,-3.84621 -4.3792,-8.52655 -4.3792,-14.04101 0,-5.51444 1.4829,-10.1716 4.4487,-13.9715 3.2901,-4.26325 7.785,-6.39488 13.4849,-6.39492 m 0.9036,11.26061 c -2.5487,3e-5 -4.5645,0.92682 -6.0474,2.7804 -1.2974,1.62193 -1.9463,3.66087 -1.9463,6.11688 0,2.54872 0.6952,4.74986 2.0854,6.60345 1.5291,1.99263 3.5682,2.98894 6.1168,2.98893 2.4097,10e-6 4.3328,-0.94996 5.7694,-2.84991 1.2975,-1.76091 1.9462,-3.89254 1.9462,-6.39492 0,-2.50234 -0.6951,-4.65714 -2.0853,-6.46443 -1.3902,-1.85358 -3.3365,-2.78037 -5.8388,-2.7804 m 43.8315,2.64138 c 0,-4.35593 1.4597,-7.80825 4.3791,-10.35698 2.6877,-2.31696 6.0474,-3.47546 10.079,-3.4755 3.7999,4e-5 7.2985,1.04269 10.4959,3.12795 2.0854,1.34388 3.128,3.05847 3.128,5.14373 0,1.15853 -0.3476,2.15484 -1.0426,2.98892 -0.6952,0.83416 -1.5524,1.25122 -2.5719,1.25119 -0.6024,3e-5 -1.2281,-0.16216 -1.8768,-0.48657 -3.2901,-1.66822 -6.1632,-2.50233 -8.6192,-2.50236 -1.9,3e-5 -2.8499,0.76464 -2.8499,2.29383 0,0.88049 1.4829,2.06216 4.4486,3.54501 3.9852,1.9463 6.7888,3.61454 8.4107,5.00472 2.9658,2.6414 4.4486,5.7925 4.4486,9.45336 0,3.7072 -1.4596,6.51077 -4.379,8.4107 -2.5487,1.66824 -5.862,2.50236 -9.94,2.50236 -4.8656,0 -9.0131,-1.01948 -12.4423,-3.05844 -1.5291,-0.92679 -2.2938,-2.47918 -2.2938,-4.65717 0,-1.29751 0.3475,-2.40968 1.0427,-3.33647 0.6951,-0.97313 1.6451,-1.4597 2.8498,-1.45971 0.7415,10e-6 1.5293,0.20854 2.3634,0.62558 3.8926,1.80727 6.8351,2.7109 8.8278,2.71089 1.8536,10e-6 2.7803,-0.78777 2.7804,-2.36334 -10e-5,-0.97312 -1.4829,-2.06211 -4.4486,-3.26696 -4.1244,-1.66823 -6.9047,-3.01208 -8.3413,-4.03158 -2.9657,-2.13163 -4.4486,-4.81934 -4.4486,-8.06316 m 33.3148,6.39492 c 0,-6.34855 2.039,-11.3996 6.1169,-15.15317 3.6608,-3.38278 8.1326,-5.07419 13.4154,-5.07423 5.0047,4e-5 9.2216,1.55243 12.6508,4.65717 3.7999,3.42919 5.6998,8.06318 5.6998,13.90199 0,3.47552 -1.1584,5.21326 -3.4755,5.21325 l -21.9651,0 c 1.2512,4.72669 4.2169,7.09002 8.8973,7.09002 1.6682,0 3.3364,-0.32438 5.0047,-0.97314 1.4829,-0.55607 2.595,-1.20483 3.3365,-1.94629 1.0657,-1.11214 2.2243,-1.66822 3.4755,-1.66823 1.2047,10e-6 2.2474,0.48658 3.1279,1.45971 0.8805,0.97315 1.3207,2.15481 1.3207,3.54501 0,2.27066 -1.2281,4.21694 -3.684,5.83883 -3.6146,2.40968 -7.6924,3.61452 -12.2338,3.61452 -5.7925,0 -10.774,-1.80726 -14.9446,-5.42178 -4.495,-3.93889 -6.7425,-8.96678 -6.7425,-15.08366 m 12.1643,-4.44864 14.7361,0 c -0.5561,-2.08527 -1.5525,-3.73034 -2.989,-4.93521 -1.2511,-1.06579 -2.6877,-1.5987 -4.3096,-1.59873 -1.6682,3e-5 -3.1511,0.55611 -4.4487,1.66824 -1.4364,1.15853 -2.4328,2.78043 -2.9888,4.8657 m 30.7365,-10.42649 c 0,-1.7609 0.5097,-3.10475 1.5291,-4.03158 0.8805,-0.83408 2.0159,-1.25114 3.406,-1.25119 1.4829,5e-5 2.7804,0.41711 3.8926,1.25119 1.2048,0.97317 1.8073,2.17801 1.8073,3.61452 2.3633,-3.10474 5.3291,-4.65713 8.8973,-4.65717 1.2974,4e-5 2.4328,0.71831 3.4059,2.15481 1.0195,1.39023 1.5292,2.75725 1.5292,4.10109 0,1.99265 -1.2048,3.52186 -3.6145,4.58765 -2.2243,0.83414 -4.4486,1.66827 -6.6729,2.50236 -2.3634,1.20487 -3.545,2.98895 -3.545,5.35227 l 0,16.12631 c 0,1.76093 -0.5562,3.15111 -1.6682,4.1706 -1.0659,1.01948 -2.3403,1.52922 -3.8232,1.52922 -1.4364,0 -2.6181,-0.4634 -3.545,-1.3902 -1.0657,-1.01948 -1.5986,-2.45601 -1.5986,-4.30962 l 0,-29.75026 m 46.8377,-11.26062 c 0,-1.80721 0.6256,-3.24375 1.8768,-4.30962 1.1121,-0.97309 2.4791,-1.45966 4.101,-1.45972 1.5756,6e-5 2.9427,0.50979 4.1011,1.52923 1.2049,1.01953 1.8072,2.40973 1.8074,4.17059 l 0,34.68549 13.5543,0 c 1.4829,10e-6 2.6414,0.57926 3.4756,1.73774 0.8804,1.15851 1.3206,2.50237 1.3207,4.03158 -10e-5,1.48288 -0.4171,2.75724 -1.2512,3.82305 -0.8341,1.06582 -2.0158,1.59873 -3.5451,1.59873 l -20.4358,0 c -1.1586,0 -2.2939,-0.44023 -3.406,-1.32069 -1.0659,-0.9268 -1.5988,-1.96944 -1.5988,-3.12795 l 0,-41.35843 m 39.9378,-5.76934 c 1.9463,6e-5 3.4523,0.62565 4.5181,1.87678 1.1122,1.20489 1.6682,2.64143 1.6682,4.30962 0,1.62193 -0.5097,3.01214 -1.5292,4.1706 -1.1584,1.25122 -2.7108,1.8768 -4.6571,1.87677 -2.1316,3e-5 -3.823,-0.64872 -5.0742,-1.94628 -1.1586,-1.15846 -1.7378,-2.54866 -1.7378,-4.1706 0,-1.66819 0.6024,-3.10473 1.8073,-4.30962 1.2048,-1.20479 2.8731,-1.80721 5.0047,-1.80727 m -5.6998,45.39002 0,-25.64919 c 0,-1.94623 0.5792,-3.52179 1.7378,-4.72666 1.0194,-1.01945 2.2474,-1.52919 3.684,-1.52922 1.4364,3e-5 2.6645,0.50977 3.684,1.52922 1.0657,1.15853 1.5987,2.73408 1.5987,4.72666 l 0,25.44066 c 0,2.03897 -0.533,3.61453 -1.5987,4.72668 -1.0659,1.11216 -2.3171,1.66824 -3.7535,1.66824 -1.4366,0 -2.6878,-0.53291 -3.7537,-1.59873 -1.0657,-1.11216 -1.5986,-2.64137 -1.5986,-4.58766 m 17.0798,-40.66333 c 0,-1.52917 0.533,-2.73401 1.5988,-3.61452 0.9268,-0.78774 2.1084,-1.18162 3.545,-1.18167 1.4829,5e-5 2.7804,0.44028 3.8925,1.32068 1.1122,0.83418 1.6683,1.96951 1.6683,3.406 l 0,9.87042 c 2.1317,-1.85356 5.4682,-2.78036 10.0094,-2.78041 5.3754,5e-5 9.6387,2.08534 12.7899,6.25591 2.8267,3.75356 4.2401,8.36439 4.2401,13.83248 0,5.56081 -1.4597,10.26431 -4.3792,14.11052 -3.2901,4.30962 -7.7387,6.46443 -13.3458,6.46443 -4.1707,0 -7.2754,-1.43654 -9.3144,-4.30962 0,1.3902 -0.5329,2.50236 -1.5987,3.33648 -1.0658,0.78778 -2.317,1.18167 -3.7536,1.18167 -1.4828,0 -2.7108,-0.39389 -3.684,-1.18167 -1.1121,-0.88046 -1.6683,-2.10847 -1.6683,-3.68403 l 0,-43.02667 m 18.6983,17.93357 c -2.5951,3e-5 -4.6341,0.95 -6.117,2.84991 -1.2974,1.66826 -1.9463,3.75356 -1.9462,6.2559 -10e-5,2.54872 0.6951,4.74986 2.0853,6.60345 1.5292,2.03897 3.5682,3.05845 6.1169,3.05844 2.3169,10e-6 4.1937,-1.04264 5.6303,-3.12795 1.3438,-1.89993 2.0157,-4.14741 2.0157,-6.74247 0,-2.456 -0.6255,-4.49495 -1.8767,-6.11688 -1.3903,-1.85357 -3.3597,-2.78037 -5.9083,-2.7804 m 23.3879,-5.6303 c 0,-1.7609 0.5098,-3.10475 1.5292,-4.03158 0.8805,-0.83408 2.0158,-1.25114 3.406,-1.25119 1.4829,5e-5 2.7804,0.41711 3.8925,1.25119 1.2049,0.97317 1.8073,2.17801 1.8073,3.61452 2.3634,-3.10474 5.3291,-4.65713 8.8973,-4.65717 1.2975,4e-5 2.4329,0.71831 3.406,2.15481 1.0195,1.39023 1.5292,2.75725 1.5292,4.10109 0,1.99265 -1.2049,3.52186 -3.6145,4.58765 -2.2243,0.83414 -4.4486,1.66827 -6.673,2.50236 -2.3633,1.20487 -3.545,2.98895 -3.545,5.35227 l 0,16.12631 c 0,1.76093 -0.5561,3.15111 -1.6683,4.1706 -1.0657,1.01948 -2.3401,1.52922 -3.823,1.52922 -1.4366,0 -2.6181,-0.4634 -3.545,-1.3902 -1.0658,-1.01948 -1.5987,-2.45601 -1.5987,-4.30962 l 0,-29.75026 m 26.202,14.87513 c 0,-6.34855 2.039,-11.3996 6.1169,-15.15317 3.6608,-3.38278 8.1327,-5.07419 13.4154,-5.07423 5.0047,4e-5 9.2216,1.55243 12.6508,4.65717 3.7999,3.42919 5.6998,8.06318 5.6998,13.90199 0,3.47552 -1.1584,5.21326 -3.4755,5.21325 l -21.9651,0 c 1.2512,4.72669 4.2169,7.09002 8.8973,7.09002 1.6682,0 3.3365,-0.32438 5.0047,-0.97314 1.4829,-0.55607 2.595,-1.20483 3.3365,-1.94629 1.0657,-1.11214 2.2243,-1.66822 3.4755,-1.66823 1.2048,10e-6 2.2474,0.48658 3.1279,1.45971 0.8805,0.97315 1.3207,2.15481 1.3207,3.54501 0,2.27066 -1.2281,4.21694 -3.684,5.83883 -3.6146,2.40968 -7.6924,3.61452 -12.2338,3.61452 -5.7925,0 -10.774,-1.80726 -14.9446,-5.42178 -4.495,-3.93889 -6.7425,-8.96678 -6.7425,-15.08366 m 12.1643,-4.44864 14.7361,0 c -0.5561,-2.08527 -1.5525,-3.73034 -2.989,-4.93521 -1.2511,-1.06579 -2.6877,-1.5987 -4.3096,-1.59873 -1.6682,3e-5 -3.1511,0.55611 -4.4487,1.66824 -1.4364,1.15853 -2.4328,2.78043 -2.9888,4.8657 m 31.362,-1.94628 c 0,-4.35593 1.4597,-7.80825 4.3791,-10.35698 2.6878,-2.31696 6.0474,-3.47546 10.079,-3.4755 3.7998,4e-5 7.2985,1.04269 10.496,3.12795 2.0852,1.34388 3.1279,3.05847 3.128,5.14373 -10e-5,1.15853 -0.3476,2.15484 -1.0427,2.98892 -0.6951,0.83416 -1.5525,1.25122 -2.5719,1.25119 -0.6025,3e-5 -1.228,-0.16216 -1.8767,-0.48657 -3.2902,-1.66822 -6.1633,-2.50233 -8.6193,-2.50236 -1.8999,3e-5 -2.8499,0.76464 -2.8499,2.29383 0,0.88049 1.4829,2.06216 4.4487,3.54501 3.9852,1.9463 6.7888,3.61454 8.4106,5.00472 2.9658,2.6414 4.4487,5.7925 4.4487,9.45336 0,3.7072 -1.4598,6.51077 -4.3791,8.4107 -2.5488,1.66824 -5.8621,2.50236 -9.94,2.50236 -4.8657,0 -9.0131,-1.01948 -12.4422,-3.05844 -1.5293,-0.92679 -2.2938,-2.47918 -2.2938,-4.65717 0,-1.29751 0.3475,-2.40968 1.0425,-3.33647 0.6952,-0.97313 1.6451,-1.4597 2.85,-1.45971 0.7414,10e-6 1.5292,0.20854 2.3633,0.62558 3.8925,1.80727 6.8351,2.7109 8.8278,2.71089 1.8536,10e-6 2.7804,-0.78777 2.7804,-2.36334 0,-0.97312 -1.4829,-2.06211 -4.4487,-3.26696 -4.1242,-1.66823 -6.9047,-3.01208 -8.3412,-4.03158 -2.9657,-2.13163 -4.4486,-4.81934 -4.4486,-8.06316"
       id="flowRoot3435"
       style="font-size:72px;font-style:normal;font-variant:normal;font-weight:normal;font-stretch:normal;text-align:start;line-height:100%;writing-mode:lr-tb;text-anchor:start;fill:#c8c8c8;fill-opacity:1;stroke:none;overflow:visible;font-family:MgOpen Modata;-inkscape-font-specification:MgOpen Modata" /><path
       d="m 60.113305,-55.303661 c 6.97878,4e-5 12.14615,1.67801 15.50211,5.0339 1.25844,1.25851 1.88768,2.61232 1.88772,4.06144 -4e-5,1.2585 -0.4386,2.34537 -1.31568,3.26059 -0.83902,0.87715 -1.83054,1.31571 -2.97458,1.31568 -1.02969,3e-5 -1.96401,-0.41946 -2.80296,-1.25848 -2.21189,-2.21183 -5.52969,-3.31776 -9.95339,-3.31779 -4.19493,3e-5 -7.26484,2.2691 -9.20974,6.8072 -1.83052,4.27121 -1.964,8.48519 -0.40043,12.64195 1.71609,4.57628 4.93854,6.86441 9.66737,6.86441 6.21608,0 9.32412,-2.68855 9.32415,-8.06568 l -7.83686,0 c -1.18222,2e-5 -2.11655,-0.47668 -2.80297,-1.43009 -0.64832,-0.83896 -0.97247,-1.84955 -0.97245,-3.03177 -2e-5,-1.18219 0.32413,-2.19278 0.97245,-3.03178 0.64829,-0.83896 1.58261,-1.25845 2.80297,-1.25848 l 13.84322,0 c 2.59318,3e-5 3.88979,1.62079 3.88983,4.86229 -4e-5,13.99577 -6.42588,20.99364 -19.27754,20.99364 -6.48306,0 -11.6123,-2.28813 -15.38771,-6.86441 -3.39407,-4.11863 -5.0911,-9.17159 -5.0911,-15.15889 0,-6.0254 1.69703,-11.15463 5.0911,-15.38771 3.77541,-4.69064 8.79024,-7.03598 15.04449,-7.03602 m 23.49182,15.3305 c 0,-1.44912 0.41949,-2.55505 1.25847,-3.31779 0.72458,-0.68641 1.6589,-1.02963 2.80297,-1.02966 1.22033,3e-5 2.28813,0.34325 3.20339,1.02966 0.99152,0.80088 1.48728,1.7924 1.48729,2.97458 1.9449,-2.55506 4.38557,-3.8326 7.32203,-3.83263 1.067785,3e-5 2.002105,0.59113 2.802965,1.7733 0.83897,1.1441 1.25846,2.2691 1.25848,3.37501 -2e-5,1.63985 -0.99155,2.89833 -2.97458,3.77542 -1.830525,0.68646 -3.661035,1.3729 -5.491525,2.05932 -1.94493,0.99155 -2.91738,2.45977 -2.91737,4.40466 l 0,13.27119 c -1e-5,1.44915 -0.45764,2.59322 -1.37289,3.4322 -0.87712,0.83898 -1.92585,1.25847 -3.14618,1.25847 -1.18221,0 -2.15466,-0.38135 -2.91737,-1.14406 -0.87712,-0.83899 -1.31568,-2.02119 -1.31568,-3.54661 l 0,-24.48306 m 23.127155,16.01696 0,-14.75848 c 0,-1.44912 0.45762,-2.59319 1.37288,-3.4322 0.80084,-0.72455 1.79237,-1.08684 2.97457,-1.08687 1.1822,3e-5 2.21186,0.40046 3.08899,1.20127 0.87711,0.80088 1.31567,1.90681 1.31567,3.3178 l 0,13.78602 c 0,1.6017 0.55296,2.87925 1.6589,3.83262 0.99151,0.87713 2.19278,1.31569 3.60381,1.31568 1.37287,10e-6 2.55507,-0.43855 3.54661,-1.31568 0.99151,-0.91524 1.48727,-2.19278 1.48729,-3.83262 l 0,-13.32839 c -2e-5,-1.56353 0.45761,-2.78387 1.37288,-3.66102 0.91524,-0.87709 2.02117,-1.31565 3.3178,-1.31568 1.25845,3e-5 2.34531,0.43859 3.26059,1.31568 0.91523,0.87715 1.37285,2.09749 1.37288,3.66102 l 0,15.2161 c -3e-5,4.76695 -2.4407,8.29449 -7.32203,10.58262 -4.69069,2.21187 -9.24789,2.38348 -13.67161,0.51484 -4.91949,-2.09746 -7.37923,-6.10169 -7.37923,-12.01271 m 32.84725,-16.01696 c 0,-1.44912 0.45763,-2.57412 1.37288,-3.37499 0.80085,-0.72455 1.79237,-1.08684 2.97458,-1.08687 1.18219,3e-5 2.21185,0.36232 3.08898,1.08687 0.91524,0.7246 1.37287,1.67799 1.37288,2.86017 2.28812,-2.55506 4.93855,-3.8326 7.95127,-3.83263 4.34743,3e-5 7.85591,1.83054 10.52542,5.49153 2.44065,3.35595 3.66098,7.34112 3.66102,11.9555 -4e-5,4.42374 -1.16316,8.10382 -3.4894,11.04025 -2.55512,3.3178 -6.12079,4.9767 -10.69704,4.9767 -2.70764,0 -5.20552,-0.76271 -7.49365,-2.28814 l 0,10.5254302 c -1e-5,1.37287 -0.47669,2.45972996 -1.43008,3.26058996 -0.9534,0.83897004 -2.07839,1.25846004 -3.37499,1.25847004 -1.22035,-1e-5 -2.26908,-0.4195 -3.14619,-1.25847004 -0.87713,-0.839 -1.31568,-2.05932996 -1.31568,-3.66101996 l 0,-36.9533902 m 15.90254,4.9767 c -2.09747,3e-5 -3.77544,0.80087 -5.03389,2.40255 -1.10595,1.41103 -1.65891,3.16527 -1.6589,5.26271 -1e-5,2.09747 0.57202,3.87077 1.71609,5.31991 1.22034,1.6017 2.87923,2.40255 4.9767,2.40254 1.94489,1e-5 3.48938,-0.78177 4.63347,-2.34534 0.99151,-1.37287 1.48727,-3.08896 1.4873,-5.1483 -3e-5,-2.13558 -0.51486,-3.94701 -1.5445,-5.43432 -1.14408,-1.63981 -2.66951,-2.45972 -4.57627,-2.45975 m 34.91282,-9.43856 c 4.57626,3e-5 8.29447,1.83054 11.15466,5.49153 2.63133,3.31782 3.947,7.28392 3.94704,11.8983 -4e-5,4.46188 -1.29664,8.18009 -3.88983,11.15466 -2.93646,3.35594 -7.0551,5.0339 -12.35593,5.0339 -4.53815,0 -8.19916,-1.75424 -10.98305,-5.26271 -2.47882,-3.12711 -3.71822,-6.95973 -3.71822,-11.49788 0,-4.57625 1.29661,-8.42794 3.88984,-11.55508 2.93643,-3.50845 6.92159,-5.26269 11.95549,-5.26272 m -1.25847,9.43856 c -1.67797,3e-5 -3.01272,0.7246 -4.00424,2.17373 -0.95339,1.41104 -1.43009,3.10807 -1.43008,5.0911 -1e-5,2.05934 0.49576,3.79451 1.48729,5.20551 1.14405,1.63984 2.66948,2.45975 4.57627,2.45975 2.13558,0 3.83261,-0.76271 5.0911,-2.28814 1.14405,-1.411 1.71608,-3.10804 1.7161,-5.0911 -2e-5,-2.02117 -0.61019,-3.73727 -1.83051,-5.1483 -1.3729,-1.60168 -3.24154,-2.40252 -5.60593,-2.40255 m 50.38545,-9.43856 c 2.97457,3e-5 5.39617,0.87715 7.26484,2.63136 l 0,-7.37924 c -2e-5,-1.52538 0.45761,-2.70758 1.37288,-3.54661 0.91523,-0.83894 2.02116,-1.25843 3.3178,-1.25847 1.25844,4e-5 2.34531,0.41953 3.26059,1.25847 0.91523,0.83903 1.37285,2.02123 1.37287,3.54661 l 0,34.72246 c -2e-5,1.1822 -0.43859,2.09746 -1.31567,2.74576 -0.83901,0.6483 -1.88773,0.97245 -3.14618,0.97246 -1.25851,-10e-6 -2.34537,-0.32416 -3.2606,-0.97246 -1.02968,-0.68644 -1.54451,-1.58263 -1.54448,-2.68856 -2.51698,2.21186 -5.12926,3.3178 -7.83687,3.3178 -4.27119,0 -7.72246,-1.79238 -10.35381,-5.37712 -2.36441,-3.24152 -3.54661,-7.13134 -3.54661,-11.66949 0,-4.46184 1.16314,-8.19913 3.48941,-11.21186 2.63135,-3.39404 6.27328,-5.09108 10.92583,-5.09111 m 1.25848,9.09534 c -2.09747,3e-5 -3.75636,0.80087 -4.9767,2.40255 -1.10593,1.44917 -1.6589,3.2034 -1.65889,5.26271 -1e-5,2.09747 0.55296,3.87077 1.65889,5.31991 1.22034,1.6017 2.87923,2.40255 4.9767,2.40254 1.90677,10e-6 3.45125,-0.83897 4.63348,-2.51695 1.06777,-1.56354 1.60167,-3.41312 1.60169,-5.54872 -2e-5,-2.02117 -0.49578,-3.69914 -1.48729,-5.0339 -1.14408,-1.5254 -2.7267,-2.28811 -4.74788,-2.28814 m 19.90946,7.60805 c 0,-5.22455 1.67797,-9.38133 5.0339,-12.47034 3.0127,-2.78386 6.69279,-4.17581 11.04025,-4.17584 4.11863,3e-5 7.58896,1.27757 10.41102,3.83262 3.12708,2.82207 4.69065,6.63562 4.69068,11.44068 -3e-5,2.86019 -0.95343,4.29027 -2.86017,4.29026 l -18.07626,0 c 1.02964,3.88983 3.47031,5.83475 7.32202,5.83474 1.37286,10e-6 2.74575,-0.26694 4.11864,-0.80085 1.22032,-0.45762 2.13557,-0.99151 2.74577,-1.60169 0.87709,-0.91525 1.83047,-1.37287 2.86017,-1.37288 0.99149,10e-6 1.84955,0.40043 2.57416,1.20127 0.72453,0.80085 1.08682,1.77331 1.08685,2.91737 -3e-5,1.86865 -1.01062,3.47034 -3.03178,4.80508 -2.9746,1.98305 -6.33052,2.97458 -10.06779,2.97458 -4.76696,0 -8.86654,-1.48729 -12.29872,-4.46186 -3.69916,-3.24152 -5.54874,-7.37923 -5.54874,-12.41314 m 10.01059,-3.66101 12.12712,0 c -0.45764,-1.71608 -1.27756,-3.0699 -2.45974,-4.06144 -1.02968,-0.8771 -2.21189,-1.31566 -3.54661,-1.31568 -1.3729,2e-5 -2.59323,0.45765 -3.66102,1.37288 -1.18221,0.95341 -2.00213,2.28816 -2.45975,4.00424 m 40.71271,-17.10382 c 0,-1.71606 0.49576,-3.05081 1.48729,-4.00423 0.99153,-0.95335 2.15466,-1.43005 3.48941,-1.43009 1.25846,4e-5 2.34532,0.4386 3.2606,1.31568 0.95338,0.87716 1.43006,2.09749 1.43008,3.66101 l 0,20.99365 c -2e-5,2.36442 0.95337,4.29027 2.86017,5.77754 1.71608,1.37289 3.73727,2.05933 6.06355,2.05932 2.17371,1e-5 3.98515,-0.61016 5.43433,-1.83051 1.60166,-1.33473 2.40252,-3.1843 2.40254,-5.54872 l 0,-20.99365 c -2e-5,-1.71606 0.53387,-3.08894 1.60169,-4.11864 0.91522,-0.87708 2.04022,-1.31564 3.375,-1.31568 1.33471,4e-5 2.47877,0.4386 3.43221,1.31568 0.95335,0.87716 1.43003,2.09749 1.43008,3.66101 l 0,22.36653 c -5e-5,4.84323 -1.88775,8.73306 -5.66314,11.66949 -3.47037,2.70763 -7.62713,4.06144 -12.47034,4.06144 -4.95763,0 -9.11441,-1.43008 -12.47033,-4.29025 -3.77543,-3.20339 -5.66314,-7.62711 -5.66314,-13.27119 l 0,-20.07839 m 41.29459,15.50212 c 0,-3.58472 1.20126,-6.42582 3.6038,-8.52331 2.21187,-1.90674 4.97669,-2.86013 8.2945,-2.86016 3.1271,3e-5 6.00634,0.85808 8.63771,2.57415 1.71608,1.10596 2.57413,2.51698 2.57415,4.23305 -2e-5,0.95342 -0.28604,1.77333 -0.85805,2.45975 -0.57205,0.68646 -1.27756,1.02968 -2.11653,1.02966 -0.49578,2e-5 -1.01061,-0.13345 -1.54448,-0.40043 -2.70764,-1.37285 -5.07205,-2.05929 -7.09322,-2.05932 -1.56358,3e-5 -2.34535,0.62926 -2.34534,1.88771 -10e-6,0.7246 1.22033,1.69706 3.66102,2.91738 3.27964,1.60171 5.58683,2.97459 6.9216,4.11864 2.44066,2.17374 3.66099,4.76696 3.66103,7.77966 -4e-5,3.05085 -1.2013,5.35805 -3.60383,6.92161 -2.09747,1.37288 -4.82416,2.05932 -8.18008,2.05932 -4.00425,0 -7.41738,-0.83898 -10.2394,-2.51695 -1.25847,-0.76271 -1.88771,-2.04025 -1.88771,-3.83263 0,-1.06779 0.28602,-1.98304 0.85805,-2.74576 0.57202,-0.80084 1.35381,-1.20126 2.34534,-1.20127 0.61016,10e-6 1.25846,0.17162 1.94491,0.51483 3.20339,1.4873 5.62498,2.23094 7.26483,2.23093 1.52541,10e-6 2.28813,-0.64829 2.28813,-1.94491 0,-0.80084 -1.22035,-1.69702 -3.66101,-2.68856 -3.39407,-1.37287 -5.6822,-2.4788 -6.86441,-3.3178 -2.44068,-1.75422 -3.66101,-3.96608 -3.66101,-6.63559 m 27.4165,9.03814 0,-14.75848 c 0,-1.44912 0.45763,-2.59319 1.37288,-3.4322 0.80085,-0.72455 1.79237,-1.08684 2.97458,-1.08687 1.1822,3e-5 2.21186,0.40046 3.08898,1.20127 0.87712,0.80088 1.31567,1.90681 1.31567,3.3178 l 0,13.78602 c 0,1.6017 0.55297,2.87925 1.6589,3.83262 0.99152,0.87713 2.19279,1.31569 3.60382,1.31568 1.37287,10e-6 2.55507,-0.43855 3.54661,-1.31568 0.9915,-0.91524 1.48727,-2.19278 1.48729,-3.83262 l 0,-13.32839 c -2e-5,-1.56353 0.4576,-2.78387 1.37288,-3.66102 0.91523,-0.87709 2.02117,-1.31565 3.3178,-1.31568 1.25844,3e-5 2.34531,0.43859 3.26059,1.31568 0.91522,0.87715 1.37285,2.09749 1.37288,3.66102 l 0,15.2161 c -3e-5,4.76695 -2.44071,8.29449 -7.32203,10.58262 -4.69069,2.21187 -9.24789,2.38348 -13.67161,0.51484 -4.91949,-2.09746 -7.37924,-6.10169 -7.37924,-12.01271 m 47.60572,-20.47882 c 1.06778,3e-5 2.38346,0.36232 3.94705,1.08687 1.37286,0.64833 2.53598,1.39197 3.48939,2.23093 0.76269,-2.21183 2.24998,-3.31777 4.46187,-3.3178 1.18218,3e-5 2.21184,0.41953 3.08898,1.25848 0.87709,0.83901 1.31565,2.00214 1.31568,3.4894 l 0,25.79873 c -3e-5,0.99153 -0.45766,1.75424 -1.37289,2.28814 -0.87713,0.53389 -1.94493,0.80084 -3.20338,0.80084 -1.22037,0 -2.28816,-0.26695 -3.20339,-0.80084 -0.91527,-0.5339 -1.3729,-1.27755 -1.37288,-2.23094 -2.36443,1.98305 -4.9195,2.97458 -7.66525,2.97458 -4.46188,0 -8.00848,-1.75424 -10.63983,-5.26271 -2.40254,-3.16525 -3.60382,-7.01694 -3.60382,-11.55508 0,-4.53812 1.22035,-8.37074 3.66102,-11.49788 2.70762,-3.50845 6.40677,-5.26269 11.09745,-5.26272 m 0.74365,9.26695 c -2.09748,3e-5 -3.75637,0.76274 -4.97669,2.28814 -1.06781,1.33476 -1.60171,3.01273 -1.6017,5.0339 -10e-6,2.09747 0.57203,3.90891 1.71611,5.43432 1.25846,1.63984 2.93643,2.45975 5.0339,2.45974 1.98303,10e-6 3.56565,-0.78177 4.74788,-2.34534 1.06776,-1.44914 1.60166,-3.20337 1.60169,-5.26271 -3e-5,-2.0593 -0.57206,-3.8326 -1.7161,-5.31991 -1.14409,-1.5254 -2.74578,-2.28811 -4.80509,-2.28814 m 20.13826,-4.80509 c 0,-1.44912 0.4195,-2.55505 1.25848,-3.31779 0.72457,-0.68641 1.65889,-1.02963 2.80297,-1.02966 1.22033,3e-5 2.28812,0.34325 3.20338,1.02966 0.99151,0.80088 1.48728,1.7924 1.48729,2.97458 1.94491,-2.55506 4.38558,-3.8326 7.32203,-3.83263 1.06779,3e-5 2.0021,0.59113 2.80297,1.7733 0.83896,1.1441 1.25846,2.2691 1.25847,3.37501 -10e-6,1.63985 -0.99155,2.89833 -2.97457,3.77542 -1.83053,0.68646 -3.66103,1.3729 -5.49153,2.05932 -1.94492,0.99155 -2.91738,2.45977 -2.91737,4.40466 l 0,13.27119 c -10e-6,1.44915 -0.45764,2.59322 -1.37288,3.4322 -0.87713,0.83898 -1.92585,1.25847 -3.14619,1.25847 -1.1822,0 -2.15465,-0.38135 -2.91737,-1.14406 -0.87711,-0.83899 -1.31568,-2.02119 -1.31568,-3.54661 l 0,-24.48306 m 28.73311,-14.01482 c 1.60168,4e-5 2.84108,0.51487 3.71822,1.54449 0.91524,0.99156 1.37286,2.17377 1.37286,3.54661 0,1.33478 -0.41949,2.47885 -1.25846,3.4322 -0.9534,1.02969 -2.23094,1.54453 -3.83262,1.54449 -1.75425,4e-5 -3.1462,-0.53386 -4.17585,-1.60169 -0.95339,-0.95336 -1.43009,-2.09742 -1.43009,-3.43221 0,-1.37284 0.49577,-2.55504 1.48729,-3.5466 0.99152,-0.99149 2.3644,-1.48725 4.11865,-1.48729 m -4.69069,37.35381 0,-21.10805 c 0,-1.60167 0.47669,-2.89828 1.43009,-3.88983 0.83898,-0.83895 1.84958,-1.25845 3.03177,-1.25848 1.1822,3e-5 2.1928,0.41953 3.03178,1.25848 0.87712,0.95342 1.31567,2.25002 1.31569,3.88983 l 0,20.93644 c -2e-5,1.67797 -0.43857,2.97458 -1.31569,3.88983 -0.87712,0.91525 -1.90678,1.37288 -3.08898,1.37288 -1.1822,0 -2.21186,-0.43856 -3.08897,-1.31568 -0.87713,-0.91525 -1.31569,-2.17372 -1.31569,-3.77542 m 29.90127,-27.80085 c 4.57624,3e-5 8.29446,1.83054 11.15466,5.49153 2.63132,3.31782 3.947,7.28392 3.94702,11.8983 -2e-5,4.46188 -1.29663,8.18009 -3.88982,11.15466 -2.93647,3.35594 -7.0551,5.0339 -12.35593,5.0339 -4.53815,0 -8.19916,-1.75424 -10.98305,-5.26271 -2.47882,-3.12711 -3.71822,-6.95973 -3.71822,-11.49788 0,-4.57625 1.2966,-8.42794 3.88982,-11.55508 2.93644,-3.50845 6.92161,-5.26269 11.95552,-5.26272 m -1.25847,9.43856 c -1.67799,3e-5 -3.01273,0.7246 -4.00424,2.17373 -0.95341,1.41104 -1.4301,3.10807 -1.43009,5.0911 -1e-5,2.05934 0.49575,3.79451 1.48728,5.20551 1.14407,1.63984 2.66949,2.45975 4.57628,2.45975 2.13558,0 3.8326,-0.76271 5.0911,-2.28814 1.14404,-1.411 1.71608,-3.10804 1.71611,-5.0911 -3e-5,-2.02117 -0.61021,-3.73727 -1.83052,-5.1483 -1.3729,-1.60168 -3.24153,-2.40252 -5.60592,-2.40255 m 21.00974,2.00212 c 0,-3.58472 1.20128,-6.42582 3.60383,-8.52331 2.21185,-1.90674 4.97668,-2.86013 8.29448,-2.86016 3.1271,3e-5 6.00633,0.85808 8.63771,2.57415 1.71608,1.10596 2.57413,2.51698 2.57416,4.23305 -3e-5,0.95342 -0.28604,1.77333 -0.85806,2.45975 -0.57206,0.68646 -1.27756,1.02968 -2.11652,1.02966 -0.49578,2e-5 -1.01061,-0.13345 -1.5445,-0.40043 -2.70764,-1.37285 -5.07204,-2.05929 -7.09321,-2.05932 -1.56357,3e-5 -2.34535,0.62926 -2.34535,1.88771 0,0.7246 1.22033,1.69706 3.66102,2.91738 3.27965,1.60171 5.58685,2.97459 6.92161,4.11864 2.44065,2.17374 3.661,4.76696 3.66102,7.77966 -2e-5,3.05085 -1.2013,5.35805 -3.60381,6.92161 -2.09748,1.37288 -4.82417,2.05932 -8.18008,2.05932 -4.00424,0 -7.41738,-0.83898 -10.23941,-2.51695 -1.25848,-0.76271 -1.88771,-2.04025 -1.88771,-3.83263 0,-1.06779 0.28602,-1.98304 0.85805,-2.74576 0.57204,-0.80084 1.35381,-1.20126 2.34533,-1.20127 0.61018,10e-6 1.25848,0.17162 1.94493,0.51483 3.20337,1.4873 5.62498,2.23094 7.26482,2.23093 1.5254,10e-6 2.28812,-0.64829 2.28814,-1.94491 -2e-5,-0.80084 -1.22035,-1.69702 -3.66102,-2.68856 -3.39408,-1.37287 -5.68221,-2.4788 -6.86441,-3.3178 -2.44067,-1.75422 -3.66102,-3.96608 -3.66102,-6.63559 m 57.30705,-11.44068 c 2.97455,3e-5 5.39616,0.87715 7.26483,2.63136 l 0,-7.37924 c -2e-5,-1.52538 0.4576,-2.70758 1.37288,-3.54661 0.91522,-0.83894 2.02116,-1.25843 3.31779,-1.25847 1.25845,4e-5 2.34531,0.41953 3.2606,1.25847 0.91522,0.83903 1.37285,2.02123 1.37287,3.54661 l 0,34.72246 c -2e-5,1.1822 -0.43859,2.09746 -1.31567,2.74576 -0.83902,0.6483 -1.88774,0.97245 -3.14619,0.97246 -1.25849,-10e-6 -2.34536,-0.32416 -3.26059,-0.97246 -1.02968,-0.68644 -1.54452,-1.58263 -1.54448,-2.68856 -2.51698,2.21186 -5.12926,3.3178 -7.83687,3.3178 -4.2712,0 -7.72246,-1.79238 -10.35382,-5.37712 -2.3644,-3.24152 -3.5466,-7.13134 -3.5466,-11.66949 0,-4.46184 1.16312,-8.19913 3.4894,-11.21186 2.63135,-3.39404 6.2733,-5.09108 10.92585,-5.09111 m 1.25846,9.09534 c -2.09746,3e-5 -3.75635,0.80087 -4.97668,2.40255 -1.10595,1.44917 -1.65891,3.2034 -1.6589,5.26271 -10e-6,2.09747 0.55295,3.87077 1.6589,5.31991 1.22033,1.6017 2.87922,2.40255 4.97668,2.40254 1.90678,10e-6 3.45126,-0.83897 4.63349,-2.51695 1.06776,-1.56354 1.60167,-3.41312 1.60169,-5.54872 -2e-5,-2.02117 -0.49579,-3.69914 -1.4873,-5.0339 -1.14407,-1.5254 -2.7267,-2.28811 -4.74788,-2.28814 m 19.90949,7.60805 c 0,-5.22455 1.67796,-9.38133 5.03389,-12.47034 3.01271,-2.78386 6.69278,-4.17581 11.04025,-4.17584 4.11863,3e-5 7.58897,1.27757 10.41102,3.83262 3.12709,2.82207 4.69064,6.63562 4.69067,11.44068 -3e-5,2.86019 -0.95341,4.29027 -2.86017,4.29026 l -18.07627,0 c 1.02965,3.88983 3.47033,5.83475 7.32204,5.83474 1.37287,10e-6 2.74575,-0.26694 4.11865,-0.80085 1.22031,-0.45762 2.13557,-0.99151 2.74575,-1.60169 0.8771,-0.91525 1.83049,-1.37287 2.86017,-1.37288 0.9915,10e-6 1.84955,0.40043 2.57415,1.20127 0.72455,0.80085 1.08684,1.77331 1.08687,2.91737 -3e-5,1.86865 -1.01062,3.47034 -3.03177,4.80508 -2.97461,1.98305 -6.33054,2.97458 -10.0678,2.97458 -4.76696,0 -8.86654,-1.48729 -12.29873,-4.46186 -3.69915,-3.24152 -5.54872,-7.37923 -5.54872,-12.41314 m 10.01059,-3.66101 12.12711,0 c -0.45765,-1.71608 -1.27756,-3.0699 -2.45975,-4.06144 -1.02968,-0.8771 -2.21187,-1.31566 -3.54661,-1.31568 -1.37289,2e-5 -2.59322,0.45765 -3.66101,1.37288 -1.18222,0.95341 -2.00212,2.28816 -2.45974,4.00424 m 60.9055,-23.91102 c 6.97878,4e-5 12.14615,1.67801 15.50211,5.0339 1.25844,1.25851 1.88767,2.61232 1.88771,4.06144 -4e-5,1.2585 -0.4386,2.34537 -1.31568,3.26059 -0.839,0.87715 -1.83053,1.31571 -2.97457,1.31568 -1.0297,3e-5 -1.96401,-0.41946 -2.80297,-1.25848 -2.21189,-2.21183 -5.52967,-3.31776 -9.95338,-3.31779 -4.19493,3e-5 -7.26485,2.2691 -9.20975,6.8072 -1.83051,4.27121 -1.96399,8.48519 -0.40042,12.64195 1.71609,4.57628 4.93855,6.86441 9.66738,6.86441 6.21607,0 9.32411,-2.68855 9.32414,-8.06568 l -7.83686,0 c -1.18222,2e-5 -2.11655,-0.47668 -2.80297,-1.43009 -0.64833,-0.83896 -0.97248,-1.84955 -0.97246,-3.03177 -2e-5,-1.18219 0.32413,-2.19278 0.97246,-3.03178 0.64829,-0.83896 1.58261,-1.25845 2.80297,-1.25848 l 13.84322,0 c 2.59318,3e-5 3.88979,1.62079 3.88983,4.86229 -4e-5,13.99577 -6.42588,20.99364 -19.27754,20.99364 -6.48307,0 -11.6123,-2.28813 -15.38771,-6.86441 -3.39407,-4.11863 -5.0911,-9.17159 -5.0911,-15.15889 0,-6.0254 1.69703,-11.15463 5.0911,-15.38771 3.77541,-4.69064 8.79023,-7.03598 15.04449,-7.03602 m 23.49179,5.89195 c 0,-3.08894 1.22035,-4.63343 3.66102,-4.63348 1.90678,5e-5 3.77541,1.10598 5.60594,3.3178 l 18.24788,21.39407 0,-20.47882 c -3e-5,-1.29657 0.49572,-2.32623 1.48728,-3.08898 0.87709,-0.6864 1.92584,-1.02962 3.14614,-1.02966 1.2585,4e-5 2.3263,0.36233 3.2034,1.08686 0.9153,0.72462 1.3729,1.73521 1.3729,3.03178 l 0,34.26483 c 0,2.66949 -1.1441,4.00424 -3.4322,4.00424 -2.1738,0 -4.09959,-1.02966 -5.77752,-3.08898 l -18.24788,-22.53813 0,21.16524 c -10e-6,1.41103 -0.45764,2.51696 -1.37289,3.3178 -0.91526,0.76271 -2.00212,1.14407 -3.26059,1.14407 -1.25848,0 -2.34534,-0.40042 -3.26059,-1.20127 -0.91526,-0.80085 -1.37289,-1.88771 -1.37289,-3.2606 l 0,-33.40677 m 41.33836,0.91525 c 0,-1.71606 0.4958,-3.05081 1.4873,-4.00423 0.9915,-0.95335 2.1547,-1.43005 3.4894,-1.43009 1.2585,4e-5 2.3454,0.4386 3.2606,1.31568 0.9534,0.87716 1.4301,2.09749 1.4301,3.66101 l 0,20.99365 c 0,2.36442 0.9534,4.29027 2.8602,5.77754 1.7161,1.37289 3.7372,2.05933 6.0635,2.05932 2.1737,1e-5 3.9852,-0.61016 5.4343,-1.83051 1.6017,-1.33473 2.4026,-3.1843 2.4026,-5.54872 l 0,-20.99365 c 0,-1.71606 0.5339,-3.08894 1.6017,-4.11864 0.9152,-0.87708 2.0402,-1.31564 3.375,-1.31568 1.3347,4e-5 2.4788,0.4386 3.4322,1.31568 0.9533,0.87716 1.43,2.09749 1.4301,3.66101 l 0,22.36653 c -10e-5,4.84323 -1.8878,8.73306 -5.6632,11.66949 -3.4703,2.70763 -7.6271,4.06144 -12.4703,4.06144 -4.9576,0 -9.1144,-1.43008 -12.4703,-4.29025 -3.7755,-3.20339 -5.6632,-7.62711 -5.6632,-13.27119 l 0,-20.07839 m 74.873,-0.85805 -19.5636,37.1822 c -0.7627,1.44915 -1.8877,2.1737302 -3.375,2.1737302 -0.8771,0 -1.6398,-0.3050902 -2.2881,-0.9152502 -0.6102,-0.57204 -0.9153,-1.37288 -0.9153,-2.40255 0,-1.02965 0.3432,-2.17372 1.0297,-3.4322 l 18.6483,-35.35169 c 1.144,-2.17369 2.555,-3.26055 4.233,-3.26059 1.2585,4e-5 2.1547,0.57207 2.6886,1.7161 0.5339,1.22038 0.3813,2.65046 -0.4576,4.29025 m 8.6976,0.11441 c 0,-1.48725 0.5148,-2.66945 1.5445,-3.54661 0.9153,-0.80081 2.0403,-1.20123 3.375,-1.20127 1.2966,4e-5 2.4216,0.41953 3.375,1.25847 0.9915,0.83903 1.4873,1.98309 1.4873,3.4322 l 0,28.54449 11.1547,0 c 1.2203,10e-6 2.1737,0.47671 2.8601,1.43009 0.7246,0.9534 1.0869,2.05933 1.0869,3.31779 0,1.22035 -0.3433,2.26907 -1.0297,3.14619 -0.6864,0.87712 -1.6589,1.31568 -2.9173,1.31568 l -16.8178,0 c -0.9534,0 -1.8878,-0.36229 -2.803,-1.08687 -0.8771,-0.7627 -1.3157,-1.62075 -1.3157,-2.57415 l 0,-34.03601 m 32.8669,-4.74788 c 1.6017,4e-5 2.8411,0.51487 3.7183,1.54449 0.9152,0.99156 1.3728,2.17377 1.3728,3.54661 0,1.33478 -0.4195,2.47885 -1.2584,3.4322 -0.9534,1.02969 -2.231,1.54453 -3.8327,1.54449 -1.7542,4e-5 -3.1462,-0.53386 -4.1758,-1.60169 -0.9534,-0.95336 -1.4301,-2.09742 -1.4301,-3.43221 0,-1.37284 0.4958,-2.55504 1.4873,-3.5466 0.9915,-0.99149 2.3644,-1.48725 4.1186,-1.48729 m -4.6907,37.35381 0,-21.10805 c 0,-1.60167 0.4767,-2.89828 1.4301,-3.88983 0.839,-0.83895 1.8496,-1.25845 3.0318,-1.25848 1.1822,3e-5 2.1928,0.41953 3.0318,1.25848 0.8771,0.95342 1.3157,2.25002 1.3157,3.88983 l 0,20.93644 c 0,1.67797 -0.4386,2.97458 -1.3157,3.88983 -0.8771,0.91525 -1.9068,1.37288 -3.089,1.37288 -1.1822,0 -2.2119,-0.43856 -3.089,-1.31568 -0.8771,-0.91525 -1.3157,-2.17372 -1.3157,-3.77542 m 14.056,-23.33899 c 0,-1.37285 0.4576,-2.47878 1.3729,-3.31779 0.8008,-0.72454 1.7924,-1.08683 2.9746,-1.08686 1.1822,3e-5 2.1927,0.36232 3.0317,1.08686 0.9153,0.83901 1.3729,1.94494 1.3729,3.31779 1.5254,-2.9364 4.3284,-4.40462 8.4089,-4.40465 2.9746,3e-5 5.5487,0.83901 7.7225,2.51694 2.3643,1.86868 3.5465,4.32842 3.5466,7.37924 l 0,17.90466 c -10e-5,1.6017 -0.4767,2.87924 -1.4301,3.83263 -0.839,0.80085 -1.8877,1.20127 -3.1462,1.20127 -1.2585,0 -2.3263,-0.40042 -3.2034,-1.20127 -0.9915,-0.91525 -1.4873,-2.13559 -1.4873,-3.66102 l 0,-15.67372 c 0,-1.18218 -0.4767,-2.11651 -1.43,-2.80297 -0.9535,-0.68642 -2.0785,-1.02964 -3.3751,-1.02966 -1.411,2e-5 -2.5932,0.38138 -3.5466,1.14407 -1.0678,0.87714 -1.6017,2.07841 -1.6017,3.60381 l 0,14.12923 c 0,1.71611 -0.4576,3.06992 -1.3728,4.06144 -0.9153,0.95339 -1.9831,1.43009 -3.2034,1.43009 -1.2585,0 -2.3454,-0.4767 -3.2606,-1.43009 -0.9153,-0.99152 -1.3729,-2.34533 -1.3729,-4.06144 l 0,-22.93856 m 32.8472,16.01696 0,-14.75848 c 0,-1.44912 0.4577,-2.59319 1.3729,-3.4322 0.8009,-0.72455 1.7924,-1.08684 2.9746,-1.08687 1.1822,3e-5 2.2118,0.40046 3.089,1.20127 0.8771,0.80088 1.3156,1.90681 1.3156,3.3178 l 0,13.78602 c 0,1.6017 0.553,2.87925 1.6589,3.83262 0.9916,0.87713 2.1928,1.31569 3.6039,1.31568 1.3728,10e-6 2.555,-0.43855 3.5465,-1.31568 0.9916,-0.91524 1.4874,-2.19278 1.4874,-3.83262 l 0,-13.32839 c 0,-1.56353 0.4576,-2.78387 1.3728,-3.66102 0.9152,-0.87709 2.0212,-1.31565 3.3178,-1.31568 1.2585,3e-5 2.3454,0.43859 3.2606,1.31568 0.9152,0.87715 1.3728,2.09749 1.3729,3.66102 l 0,15.2161 c -10e-5,4.76695 -2.4407,8.29449 -7.322,10.58262 -4.6907,2.21187 -9.2479,2.38348 -13.6716,0.51484 -4.9195,-2.09746 -7.3793,-6.10169 -7.3793,-12.01271 m 41.9426,-4.46187 -5.8347,-5.89195 c -1.411,-1.41099 -2.1165,-2.89827 -2.1165,-4.46186 0,-1.29659 0.4386,-2.38345 1.3157,-3.2606 0.8771,-0.91522 1.9258,-1.37285 3.1461,-1.37288 1.678,3e-5 3.2034,0.83902 4.5763,2.51695 l 4.6335,5.54873 4.8051,-5.77754 c 1.0296,-1.18217 2.3262,-1.77328 3.8898,-1.77331 1.2966,3e-5 2.4216,0.41953 3.375,1.25848 0.9534,0.80087 1.4301,1.81147 1.4301,3.03178 0,1.52545 -0.7437,3.05087 -2.2309,4.57627 l -5.7204,6.06356 7.6652,8.18008 c 1.0297,1.10594 1.5445,2.25001 1.5445,3.43221 0,1.29661 -0.5911,2.42161 -1.7732,3.37499 -1.1441,0.95339 -2.3454,1.43009 -3.6039,1.43009 -0.9534,0 -1.6779,-0.30509 -2.1737,-0.91526 l -7.2076,-8.40889 -7.036,7.95127 c -0.8009,0.91525 -1.7543,1.37288 -2.8602,1.37288 -1.2585,0 -2.4025,-0.51483 -3.4322,-1.54449 -0.9915,-1.02966 -1.4873,-2.21186 -1.4873,-3.54661 0,-1.14406 0.4386,-2.19279 1.3157,-3.14619 l 7.7796,-8.63771 m 54.4246,-16.01695 c 2.9746,3e-5 5.3961,0.87715 7.2648,2.63136 l 0,-7.37924 c 0,-1.52538 0.4576,-2.70758 1.37297,-3.54661 0.9152,-0.83894 2.0211,-1.25843 3.3177,-1.25847 1.2585,4e-5 2.3453,0.41953 3.2606,1.25847 0.9153,0.83903 1.3729,2.02123 1.3729,3.54661 l 0,34.72246 c 0,1.1822 -0.4386,2.09746 -1.3157,2.74576 -0.839,0.6483 -1.8877,0.97245 -3.1462,0.97246 -1.2584,-10e-6 -2.3453,-0.32416 -3.2606,-0.97246 -1.02967,-0.68644 -1.54447,-1.58263 -1.54447,-2.68856 -2.5169,2.21186 -5.1292,3.3178 -7.8368,3.3178 -4.2712,0 -7.7225,-1.79238 -10.3538,-5.37712 -2.3644,-3.24152 -3.5467,-7.13134 -3.5467,-11.66949 0,-4.46184 1.1632,-8.19913 3.4895,-11.21186 2.6313,-3.39404 6.2733,-5.09108 10.9258,-5.09111 m 1.2585,9.09534 c -2.0975,3e-5 -3.7564,0.80087 -4.9767,2.40255 -1.1059,1.44917 -1.6589,3.2034 -1.6589,5.26271 0,2.09747 0.553,3.87077 1.6589,5.31991 1.2203,1.6017 2.8792,2.40255 4.9767,2.40254 1.9068,10e-6 3.4513,-0.83897 4.6335,-2.51695 1.0677,-1.56354 1.6017,-3.41312 1.6017,-5.54872 0,-2.02117 -0.4959,-3.69914 -1.4873,-5.0339 -1.1441,-1.5254 -2.7268,-2.28811 -4.7479,-2.28814 m 19.90927,7.60805 c 0,-5.22455 1.6781,-9.38133 5.034,-12.47034 3.0127,-2.78386 6.6927,-4.17581 11.0402,-4.17584 4.1187,3e-5 7.589,1.27757 10.411,3.83262 3.1272,2.82207 4.6906,6.63562 4.6907,11.44068 -10e-5,2.86019 -0.9534,4.29027 -2.8601,4.29026 l -18.0763,0 c 1.0296,3.88983 3.4703,5.83475 7.322,5.83474 1.3729,10e-6 2.7457,-0.26694 4.1187,-0.80085 1.2202,-0.45762 2.1355,-0.99151 2.7457,-1.60169 0.8771,-0.91525 1.8305,-1.37287 2.8602,-1.37288 0.9915,10e-6 1.8495,0.40043 2.5742,1.20127 0.7245,0.80085 1.0868,1.77331 1.0868,2.91737 0,1.86865 -1.0107,3.47034 -3.0318,4.80508 -2.9746,1.98305 -6.3305,2.97458 -10.0678,2.97458 -4.767,0 -8.8665,-1.48729 -12.2987,-4.46186 -3.6992,-3.24152 -5.5488,-7.37923 -5.5488,-12.41314 m 10.0107,-3.66101 12.1271,0 c -0.4577,-1.71608 -1.2776,-3.0699 -2.4597,-4.06144 -1.0298,-0.8771 -2.212,-1.31566 -3.5467,-1.31568 -1.3729,2e-5 -2.5933,0.45765 -3.661,1.37288 -1.1822,0.95341 -2.0021,2.28816 -2.4597,4.00424 m 40.7127,-17.38984 c 0,-1.67792 0.4766,-2.9936 1.4301,-3.94703 0.839,-0.83894 1.8876,-1.25843 3.1461,-1.25847 1.2585,4e-5 2.3454,0.4386 3.2606,1.31568 0.9152,0.83902 1.3729,1.96402 1.3729,3.37499 l 0,32.89195 c 0,1.56356 -0.4385,2.7839 -1.3157,3.66102 -0.839,0.83898 -1.8686,1.25847 -3.0889,1.25847 -1.2966,0 -2.4217,-0.43856 -3.375,-1.31568 -0.9535,-0.91525 -1.4301,-2.11652 -1.4301,-3.60381 l 0,-32.37712 m 28.5007,4.34746 c 1.0678,3e-5 2.3835,0.36232 3.947,1.08687 1.3729,0.64833 2.5361,1.39197 3.4894,2.23093 0.7628,-2.21183 2.25,-3.31777 4.4619,-3.3178 1.1822,3e-5 2.2118,0.41953 3.089,1.25848 0.8771,0.83901 1.3157,2.00214 1.3158,3.4894 l 0,25.79873 c -10e-5,0.99153 -0.4578,1.75424 -1.373,2.28814 -0.8772,0.53389 -1.945,0.80084 -3.2033,0.80084 -1.2205,0 -2.2882,-0.26695 -3.2035,-0.80084 -0.9152,-0.5339 -1.3729,-1.27755 -1.3729,-2.23094 -2.3644,1.98305 -4.9195,2.97458 -7.6652,2.97458 -4.4619,0 -8.0084,-1.75424 -10.6398,-5.26271 -2.4025,-3.16525 -3.6039,-7.01694 -3.6039,-11.55508 0,-4.53812 1.2204,-8.37074 3.6611,-11.49788 2.7076,-3.50845 6.4067,-5.26269 11.0974,-5.26272 m 0.7437,9.26695 c -2.0975,3e-5 -3.7564,0.76274 -4.9767,2.28814 -1.0678,1.33476 -1.6017,3.01273 -1.6016,5.0339 -10e-5,2.09747 0.5719,3.90891 1.716,5.43432 1.2584,1.63984 2.9365,2.45975 5.0339,2.45974 1.9831,10e-6 3.5657,-0.78177 4.7479,-2.34534 1.0677,-1.44914 1.6016,-3.20337 1.6017,-5.26271 -10e-5,-2.0593 -0.5721,-3.8326 -1.7162,-5.31991 -1.144,-1.5254 -2.7457,-2.28811 -4.805,-2.28814 m 35.5563,-13.32839 c 0,-1.71606 0.4958,-3.05081 1.4873,-4.00423 0.9915,-0.95335 2.1547,-1.43005 3.4893,-1.43009 1.2586,4e-5 2.3455,0.4386 3.2607,1.31568 0.9533,0.87716 1.4301,2.09749 1.4301,3.66101 l 0,20.99365 c 0,2.36442 0.9533,4.29027 2.8602,5.77754 1.716,1.37289 3.7372,2.05933 6.0635,2.05932 2.1738,1e-5 3.9851,-0.61016 5.4343,-1.83051 1.6016,-1.33473 2.4025,-3.1843 2.4026,-5.54872 l 0,-20.99365 c -10e-5,-1.71606 0.5339,-3.08894 1.6017,-4.11864 0.9152,-0.87708 2.0402,-1.31564 3.3749,-1.31568 1.3348,4e-5 2.4788,0.4386 3.4322,1.31568 0.9534,0.87716 1.4301,2.09749 1.4302,3.66101 l 0,22.36653 c -1e-4,4.84323 -1.8878,8.73306 -5.6632,11.66949 -3.4704,2.70763 -7.6271,4.06144 -12.4703,4.06144 -4.9577,0 -9.1145,-1.43008 -12.4704,-4.29025 -3.7754,-3.20339 -5.6631,-7.62711 -5.6631,-13.27119 l 0,-20.07839 m 40.7797,8.5233 c 0,-1.37285 0.4577,-2.47878 1.373,-3.31779 0.8008,-0.72454 1.7923,-1.08683 2.9745,-1.08686 1.1823,3e-5 2.1928,0.36232 3.0317,1.08686 0.9153,0.83901 1.373,1.94494 1.373,3.31779 1.5254,-2.9364 4.3283,-4.40462 8.4088,-4.40465 2.9746,3e-5 5.5488,0.83901 7.7225,2.51694 2.3645,1.86868 3.5466,4.32842 3.5467,7.37924 l 0,17.90466 c -10e-5,1.6017 -0.4768,2.87924 -1.4302,3.83263 -0.8389,0.80085 -1.8877,1.20127 -3.1461,1.20127 -1.2585,0 -2.3262,-0.40042 -3.2034,-1.20127 -0.9916,-0.91525 -1.4873,-2.13559 -1.4873,-3.66102 l 0,-15.67372 c 0,-1.18218 -0.4767,-2.11651 -1.4301,-2.80297 -0.9535,-0.68642 -2.0785,-1.02964 -3.375,-1.02966 -1.411,2e-5 -2.5932,0.38138 -3.5466,1.14407 -1.0678,0.87714 -1.6016,2.07841 -1.6016,3.60381 l 0,14.12923 c 0,1.71611 -0.4577,3.06992 -1.373,4.06144 -0.9153,0.95339 -1.983,1.43009 -3.2033,1.43009 -1.2585,0 -2.3454,-0.4767 -3.2606,-1.43009 -0.9153,-0.99152 -1.373,-2.34533 -1.373,-4.06144 l 0,-22.93856 m 38.4532,-14.01482 c 1.6018,4e-5 2.8412,0.51487 3.7183,1.54449 0.9151,0.99156 1.3728,2.17377 1.3728,3.54661 0,1.33478 -0.4194,2.47885 -1.2585,3.4322 -0.9533,1.02969 -2.2308,1.54453 -3.8326,1.54449 -1.7543,4e-5 -3.1462,-0.53386 -4.1758,-1.60169 -0.9534,-0.95336 -1.4301,-2.09742 -1.4301,-3.43221 0,-1.37284 0.4958,-2.55504 1.4873,-3.5466 0.9915,-0.99149 2.3643,-1.48725 4.1186,-1.48729 m -4.6907,37.35381 0,-21.10805 c 0,-1.60167 0.4767,-2.89828 1.4301,-3.88983 0.8391,-0.83895 1.8496,-1.25845 3.0318,-1.25848 1.1822,3e-5 2.1927,0.41953 3.0318,1.25848 0.8772,0.95342 1.3156,2.25002 1.3156,3.88983 l 0,20.93644 c 0,1.67797 -0.4384,2.97458 -1.3156,3.88983 -0.8772,0.91525 -1.9068,1.37288 -3.089,1.37288 -1.1822,0 -2.2118,-0.43856 -3.089,-1.31568 -0.8772,-0.91525 -1.3157,-2.17372 -1.3157,-3.77542 m 23.323,-22.82415 5.0339,14.47246 4.7479,-14.01483 c 0.9915,-2.93642 2.7648,-4.40464 5.3199,-4.40467 1.6016,3e-5 2.7838,0.68647 3.5466,2.05932 0.877,1.48732 0.8389,3.35597 -0.1145,5.60594 l -8.752,21.10805 c -0.8391,2.05932 -2.4025,3.08898 -4.6908,3.08898 -2.2118,0 -3.7563,-1.02966 -4.6334,-3.08898 l -8.8094,-20.59322 c -0.6101,-1.41099 -0.9151,-2.68853 -0.9151,-3.83263 0,-1.33472 0.4194,-2.40251 1.2584,-3.20339 0.7246,-0.68641 1.6589,-1.02963 2.8029,-1.02966 2.5551,3e-5 4.2903,1.27757 5.2056,3.83263 m 21.9044,11.72669 c 0,-5.22455 1.678,-9.38133 5.0339,-12.47034 3.0127,-2.78386 6.6929,-4.17581 11.0403,-4.17584 4.1187,3e-5 7.589,1.27757 10.411,3.83262 3.1271,2.82207 4.6906,6.63562 4.6907,11.44068 -1e-4,2.86019 -0.9535,4.29027 -2.8601,4.29026 l -18.0763,0 c 1.0296,3.88983 3.4702,5.83475 7.3219,5.83474 1.3729,10e-6 2.7458,-0.26694 4.1187,-0.80085 1.2203,-0.45762 2.1355,-0.99151 2.7457,-1.60169 0.8772,-0.91525 1.8306,-1.37287 2.8603,-1.37288 0.9915,10e-6 1.8494,0.40043 2.5742,1.20127 0.7244,0.80085 1.0868,1.77331 1.0868,2.91737 0,1.86865 -1.0107,3.47034 -3.0318,4.80508 -2.9747,1.98305 -6.3305,2.97458 -10.0679,2.97458 -4.7669,0 -8.8665,-1.48729 -12.2986,-4.46186 -3.6992,-3.24152 -5.5488,-7.37923 -5.5488,-12.41314 m 10.0106,-3.66101 12.1272,0 c -0.4577,-1.71608 -1.2777,-3.0699 -2.4598,-4.06144 -1.0297,-0.8771 -2.2118,-1.31566 -3.5466,-1.31568 -1.373,2e-5 -2.5933,0.45765 -3.661,1.37288 -1.1822,0.95341 -2.0022,2.28816 -2.4598,4.00424 m 25.2946,-8.58052 c 0,-1.44912 0.4195,-2.55505 1.2584,-3.31779 0.7247,-0.68641 1.659,-1.02963 2.8031,-1.02966 1.2203,3e-5 2.2881,0.34325 3.2033,1.02966 0.9915,0.80088 1.4874,1.7924 1.4874,2.97458 1.9448,-2.55506 4.3854,-3.8326 7.322,-3.83263 1.0677,3e-5 2.002,0.59113 2.8028,1.7733 0.839,1.1441 1.2586,2.2691 1.2587,3.37501 -10e-5,1.63985 -0.9916,2.89833 -2.9747,3.77542 -1.8305,0.68646 -3.661,1.3729 -5.4915,2.05932 -1.9449,0.99155 -2.9173,2.45977 -2.9173,4.40466 l 0,13.27119 c 0,1.44915 -0.4578,2.59322 -1.373,3.4322 -0.8771,0.83898 -1.9258,1.25847 -3.1461,1.25847 -1.1822,0 -2.1547,-0.38135 -2.9175,-1.14406 -0.877,-0.83899 -1.3156,-2.02119 -1.3156,-3.54661 l 0,-24.48306 m 23.642,6.97882 c 0,-3.58472 1.2013,-6.42582 3.6039,-8.52331 2.2119,-1.90674 4.9766,-2.86013 8.2944,-2.86016 3.1272,3e-5 6.0063,0.85808 8.6377,2.57415 1.7162,1.10596 2.5742,2.51698 2.5742,4.23305 0,0.95342 -0.286,1.77333 -0.858,2.45975 -0.5721,0.68646 -1.2777,1.02968 -2.1165,1.02966 -0.4959,2e-5 -1.0107,-0.13345 -1.5445,-0.40043 -2.7078,-1.37285 -5.0721,-2.05929 -7.0932,-2.05932 -1.5636,3e-5 -2.3454,0.62926 -2.3454,1.88771 0,0.7246 1.2204,1.69706 3.661,2.91738 3.2797,1.60171 5.5868,2.97459 6.9216,4.11864 2.4406,2.17374 3.6609,4.76696 3.6611,7.77966 -2e-4,3.05085 -1.2014,5.35805 -3.6039,6.92161 -2.0975,1.37288 -4.8241,2.05932 -8.1801,2.05932 -4.0043,0 -7.4173,-0.83898 -10.2394,-2.51695 -1.2584,-0.76271 -1.8877,-2.04025 -1.8877,-3.83263 0,-1.06779 0.286,-1.98304 0.858,-2.74576 0.5721,-0.80084 1.3538,-1.20126 2.3454,-1.20127 0.6101,10e-6 1.2584,0.17162 1.945,0.51483 3.2032,1.4873 5.6249,2.23094 7.2647,2.23093 1.5255,10e-6 2.2881,-0.64829 2.2881,-1.94491 0,-0.80084 -1.2203,-1.69702 -3.661,-2.68856 -3.3941,-1.37287 -5.6822,-2.4788 -6.8644,-3.3178 -2.4407,-1.75422 -3.661,-3.96608 -3.661,-6.63559 m 33.0225,-20.99364 c 1.6017,4e-5 2.841,0.51487 3.7183,1.54449 0.9152,0.99156 1.3727,2.17377 1.3727,3.54661 0,1.33478 -0.4194,2.47885 -1.2584,3.4322 -0.9535,1.02969 -2.2309,1.54453 -3.8326,1.54449 -1.7543,4e-5 -3.1462,-0.53386 -4.1759,-1.60169 -0.9533,-0.95336 -1.43,-2.09742 -1.43,-3.43221 0,-1.37284 0.4957,-2.55504 1.4872,-3.5466 0.9915,-0.99149 2.3644,-1.48725 4.1187,-1.48729 m -4.6908,37.35381 0,-21.10805 c 0,-1.60167 0.4767,-2.89828 1.4302,-3.88983 0.839,-0.83895 1.8496,-1.25845 3.0317,-1.25848 1.1822,3e-5 2.1928,0.41953 3.0318,1.25848 0.8771,0.95342 1.3157,2.25002 1.3157,3.88983 l 0,20.93644 c 0,1.67797 -0.4386,2.97458 -1.3157,3.88983 -0.8771,0.91525 -1.9067,1.37288 -3.0889,1.37288 -1.1822,0 -2.2119,-0.43856 -3.0891,-1.31568 -0.8771,-0.91525 -1.3157,-2.17372 -1.3157,-3.77542 m 28.5285,-27.80085 c 2.9745,3e-5 5.3961,0.87715 7.2648,2.63136 l 0,-7.37924 c 0,-1.52538 0.4576,-2.70758 1.3729,-3.54661 0.9151,-0.83894 2.0212,-1.25843 3.3177,-1.25847 1.2585,4e-5 2.3454,0.41953 3.2606,1.25847 0.9152,0.83903 1.3729,2.02123 1.373,3.54661 l 0,34.72246 c -10e-5,1.1822 -0.4387,2.09746 -1.3157,2.74576 -0.8391,0.6483 -1.8878,0.97245 -3.1462,0.97246 -1.2586,-10e-6 -2.3454,-0.32416 -3.2606,-0.97246 -1.0297,-0.68644 -1.5445,-1.58263 -1.5445,-2.68856 -2.517,2.21186 -5.1293,3.3178 -7.8368,3.3178 -4.2713,0 -7.7225,-1.79238 -10.3539,-5.37712 -2.3644,-3.24152 -3.5466,-7.13134 -3.5466,-11.66949 0,-4.46184 1.1631,-8.19913 3.4894,-11.21186 2.6314,-3.39404 6.2734,-5.09108 10.9259,-5.09111 m 1.2584,9.09534 c -2.0975,3e-5 -3.7563,0.80087 -4.9766,2.40255 -1.106,1.44917 -1.659,3.2034 -1.659,5.26271 0,2.09747 0.553,3.87077 1.659,5.31991 1.2203,1.6017 2.8791,2.40255 4.9766,2.40254 1.9068,10e-6 3.4512,-0.83897 4.6334,-2.51695 1.0678,-1.56354 1.6017,-3.41312 1.6017,-5.54872 0,-2.02117 -0.4957,-3.69914 -1.4872,-5.0339 -1.1441,-1.5254 -2.7267,-2.28811 -4.7479,-2.28814 m 34.6679,-9.09534 c 1.0679,3e-5 2.3836,0.36232 3.9471,1.08687 1.3728,0.64833 2.536,1.39197 3.4894,2.23093 0.7627,-2.21183 2.25,-3.31777 4.4618,-3.3178 1.1822,3e-5 2.2119,0.41953 3.089,1.25848 0.8772,0.83901 1.3157,2.00214 1.3157,3.4894 l 0,25.79873 c 0,0.99153 -0.4576,1.75424 -1.3728,2.28814 -0.8773,0.53389 -1.945,0.80084 -3.2034,0.80084 -1.2204,0 -2.2883,-0.26695 -3.2034,-0.80084 -0.9153,-0.5339 -1.3729,-1.27755 -1.3729,-2.23094 -2.3645,1.98305 -4.9195,2.97458 -7.6653,2.97458 -4.4619,0 -8.0084,-1.75424 -10.6398,-5.26271 -2.4025,-3.16525 -3.6038,-7.01694 -3.6038,-11.55508 0,-4.53812 1.2203,-8.37074 3.661,-11.49788 2.7077,-3.50845 6.4068,-5.26269 11.0974,-5.26272 m 0.7437,9.26695 c -2.0975,3e-5 -3.7564,0.76274 -4.9767,2.28814 -1.0678,1.33476 -1.6017,3.01273 -1.6017,5.0339 0,2.09747 0.572,3.90891 1.7161,5.43432 1.2585,1.63984 2.9364,2.45975 5.034,2.45974 1.983,10e-6 3.5656,-0.78177 4.7478,-2.34534 1.0678,-1.44914 1.6017,-3.20337 1.6017,-5.26271 0,-2.0593 -0.5721,-3.8326 -1.7161,-5.31991 -1.144,-1.5254 -2.7457,-2.28811 -4.8051,-2.28814 m 34.6107,-9.26695 c 2.9746,3e-5 5.3962,0.87715 7.2649,2.63136 l 0,-7.37924 c 0,-1.52538 0.4576,-2.70758 1.3728,-3.54661 0.9153,-0.83894 2.0212,-1.25843 3.3179,-1.25847 1.2584,4e-5 2.3453,0.41953 3.2605,1.25847 0.9153,0.83903 1.3728,2.02123 1.3729,3.54661 l 0,34.72246 c -10e-5,1.1822 -0.4386,2.09746 -1.3156,2.74576 -0.8391,0.6483 -1.8878,0.97245 -3.1462,0.97246 -1.2585,-10e-6 -2.3454,-0.32416 -3.2607,-0.97246 -1.0297,-0.68644 -1.5445,-1.58263 -1.5445,-2.68856 -2.5169,2.21186 -5.1293,3.3178 -7.8368,3.3178 -4.2712,0 -7.7225,-1.79238 -10.3538,-5.37712 -2.3644,-3.24152 -3.5466,-7.13134 -3.5466,-11.66949 0,-4.46184 1.1631,-8.19913 3.4895,-11.21186 2.6313,-3.39404 6.2732,-5.09108 10.9257,-5.09111 m 1.2585,9.09534 c -2.0974,3e-5 -3.7564,0.80087 -4.9767,2.40255 -1.1059,1.44917 -1.6589,3.2034 -1.6589,5.26271 0,2.09747 0.553,3.87077 1.6589,5.31991 1.2203,1.6017 2.8793,2.40255 4.9767,2.40254 1.9068,10e-6 3.4513,-0.83897 4.6335,-2.51695 1.0678,-1.56354 1.6017,-3.41312 1.6018,-5.54872 -10e-5,-2.02117 -0.4959,-3.69914 -1.4874,-5.0339 -1.144,-1.5254 -2.7267,-2.28811 -4.7479,-2.28814 m 49.8,-9.09534 c 2.9746,3e-5 5.3962,0.87715 7.2647,2.63136 l 0,-7.37924 c 0,-1.52538 0.4577,-2.70758 1.373,-3.54661 0.9153,-0.83894 2.0211,-1.25843 3.3178,-1.25847 1.2585,4e-5 2.3453,0.41953 3.2606,1.25847 0.9152,0.83903 1.3728,2.02123 1.3728,3.54661 l 0,34.72246 c 0,1.1822 -0.4386,2.09746 -1.3156,2.74576 -0.839,0.6483 -1.8878,0.97245 -3.1462,0.97246 -1.2585,-10e-6 -2.3454,-0.32416 -3.2607,-0.97246 -1.0296,-0.68644 -1.5445,-1.58263 -1.5445,-2.68856 -2.5168,2.21186 -5.1292,3.3178 -7.8368,3.3178 -4.2711,0 -7.7225,-1.79238 -10.3538,-5.37712 -2.3643,-3.24152 -3.5466,-7.13134 -3.5466,-11.66949 0,-4.46184 1.1632,-8.19913 3.4894,-11.21186 2.6313,-3.39404 6.2733,-5.09108 10.9259,-5.09111 m 1.2585,9.09534 c -2.0975,3e-5 -3.7565,0.80087 -4.9768,2.40255 -1.1058,1.44917 -1.6589,3.2034 -1.6589,5.26271 0,2.09747 0.5531,3.87077 1.6589,5.31991 1.2203,1.6017 2.8793,2.40255 4.9768,2.40254 1.9067,10e-6 3.4512,-0.83897 4.6335,-2.51695 1.0677,-1.56354 1.6017,-3.41312 1.6017,-5.54872 0,-2.02117 -0.4959,-3.69914 -1.4874,-5.0339 -1.144,-1.5254 -2.7267,-2.28811 -4.7478,-2.28814 m 19.9095,7.60805 c 0,-5.22455 1.6779,-9.38133 5.0339,-12.47034 3.0125,-2.78386 6.6927,-4.17581 11.0402,-4.17584 4.1186,3e-5 7.5889,1.27757 10.411,3.83262 3.1271,2.82207 4.6906,6.63562 4.6906,11.44068 0,2.86019 -0.9534,4.29027 -2.8601,4.29026 l -18.0762,0 c 1.0296,3.88983 3.4702,5.83475 7.322,5.83474 1.3729,10e-6 2.7457,-0.26694 4.1186,-0.80085 1.2203,-0.45762 2.1356,-0.99151 2.7458,-1.60169 0.877,-0.91525 1.8305,-1.37287 2.8602,-1.37288 0.9915,10e-6 1.8495,0.40043 2.5741,1.20127 0.7245,0.80085 1.0868,1.77331 1.0868,2.91737 0,1.86865 -1.0105,3.47034 -3.0317,4.80508 -2.9746,1.98305 -6.3306,2.97458 -10.0679,2.97458 -4.7669,0 -8.8664,-1.48729 -12.2986,-4.46186 -3.6993,-3.24152 -5.5487,-7.37923 -5.5487,-12.41314 m 10.0105,-3.66101 12.1272,0 c -0.4577,-1.71608 -1.2776,-3.0699 -2.4598,-4.06144 -1.0297,-0.8771 -2.2119,-1.31566 -3.5467,-1.31568 -1.3728,2e-5 -2.5931,0.45765 -3.661,1.37288 -1.1822,0.95341 -2.0021,2.28816 -2.4597,4.00424 m 41.914,-10.92585 c 0,-4.08048 1.6589,-7.34107 4.9767,-9.78178 2.9746,-2.17369 6.5593,-3.26055 10.7542,-3.26059 2.6695,4e-5 5.1102,0.47674 7.3221,1.43008 2.7838,1.25852 4.1758,3.14623 4.1758,5.66314 0,1.22037 -0.3814,2.2691 -1.1441,3.14618 -0.7627,0.83902 -1.7351,1.25851 -2.9174,1.25848 -0.6864,3e-5 -1.411,-0.17158 -2.1737,-0.51483 -2.2118,-0.91523 -4.3665,-1.37285 -6.4639,-1.37289 -2.9365,4e-5 -4.4047,1.16317 -4.4047,3.48941 0,0.95342 1.6588,1.98308 4.9767,3.08899 4.3855,1.48731 7.4935,2.89833 9.3241,4.23305 3.3178,2.47883 4.9767,5.85383 4.9767,10.125 0,4.80509 -1.6208,8.42796 -4.8623,10.86864 -2.822,2.09745 -6.5403,3.14618 -11.1547,3.14618 -3.3558,0 -6.6927,-0.55296 -10.0105,-1.6589 -1.4492,-0.49576 -2.5742,-1.25847 -3.375,-2.28813 -0.8009,-1.02966 -1.2013,-2.09745 -1.2013,-3.20339 0,-1.14406 0.4195,-2.09745 1.2585,-2.86017 0.8771,-0.80084 2.0785,-1.20126 3.6038,-1.20127 1.2584,10e-6 2.6695,0.28603 4.2331,0.85805 2.2499,0.83899 4.3664,1.25848 6.3495,1.25848 3.356,0 5.0339,-1.35381 5.034,-4.06144 -10e-5,-1.67796 -1.678,-3.18431 -5.034,-4.51907 -4.9958,-1.9449 -8.0657,-3.33684 -9.2097,-4.17585 -3.356,-2.32624 -5.0339,-5.5487 -5.0339,-9.66737 m 48.639,-2.11653 c 1.0679,3e-5 2.3835,0.36232 3.947,1.08687 1.3729,0.64833 2.536,1.39197 3.4894,2.23093 0.7627,-2.21183 2.2499,-3.31777 4.4619,-3.3178 1.1822,3e-5 2.2118,0.41953 3.0889,1.25848 0.8772,0.83901 1.3157,2.00214 1.3157,3.4894 l 0,25.79873 c 0,0.99153 -0.4577,1.75424 -1.3728,2.28814 -0.8772,0.53389 -1.9449,0.80084 -3.2034,0.80084 -1.2204,0 -2.2882,-0.26695 -3.2034,-0.80084 -0.9154,-0.5339 -1.373,-1.27755 -1.3729,-2.23094 -2.3644,1.98305 -4.9195,2.97458 -7.6653,2.97458 -4.4618,0 -8.0084,-1.75424 -10.6397,-5.26271 -2.4026,-3.16525 -3.6039,-7.01694 -3.6039,-11.55508 0,-4.53812 1.2203,-8.37074 3.661,-11.49788 2.7076,-3.50845 6.4068,-5.26269 11.0975,-5.26272 m 0.7436,9.26695 c -2.0974,3e-5 -3.7563,0.76274 -4.9767,2.28814 -1.0678,1.33476 -1.6017,3.01273 -1.6017,5.0339 0,2.09747 0.572,3.90891 1.7162,5.43432 1.2584,1.63984 2.9363,2.45975 5.0338,2.45974 1.9831,10e-6 3.5657,-0.78177 4.7479,-2.34534 1.0678,-1.44914 1.6018,-3.20337 1.6018,-5.26271 0,-2.0593 -0.5721,-3.8326 -1.7162,-5.31991 -1.144,-1.5254 -2.7457,-2.28811 -4.8051,-2.28814 m 20.1383,-4.80509 c 0,-1.37285 0.4576,-2.47878 1.3729,-3.31779 0.8009,-0.72454 1.7924,-1.08683 2.9745,-1.08686 1.1822,3e-5 2.1929,0.36232 3.0319,1.08686 0.9153,0.83901 1.3729,1.94494 1.3729,3.31779 1.5253,-2.9364 4.3283,-4.40462 8.4089,-4.40465 2.9746,3e-5 5.5487,0.83901 7.7224,2.51694 2.3643,1.86868 3.5466,4.32842 3.5466,7.37924 l 0,17.90466 c 0,1.6017 -0.4767,2.87924 -1.43,3.83263 -0.8392,0.80085 -1.8878,1.20127 -3.1462,1.20127 -1.2586,0 -2.3264,-0.40042 -3.2034,-1.20127 -0.9916,-0.91525 -1.4874,-2.13559 -1.4874,-3.66102 l 0,-15.67372 c 0,-1.18218 -0.4767,-2.11651 -1.43,-2.80297 -0.9535,-0.68642 -2.0784,-1.02964 -3.375,-1.02966 -1.411,2e-5 -2.5933,0.38138 -3.5467,1.14407 -1.0678,0.87714 -1.6017,2.07841 -1.6017,3.60381 l 0,14.12923 c 0,1.71611 -0.4575,3.06992 -1.3728,4.06144 -0.9153,0.95339 -1.9831,1.43009 -3.2034,1.43009 -1.2585,0 -2.3454,-0.4767 -3.2606,-1.43009 -0.9153,-0.99152 -1.3729,-2.34533 -1.3729,-4.06144 l 0,-22.93856 m 69.0302,19.67797 c 1.3728,10e-6 2.6885,-0.15253 3.947,-0.45763 1.6781,-0.45761 3.356,-0.89617 5.0339,-1.31567 0.3433,-0.1144 0.6865,-0.1716 1.0297,-0.17161 1.2966,10e-6 2.4597,0.53391 3.4894,1.60169 1.0296,1.02967 1.5444,2.17374 1.5445,3.4322 -10e-5,1.6017 -0.8963,2.78391 -2.6886,3.54661 -2.5932,1.0678 -4.7098,1.79238 -6.3496,2.17373 -1.8305,0.41949 -4.1187,0.62924 -6.8644,0.62924 -6.3305,0 -11.3263,-2.26907 -14.9873,-6.8072 -3.2796,-4.04236 -4.9194,-9.03812 -4.9194,-14.98729 0,-6.06353 1.697,-11.24997 5.0911,-15.55932 3.7754,-4.72877 8.8092,-7.09318 15.1017,-7.09322 2.9745,4e-5 5.1483,0.15259 6.5212,0.45763 1.6016,0.34326 3.7372,1.18224 6.4067,2.51695 1.8304,0.91529 2.7458,2.19283 2.7458,3.83262 0,1.18224 -0.4768,2.25004 -1.4301,3.20339 -0.9534,0.91529 -2.0594,1.37292 -3.3178,1.37288 -0.3433,4e-5 -0.6864,-0.0572 -1.0296,-0.17161 -0.1526,-0.0381 -1.7544,-0.55293 -4.8052,-1.54449 -1.3347,-0.45759 -2.9935,-0.66734 -4.9766,-0.62924 -3.1272,0.11444 -5.606,1.52546 -7.4365,4.23305 -1.6779,2.40257 -2.5169,5.33902 -2.5169,8.80933 0,3.50849 0.858,6.464 2.5742,8.86652 1.9447,2.70764 4.5571,4.06145 7.8368,4.06144 m 31.8684,-24.13983 c 1.0679,3e-5 2.3836,0.36232 3.9472,1.08687 1.3727,0.64833 2.536,1.39197 3.4893,2.23093 0.7627,-2.21183 2.25,-3.31777 4.4619,-3.3178 1.1821,3e-5 2.2118,0.41953 3.089,1.25848 0.8771,0.83901 1.3157,2.00214 1.3157,3.4894 l 0,25.79873 c 0,0.99153 -0.4577,1.75424 -1.3729,2.28814 -0.8771,0.53389 -1.945,0.80084 -3.2034,0.80084 -1.2204,0 -2.2882,-0.26695 -3.2034,-0.80084 -0.9152,-0.5339 -1.3729,-1.27755 -1.3729,-2.23094 -2.3644,1.98305 -4.9195,2.97458 -7.6653,2.97458 -4.4619,0 -8.0084,-1.75424 -10.6398,-5.26271 -2.4025,-3.16525 -3.6038,-7.01694 -3.6038,-11.55508 0,-4.53812 1.2203,-8.37074 3.6611,-11.49788 2.7076,-3.50845 6.4067,-5.26269 11.0973,-5.26272 m 0.7438,9.26695 c -2.0976,3e-5 -3.7564,0.76274 -4.9767,2.28814 -1.0679,1.33476 -1.6017,3.01273 -1.6017,5.0339 0,2.09747 0.572,3.90891 1.716,5.43432 1.2585,1.63984 2.9365,2.45975 5.034,2.45974 1.983,10e-6 3.5656,-0.78177 4.7478,-2.34534 1.0678,-1.44914 1.6017,-3.20337 1.6017,-5.26271 0,-2.0593 -0.572,-3.8326 -1.7161,-5.31991 -1.144,-1.5254 -2.7457,-2.28811 -4.805,-2.28814 m 20.1382,-4.80509 c 0,-1.44912 0.4195,-2.55505 1.2585,-3.31779 0.7246,-0.68641 1.6589,-1.02963 2.803,-1.02966 1.2203,3e-5 2.288,0.34325 3.2034,1.02966 0.9915,0.80088 1.4872,1.7924 1.4872,2.97458 1.945,-2.55506 4.3857,-3.8326 7.322,-3.83263 1.0679,3e-5 2.0022,0.59113 2.8031,1.7733 0.8389,1.1441 1.2584,2.2691 1.2584,3.37501 0,1.63985 -0.9915,2.89833 -2.9746,3.77542 -1.8305,0.68646 -3.661,1.3729 -5.4914,2.05932 -1.945,0.99155 -2.9175,2.45977 -2.9175,4.40466 l 0,13.27119 c 0,1.44915 -0.4576,2.59322 -1.3729,3.4322 -0.877,0.83898 -1.9258,1.25847 -3.1462,1.25847 -1.1822,0 -2.1546,-0.38135 -2.9173,-1.14406 -0.8771,-0.83899 -1.3157,-2.02119 -1.3157,-3.54661 l 0,-24.48306 m 23.1271,-8.80932 c 0,-1.67792 0.4767,-2.9936 1.4301,-3.94703 0.839,-0.83894 1.8878,-1.25843 3.1462,-1.25847 1.2584,4e-5 2.3453,0.4386 3.2606,1.31568 0.9152,0.83902 1.3728,1.96402 1.3728,3.37499 l 0,32.89195 c 0,1.56356 -0.4385,2.7839 -1.3157,3.66102 -0.8389,0.83898 -1.8686,1.25847 -3.089,1.25847 -1.2965,0 -2.4215,-0.43856 -3.3749,-1.31568 -0.9534,-0.91525 -1.4301,-2.11652 -1.4301,-3.60381 l 0,-32.37712 m 29.5877,4.34746 c 4.5762,3e-5 8.2944,1.83054 11.1546,5.49153 2.6313,3.31782 3.9471,7.28392 3.9471,11.8983 0,4.46188 -1.2968,8.18009 -3.89,11.15466 -2.9363,3.35594 -7.055,5.0339 -12.3559,5.0339 -4.538,0 -8.1991,-1.75424 -10.983,-5.26271 -2.4788,-3.12711 -3.7182,-6.95973 -3.7182,-11.49788 0,-4.57625 1.2965,-8.42794 3.8898,-11.55508 2.9365,-3.50845 6.9216,-5.26269 11.9556,-5.26272 m -1.2585,9.43856 c -1.678,3e-5 -3.0128,0.7246 -4.0043,2.17373 -0.9534,1.41104 -1.4301,3.10807 -1.43,5.0911 -1e-4,2.05934 0.4958,3.79451 1.4873,5.20551 1.144,1.63984 2.6695,2.45975 4.5761,2.45975 2.1357,0 3.8328,-0.76271 5.0912,-2.28814 1.1441,-1.411 1.7162,-3.10804 1.7162,-5.0911 0,-2.02117 -0.6104,-3.73727 -1.8306,-5.1483 -1.3729,-1.60168 -3.2416,-2.40252 -5.6059,-2.40255 m 21.0098,2.00212 c 0,-3.58472 1.2012,-6.42582 3.6038,-8.52331 2.2118,-1.90674 4.9766,-2.86013 8.2945,-2.86016 3.127,3e-5 6.0062,0.85808 8.6376,2.57415 1.7161,1.10596 2.5742,2.51698 2.5742,4.23305 0,0.95342 -0.2861,1.77333 -0.8581,2.45975 -0.572,0.68646 -1.2776,1.02968 -2.1165,1.02966 -0.4957,2e-5 -1.0106,-0.13345 -1.5445,-0.40043 -2.7076,-1.37285 -5.072,-2.05929 -7.0932,-2.05932 -1.5636,3e-5 -2.3454,0.62926 -2.3454,1.88771 0,0.7246 1.2204,1.69706 3.6611,2.91738 3.2796,1.60171 5.5868,2.97459 6.9216,4.11864 2.4407,2.17374 3.661,4.76696 3.661,7.77966 0,3.05085 -1.2013,5.35805 -3.6038,6.92161 -2.0975,1.37288 -4.8242,2.05932 -8.1801,2.05932 -4.0042,0 -7.4174,-0.83898 -10.2395,-2.51695 -1.2584,-0.76271 -1.8875,-2.04025 -1.8875,-3.83263 0,-1.06779 0.2858,-1.98304 0.8579,-2.74576 0.572,-0.80084 1.3539,-1.20126 2.3453,-1.20127 0.6102,10e-6 1.2586,0.17162 1.945,0.51483 3.2034,1.4873 5.625,2.23094 7.2649,2.23093 1.5254,10e-6 2.288,-0.64829 2.2881,-1.94491 -1e-4,-0.80084 -1.2204,-1.69702 -3.661,-2.68856 -3.3941,-1.37287 -5.6822,-2.4788 -6.8644,-3.3178 -2.4407,-1.75422 -3.661,-3.96608 -3.661,-6.63559"
       id="flowRoot2415"
       style="font-size:22px;font-style:normal;font-variant:normal;font-weight:normal;font-stretch:normal;text-align:start;line-height:100%;writing-mode:lr-tb;text-anchor:start;fill:#c8c8c8;fill-opacity:1;stroke:none;overflow:visible;font-family:MgOpen Modata;-inkscape-font-specification:MgOpen Modata" /></g></svg>