<?xml version="1.0" encoding="UTF-8" standalone="no"?>
<!-- Created with Inkscape (http://www.inkscape.org/) -->
<svg
   xmlns:dc="http://purl.org/dc/elements/1.1/"
   xmlns:cc="http://creativecommons.org/ns#"
   xmlns:rdf="http://www.w3.org/1999/02/22-rdf-syntax-ns#"
   xmlns:svg="http://www.w3.org/2000/svg"
   xmlns="http://www.w3.org/2000/svg"
   xmlns:sodipodi="http://sodipodi.sourceforge.net/DTD/sodipodi-0.dtd"
   xmlns:inkscape="http://www.inkscape.org/namespaces/inkscape"
   version="1.0"
   width="1810.2656"
   height="795.81506"
   viewBox="0 0 1875.114 592.293"
   id="LugUSAC_Logo"
   xml:space="preserve"
   style="overflow:visible"
   sodipodi:version="0.32"
   inkscape:version="0.46"
   sodipodi:docname="lugusac-letras.svg"
   inkscape:output_extension="org.inkscape.output.svg.inkscape"><metadata
     id="metadata2653"><rdf:RDF><cc:Work
         rdf:about=""><dc:format>image/svg+xml</dc:format><dc:type
           rdf:resource="http://purl.org/dc/dcmitype/StillImage" /></cc:Work></rdf:RDF></metadata><sodipodi:namedview
     inkscape:window-height="717"
     inkscape:window-width="1214"
     inkscape:pageshadow="2"
     inkscape:pageopacity="0.0"
     guidetolerance="10.0"
     gridtolerance="10.0"
     objecttolerance="10.0"
     borderopacity="1.0"
     bordercolor="#666666"
     pagecolor="#ffffff"
     id="base"
     showgrid="false"
     showguides="true"
     inkscape:guide-bbox="true"
     inkscape:zoom="0.2949154"
     inkscape:cx="865.10559"
     inkscape:cy="206.77057"
     inkscape:window-x="0"
     inkscape:window-y="0"
     inkscape:current-layer="LugUSAC_Logo"><sodipodi:guide
       orientation="1,0"
       position="4.2385037,640.4379"
       id="guide3445" /><sodipodi:guide
       orientation="1,0"
       position="1698.7923,417.06876"
       id="guide3447" /></sodipodi:namedview><defs
     id="defs2397"><inkscape:perspective
       sodipodi:type="inkscape:persp3d"
       inkscape:vp_x="0 : 296.14651 : 1"
       inkscape:vp_y="0 : 1000 : 0"
       inkscape:vp_z="1875.114 : 296.14651 : 1"
       inkscape:persp3d-origin="937.55701 : 197.43101 : 1"
       id="perspective2655" /></defs><g
     id="g3449"
     transform="translate(4.2827169,-129.954)"><path
       style="font-size:22px;font-style:normal;font-variant:normal;font-weight:normal;font-stretch:normal;text-align:start;line-height:100%;writing-mode:lr-tb;text-anchor:start;fill:#000000;fill-opacity:1;stroke:none;stroke-width:1px;stroke-linecap:butt;stroke-linejoin:miter;stroke-opacity:1;font-family:Molengo;-inkscape-font-specification:Molengo"
       id="flowRoot2455"
       d="M 1513.0806,481.84184 C 1513.0806,436.8038 1525.3081,400.73251 1549.7633,373.62783 C 1574.4222,346.52365 1607.7423,332.97144 1649.7237,332.97114 C 1675.1976,332.97144 1694.2523,335.11124 1706.8876,339.39061 C 1719.5226,343.67055 1733.8899,351.72035 1749.9898,363.54007 L 1731.0371,396.55453 C 1719.0131,387.79166 1707.4988,381.57598 1696.4942,377.90746 C 1685.4892,374.03566 1673.4654,372.20152 1660.4228,372.40505 C 1630.6689,372.40531 1606.8252,383.10444 1588.8915,404.50244 C 1571.1615,425.90089 1562.2965,451.68067 1562.2966,481.84184 C 1562.2965,512.0033 1571.1615,537.78307 1588.8915,559.18124 C 1606.8252,580.57954 1630.6689,591.27865 1660.4228,591.27863 C 1673.4654,591.48245 1685.4892,589.75021 1696.4942,586.0819 C 1707.4988,582.20989 1719.0131,575.8923 1731.0371,567.12918 L 1749.9898,600.14361 C 1733.8899,611.96361 1719.5226,620.01341 1706.8876,624.29307 C 1694.2523,628.57272 1675.1976,630.71254 1649.7237,630.71254 C 1607.7423,630.71254 1574.4222,617.16034 1549.7633,590.05587 C 1525.3081,562.95148 1513.0806,526.88017 1513.0806,481.84184 M 1642.9986,332.97114 L 1642.9986,332.97114 M 1730.7314,372.09937 L 1730.7314,372.09937 M 1642.9986,625.21014 L 1642.9986,625.21014 M 1652.1692,625.21014 L 1652.1692,625.21014" /><path
       style="font-size:22px;font-style:normal;font-variant:normal;font-weight:normal;font-stretch:normal;text-align:start;line-height:100%;writing-mode:lr-tb;text-anchor:start;fill:#114c1d;fill-opacity:1;stroke:none;stroke-width:1px;stroke-linecap:butt;stroke-linejoin:miter;stroke-opacity:1;font-family:Molengo;-inkscape-font-specification:Molengo"
       id="flowRoot2437"
       d="M 49.323596,148.95755 L 49.323596,542.29938 C 49.323502,558.86346 52.3804,570.80246 58.49429,578.11639 C 64.81174,585.2153 71.740697,588.76473 79.281161,588.76471 C 82.337918,588.76473 92.833252,587.90428 110.76716,586.18328 L 114.74113,623.93636 C 94.361689,628.45382 77.34499,630.71255 63.691013,630.71255 C 42.904048,630.71255 27.110104,624.04393 16.309158,610.70666 C 5.5080704,597.1543 0.10757386,575.42749 0.10762093,545.52614 L 0.10762093,148.95755 L 49.323596,148.95755 M 55.131709,624.90439 L 55.131709,624.90439 M 24.562779,357.72881 L 24.562779,357.72881 M 24.562779,148.95755 L 24.562779,148.95755" /><path
       style="font-size:22px;font-style:normal;font-variant:normal;font-weight:normal;font-stretch:normal;text-align:start;line-height:100%;writing-mode:lr-tb;text-anchor:start;fill:#114c1d;fill-opacity:1;stroke:none;stroke-width:1px;stroke-linecap:butt;stroke-linejoin:miter;stroke-opacity:1;font-family:Molengo;-inkscape-font-specification:Molengo"
       id="flowRoot2429"
       d="M 191.7373,493.45804 C 191.7372,528.30672 197.851,553.37322 210.07866,568.65761 C 222.30611,583.94213 239.62849,591.58436 262.04585,591.58431 C 274.06946,591.58436 285.07425,588.42555 295.06029,582.10793 C 305.04593,575.58662 312.79005,567.8425 318.29269,558.87555 C 323.79486,549.90875 328.07452,541.55324 331.13165,533.80903 C 334.18829,525.86121 335.71675,519.64553 335.71698,515.16199 L 335.71698,338.47354 L 384.93296,338.47354 L 384.93296,625.21014 L 335.71698,625.21014 L 335.71698,572.63158 C 317.37539,611.35225 287.51978,630.71254 246.15,630.71254 C 238.8133,630.71254 231.06919,629.69359 222.91762,627.65565 C 214.76579,625.82153 205.697,622.15324 195.71127,616.65083 C 185.92911,611.14845 177.16604,604.11761 169.42199,595.55828 C 161.88157,586.999 155.46212,575.38282 150.16355,560.7097 C 145.06869,546.03669 142.52127,529.32568 142.52132,510.57665 L 142.52132,338.47354 L 191.7373,338.47354 L 191.7373,493.45804 M 262.04585,625.21014 L 262.04585,625.21014 M 262.04585,332.97114 L 262.04585,332.97114 M 369.64849,372.09937 L 369.64849,372.09937 M 360.17212,625.21014 L 360.17212,625.21014" /><g
       id="g3315"
       transform="translate(-50.238504,143.53442)"><path
         style="fill:#edbb0a;fill-rule:evenodd"
         id="path2472"
         d="M 1443.9446,470.68012 C 1446.7236,480.59012 1443.0766,497.87912 1438.9446,504.17612 C 1419.7746,507.99812 1391.6436,506.65112 1369.9536,507.17612 C 1363.5926,507.32912 1357.3846,509.95712 1352.9556,505.17612 C 1352.3096,497.76012 1362.9306,497.45912 1369.9536,496.17712 C 1377.5946,494.78112 1386.5196,494.66712 1390.9506,492.17812 C 1392.3136,491.41212 1400.2256,485.42012 1397.4506,482.17812 C 1418.4106,482.80812 1430.5656,477.63212 1443.9446,470.68012 z" /><path
         style="fill:#edbb0a;fill-rule:evenodd"
         id="path2474"
         d="M 1293.3544,126.2612 C 1285.2874,120.6672 1270.0844,118.3092 1257.3594,110.2632 C 1248.2034,104.4732 1233.2034,93.105197 1234.3624,83.266197 C 1235.3554,74.830197 1255.7714,64.644197 1266.3584,63.269197 C 1280.8804,61.382197 1295.7594,67.879197 1304.3534,64.269197 C 1305.6879,74.334746 1313.2999,75.789124 1314.3514,85.267197 C 1315.9544,102.4392 1300.8887,116.45888 1293.3544,126.2612 z" /><path
         style="opacity:1;fill-rule:evenodd"
         id="path2454"
         d="M 1471.0002,449.86144 C 1461.8028,461.20753 1451.8553,468.22535 1443.0363,473.79335 C 1404.1993,498.31435 1351.0732,486.01656 1334.6642,469.47881 C 1320.4717,455.17492 1305.3797,437.8634 1307.5974,402.78518 C 1310.0252,364.15282 1340.8986,339.79166 1398.7756,324.774 C 1426.3498,319.07065 1452.3557,318.94833 1470.8339,319.06402 C 1470.6957,298.13792 1474.6724,253.68596 1456.025,239.64971 C 1437.3007,227.14832 1420.067,226.9745 1400.8851,228.10805 C 1371.5827,229.83967 1345.1328,239.9072 1330.8645,246.84754 C 1325.9715,231.15954 1326.2772,220.6132 1320.2642,208.2502 C 1310.7462,188.6812 1300.0362,177.8542 1293.2672,154.2572 C 1291.1812,146.9842 1287.9402,137.5822 1289.2682,130.2602 C 1291.2052,119.5842 1304.7312,112.8992 1308.2652,103.2632 C 1318.0332,79.895341 1305.5235,81.193011 1301.2672,65.268197 C 1301.1222,61.341161 1307.5282,52.794197 1310.2652,48.270197 C 1321.0422,30.461197 1337.2532,16.327197 1358.2592,7.2751971 C 1420.0502,-19.349803 1490.1162,6.5511971 1517.2392,55.269197 C 1527.6812,74.025197 1531.1442,88.968197 1532.2372,116.2612 C 1533.3172,143.2502 1527.8522,161.6532 1517.2392,180.2532 C 1514.8852,184.3782 1510.2132,190.2362 1506.2402,196.2512 C 1503.0862,201.0272 1495.6937,207.89852 1494.9696,213.46113 C 1494.1349,219.87445 1502.1882,227.2272 1506.2402,234.2472 C 1518.1572,254.8922 1516.6997,278.70297 1518.0327,303.63547 C 1519.3657,328.56797 1518.3792,350.97411 1518.2767,385.72732 C 1518.1742,420.48179 1521.9458,446.9854 1531.0638,461.0659 C 1540.1818,475.1464 1548.3402,467.0962 1548.2352,470.2172 C 1547.8352,482.0812 1518.7872,489.6952 1505.2402,487.2142 C 1487.0582,483.8872 1467.2402,476.32538 1471.0002,449.86144 z M 1345.2612,102.2642 C 1347.0342,110.2462 1357.7222,121.3392 1366.2582,123.2612 C 1385.6242,127.6232 1401.6652,115.1582 1405.2532,103.2632 C 1412.5972,78.923197 1392.6992,62.303197 1374.2572,63.268197 C 1352.0382,64.431197 1340.8152,82.257197 1345.2612,102.2642 z M 1390.3526,365.44313 C 1357.138,376.93856 1349.0908,398.95048 1352.4125,414.616 C 1360.7305,441.906 1376.0327,449.37219 1407.6127,447.68727 C 1450.3317,445.41935 1465.3655,415.7779 1468.6636,393.66769 C 1470.725,379.84834 1471.4331,371.66936 1470.9021,353.71121 C 1430.8305,355.19184 1423.5672,353.9477 1390.3526,365.44313 z" /></g><g
       transform="translate(-4.2385037,143.53442)"
       id="g3320"><path
         style="fill:#edbb0a;fill-rule:evenodd"
         id="path2470"
         d="M 506.43689,468.7955 C 513.39568,469.66967 520.05963,469.84038 527.31525,470.12656 C 520.72783,474.44719 529.27025,480.87022 528.93748,487.17812 C 521.15477,488.30686 519.58811,483.21822 514.29714,481.85521 C 507.50473,481.71811 500.76424,487.22604 495.66494,484.516 C 496.88286,476.86107 504.58804,475.81818 506.43689,468.7955 z" /><path
         style="fill:#114c1d;fill-rule:evenodd"
         id="path2458"
         d="M 468.29,409.616 C 474.43,392.264 499.79705,379.0218 512.18685,367.5338 C 492.98476,358.20852 477.22302,343.18952 464.291,326.626 C 457.37,315.181 453.083,295.888 456.292,277.632 C 458.897,254.765 464.88,236.627 477.29,219.639 C 481.461,213.928 486.986,208.32 487.289,203.641 C 487.672,197.72 482.234,192.058 480.29,185.643 C 470.09647,157.2149 476.27523,118.9079 508.286,108.652 C 509.79947,123.5025 514.30668,180.39649 538.283,177.644 C 570.70199,146.58126 509.97409,106.3668 564.279,84.655 C 604.69528,94.21388 549.9291,139.84542 596.1888,152.4957 C 619.94881,129.00398 596.40282,94.4117 632.272,77.657 C 654.65756,82.492497 641.45977,121.9452 638.271,140.649 C 635.682,152.901 628.109,164.035 631.272,176.645 C 644.625,192.773 659.0608,171.57965 666.268,162.646 C 677.88653,159.97485 703.10767,182.1765 704.264,194.54546 C 678.60955,221.76813 703.77455,194.54546 678.267,221.639 C 686.14,240.494 692.683,254.092 694.265,274.633 C 699.28,339.734 658.185,389.618 590.278,389.618 C 577.436,389.618 562.324,384.849 549.283,387.618 C 538.751,389.854 526.73415,395.41258 526.286,408.616 C 525.64177,427.59616 562.64,420.449 581.279,417.615 C 601.797,414.494 625.548,411.193 646.271,414.615 C 662.183,417.242 686.016,429.768 695.265,441.612 C 706.07,455.447 709.536,479.133 707.263,499.604 C 704.702,522.666 689.841,544.742 672.268,557.597 C 617.769,597.461 502.087,586.372 462.294,543.598 C 467.477,533.446 478.652,520.741 488.291,509.603 C 491.364,506.051 495.801,500.969 498.29,500.604 C 528.08717,517.86104 546.87557,525.1428 580.281,525.601 C 605.95561,527.60795 633.66317,524.68916 648.273,500.604 C 653.127,485.78 646.587,471.675 638.274,466.608 C 626.721,459.567 609.244,460.398 593.28,461.609 C 544.81697,468.2705 455.22346,492.0888 468.29,409.616 z M 523.283,263.634 C 515.95862,315.70404 544.35848,350.23364 596.274,337.625 C 622.072,329.208 635.341,293.604 628.27,264.634 C 608.76556,208.42143 536.32895,211.65547 523.283,263.634 z" /><path
         style="fill:#edbb0a;fill-rule:evenodd"
         id="path2468"
         d="M 456.292,277.632 C 453.083,295.887 457.37,315.18 464.291,326.626 C 453.045,321.564 419.26,322.523 416.297,308.629 C 412.146,289.167 442.572,285.384 456.292,277.632 z" /><path
         style="fill:#aa0000;fill-opacity:1;fill-rule:evenodd;stroke:none;stroke-width:0.93353057px;stroke-linecap:butt;stroke-linejoin:miter;stroke-opacity:1"
         id="path2497"
         d="M 501.98122,468.02974 C 496.47832,441.87755 489.71356,416.13334 483.40625,390.12255 C 442.76732,420.31776 470.07416,464.52617 501.98122,468.02974 z" /></g><path
       style="font-size:22px;font-style:normal;font-variant:normal;font-weight:normal;font-stretch:normal;text-align:start;line-height:100%;writing-mode:lr-tb;text-anchor:start;fill:#000000;fill-opacity:1;stroke:none;stroke-width:1px;stroke-linecap:butt;stroke-linejoin:miter;stroke-opacity:1;font-family:Molengo;-inkscape-font-specification:Molengo"
       id="flowRoot2419"
       d="M 792.2542,493.45804 C 792.2541,528.30672 798.3679,553.37322 810.59556,568.65761 C 822.82301,583.94213 840.14539,591.58436 862.56275,591.58431 C 874.58636,591.58436 885.59115,588.42555 895.57719,582.10793 C 905.56283,575.58662 913.30695,567.8425 918.80959,558.87555 C 924.31176,549.90875 928.59142,541.55324 931.64855,533.80903 C 934.70519,525.86121 936.23365,519.64553 936.23388,515.16199 L 936.23388,338.47354 L 985.44986,338.47354 L 985.44986,625.21014 L 936.23388,625.21014 L 936.23388,572.63158 C 917.89229,611.35225 888.03668,630.71254 846.6669,630.71254 C 839.3302,630.71254 831.58609,629.69359 823.43452,627.65565 C 815.28269,625.82153 806.2139,622.15324 796.22817,616.65083 C 786.44601,611.14845 777.68294,604.11761 769.93889,595.55828 C 762.39847,586.999 755.97902,575.38282 750.68045,560.7097 C 745.58559,546.03669 743.03817,529.32568 743.03822,510.57665 L 743.03822,338.47354 L 792.2542,338.47354 L 792.2542,493.45804 M 862.56275,625.21014 L 862.56275,625.21014 M 862.56275,332.97114 L 862.56275,332.97114 M 970.16539,372.09937 L 970.16539,372.09937 M 960.68902,625.21014 L 960.68902,625.21014" /><path
       style="font-size:22px;font-style:normal;font-variant:normal;font-weight:normal;font-stretch:normal;text-align:start;line-height:100%;writing-mode:lr-tb;text-anchor:start;fill:#000000;fill-opacity:1;stroke:none;stroke-width:1px;stroke-linecap:butt;stroke-linejoin:miter;stroke-opacity:1;font-family:Molengo;-inkscape-font-specification:Molengo"
       id="flowRoot2445"
       d="M 1126.6937,332.97114 C 1145.0349,332.97144 1161.3383,335.41695 1175.604,340.30769 C 1189.8693,344.99519 1200.8741,350.39571 1208.6184,356.50922 L 1191.1941,393.19195 C 1184.8764,388.09735 1175.9095,383.30821 1164.2935,378.82453 C 1152.6771,374.34134 1141.1628,372.09963 1129.7506,372.09937 C 1114.466,372.09963 1102.5441,376.07357 1093.9849,384.02125 C 1085.4255,391.96941 1081.1459,400.52871 1081.1459,409.69917 C 1081.1459,420.0928 1084.4066,428.5502 1090.928,435.07137 C 1097.4493,441.59293 1110.5939,448.31809 1130.3619,455.24688 L 1160.3195,465.6403 C 1182.1252,473.18079 1198.2248,483.16665 1208.6184,495.59787 C 1219.2154,507.82555 1224.514,524.12898 1224.5142,544.50816 C 1224.514,571.00128 1215.5472,591.99193 1197.6136,607.48016 C 1179.6796,622.96843 1155.2245,630.71254 1124.2482,630.71254 C 1107.7408,630.71254 1091.845,628.98031 1076.5606,625.51582 C 1061.4799,622.25515 1044.5651,615.22431 1025.8162,604.42327 L 1043.5462,566.51779 C 1059.2382,575.8923 1072.5866,582.41366 1083.5915,586.0819 C 1094.5962,589.54642 1107.537,591.27865 1122.414,591.27863 C 1157.67,591.27865 1175.2981,576.0961 1175.2983,545.73092 C 1175.2981,527.38965 1158.4852,512.71657 1124.8595,501.71164 L 1094.902,491.31822 C 1073.5037,483.77801 1057.6078,473.0789 1047.2144,459.22083 C 1037.0248,445.1593 1031.9299,429.67107 1031.93,412.75607 C 1031.9299,391.56184 1040.7949,373.0167 1058.525,357.12059 C 1076.2549,341.02124 1098.9777,332.97144 1126.6937,332.97114 M 1127.9164,625.21014 L 1127.9164,625.21014 M 1127.9164,332.97114 L 1127.9164,332.97114 M 1188.1372,372.09937 L 1188.1372,372.09937" /></g><flowRoot
     transform="matrix(2.353578,0,0,2.353578,-1385.786,-274.16491)"
     id="flowRoot3269"
     xml:space="preserve"
     style="font-size:22px;font-style:normal;font-variant:normal;font-weight:normal;font-stretch:normal;text-align:start;line-height:100%;writing-mode:lr-tb;text-anchor:start;fill:#114c1d;fill-opacity:1;stroke:none;stroke-width:1px;stroke-linecap:butt;stroke-linejoin:miter;stroke-opacity:1;font-family:Molengo;-inkscape-font-specification:Molengo"><flowRegion
       id="flowRegion3271"><rect
         width="325.51709"
         height="376.37912"
         x="757.84442"
         y="170.13805"
         id="rect3273"
         style="fill:#114c1d" /></flowRegion><flowPara
       id="flowPara3275"
       style="font-size:266px;fill:#114c1d" /></flowRoot><flowRoot
     transform="matrix(2.353578,0,0,2.353578,-1375.2561,-274.16491)"
     id="flowRoot3277"
     xml:space="preserve"
     style="font-size:22px;font-style:normal;font-variant:normal;font-weight:normal;font-stretch:normal;text-align:start;line-height:100%;writing-mode:lr-tb;text-anchor:start;fill:#114c1d;fill-opacity:1;stroke:none;stroke-width:1px;stroke-linecap:butt;stroke-linejoin:miter;stroke-opacity:1;font-family:Molengo;-inkscape-font-specification:Molengo"><flowRegion
       id="flowRegion3279"><rect
         width="325.51709"
         height="376.37912"
         x="757.84442"
         y="170.13805"
         id="rect3281"
         style="fill:#114c1d" /></flowRegion><flowPara
       id="flowPara3283"
       style="font-size:266px;fill:#114c1d" /></flowRoot><flowRoot
     xml:space="preserve"
     id="flowRoot2657"
     style="font-size:72px;font-style:normal;font-variant:normal;font-weight:normal;font-stretch:normal;text-align:start;line-height:100%;writing-mode:lr-tb;text-anchor:start;fill:#000000;fill-opacity:1;stroke:none;stroke-width:1px;stroke-linecap:butt;stroke-linejoin:miter;stroke-opacity:1;font-family:MgOpen Modata;-inkscape-font-specification:MgOpen Modata"
     transform="matrix(0.969613,0,0,0.969613,-2.1848503,76.2107)"><flowRegion
       id="flowRegion2659"><rect
         id="rect2661"
         width="1909.0221"
         height="84.770065"
         x="6.7816057"
         y="-160.46523"
         style="font-size:72px;font-style:normal;font-variant:normal;font-weight:normal;font-stretch:normal;text-align:start;line-height:100%;writing-mode:lr-tb;text-anchor:start;font-family:MgOpen Modata;-inkscape-font-specification:MgOpen Modata" /></flowRegion><flowPara
       id="flowPara2663">Grupo de Usuarios de Linux de la Universidad de San Carlos </flowPara></flowRoot><flowRoot
     xml:space="preserve"
     id="flowRoot3435"
     style="font-size:72px;font-style:normal;font-variant:normal;font-weight:normal;font-stretch:normal;text-align:start;line-height:100%;writing-mode:lr-tb;text-anchor:start;fill:#000000;fill-opacity:1;stroke:none;stroke-width:1px;stroke-linecap:butt;stroke-linejoin:miter;stroke-opacity:1;overflow:visible;font-family:MgOpen Modata;-inkscape-font-specification:MgOpen Modata"
     transform="translate(1055.59,707.3383)"><flowRegion
       id="flowRegion3437"><rect
         id="rect3439"
         width="1909.0221"
         height="84.770065"
         x="6.7816057"
         y="-160.46523"
         style="font-size:72px;font-style:normal;font-variant:normal;font-weight:normal;font-stretch:normal;text-align:start;line-height:100%;writing-mode:lr-tb;text-anchor:start;font-family:MgOpen Modata;-inkscape-font-specification:MgOpen Modata" /></flowRegion><flowPara
       id="flowPara3441">Nacidos para ser Libres</flowPara></flowRoot></svg>