<?xml version="1.0" encoding="UTF-8" standalone="no"?>
<svg
   xmlns:svg="http://www.w3.org/2000/svg"
   xmlns="http://www.w3.org/2000/svg"
   version="1.1"
   id="LugUSAC_Logo"
   width="1875.114"
   height="592.293"
   viewBox="0 0 1875.114 592.293"
   overflow="visible"
   enable-background="new 0 0 1875.114 592.293"
   xml:space="preserve">
<path
   clip-rule="evenodd"
   d="M1515.159,459.61c-10.469,3.081-16.178,12.43-24.997,17.998  c-38.837,24.521-112.032,11.952-136.982-19.997c-20.601-26.379-20.323-82.843-1-110.986c18.918-27.553,57.097-46.268,100.987-48.994  c16.766-1.041,34.016,2.276,51.993-2c3.694-6.881,1.743-16.904,0-21.997c-3.627-10.596-15.319-22.711-27.996-26.997  c-13.929-4.709-34.597-3.733-51.993-3c-17.021,0.717-32.525,5.805-44.995,8.999c-4.893-15.688-6.985-28.632-12.998-40.995  c-9.518-19.569-20.228-30.396-26.997-53.993c-2.086-7.273-5.327-16.675-3.999-23.997c1.937-10.676,15.463-17.361,18.997-26.997  c1.689-4.603,4.127-13.918,3-20.997c-0.995-6.254-9.735-9.85-9.998-16.998c-0.146-3.927,6.261-12.474,8.998-16.998  c10.777-17.809,26.988-31.943,47.994-40.995c61.791-26.625,131.857-0.724,158.98,47.994c10.442,18.756,13.905,33.699,14.998,60.992  c1.08,26.989-4.385,45.392-14.998,63.992c-2.354,4.125-7.026,9.983-10.999,15.998c-3.154,4.776-9.75,11.394-9.999,16.998  c-0.199,4.506,5.947,13.978,9.999,20.998c11.917,20.645,17.271,40.691,18.998,72.991c0.939,17.565,2.048,38.551,2.999,58.992  c1.811,38.893-2.486,70.076,12.999,93.988c2.751,4.249,7.104,6.878,6.999,9.999c-0.4,11.864-29.448,19.478-42.995,16.997  C1533.972,487.278,1525.386,468.908,1515.159,459.61z M1392.175,105.655c1.773,7.982,12.461,19.075,20.997,20.997  c19.366,4.362,35.407-8.103,38.995-19.998c7.344-24.34-12.554-40.96-30.996-39.995  C1398.952,67.822,1387.729,85.648,1392.175,105.655z M1407.173,368.622c-7.045,9.514-12.228,28.845-6.999,45.994  c8.318,27.29,61.513,32.736,86.989,13.998c14.321-10.533,20.104-27.656,20.997-49.993c0.366-9.157,1.286-20.091-2-29.996  C1470.115,340.569,1423.608,346.428,1407.173,368.622z"
   id="path2454"
   fill-rule="evenodd" />
<path
   clip-rule="evenodd"
   d="M92.337,459.61c-13.042,17.796-43.026,26.384-65.991,16.998  c-10.134-4.141-21.102-15.563-23.997-25.996c-3.229-11.636-1.833-29.088-2-44.995c-1.1-105.069,0.829-223.066,0-324.959  C16.875,74.197,37.93,70.009,56.342,65.66c6.168-1.457,7.262-3.555,8.999,5.999c4.515,24.835,1,55.476,1,80.99  c0,78.497,2,152.734,2,230.971c0,16.742-1.356,32.694,2,43.995C74.527,441.715,88.276,449.817,92.337,459.61z"
   id="path2456"
   fill-rule="evenodd"
   fill="#114C1D" />
<path
   clip-rule="evenodd"
   d="M 524.283,479.608 C 518.832,479.393 512.262,480.296 508.285,478.608 C 482.07,475.932 459.133,451.144 470.29,419.616 C 476.43,402.264 496.287,394.108 505.286,382.62 C 503.039,373.205 493.176,369.686 487.288,363.623 C 479.306,355.402 473.697,345.583 466.291,336.626 C 459.37,325.181 455.083,305.888 458.292,287.632 C 460.897,264.765 466.88,246.627 479.29,229.639 C 483.461,223.928 488.986,218.32 489.289,213.641 C 489.672,207.72 484.234,202.058 482.29,195.643 C 472.09647,167.2149 478.27523,128.9079 510.286,118.652 C 511.79947,133.5025 516.30668,190.39649 540.283,187.644 C 567.30031,170.48095 541.94058,143.02466 534.283,125.651 C 539.134,119.406 554.691,95.113 566.279,94.655 C 573.974,94.351 577.889,100.917 583.277,106.654 C 583.28781,123.1385 575.48261,163.34055 603.275,161.648 C 608.105,160.255 610.546,150.156 611.274,143.65 C 612.433,133.292 608.297,120.431 610.274,111.654 C 614.5517,102.98978 624.45502,90.445834 634.272,87.657 C 656.65756,92.492497 643.45977,131.9452 640.271,150.649 C 637.682,162.901 630.109,174.035 633.272,186.645 C 646.625,202.773 657.67,177.765 668.268,172.646 C 681.58193,171.67025 705.10767,194.27304 706.264,206.642 C 692.63037,219.36899 690.92531,221.21034 680.267,231.639 C 688.14,250.494 694.683,264.092 696.265,284.633 C 701.28,349.734 660.185,399.618 592.278,399.618 C 579.436,399.618 564.324,394.849 551.283,397.618 C 540.751,399.854 534.022,409.364 528.286,418.616 C 539.021,437.45 564.64,430.449 583.279,427.615 C 603.797,424.494 627.548,421.193 648.271,424.615 C 664.183,427.242 688.016,439.768 697.265,451.612 C 708.07,465.447 711.536,489.133 709.263,509.604 C 706.702,532.666 691.841,554.742 674.268,567.597 C 619.769,607.461 504.087,596.372 464.294,553.598 C 469.477,543.446 480.652,530.741 490.291,519.603 C 493.364,516.051 497.801,510.969 500.29,510.604 C 505.725,509.806 521.515,521.019 527.287,523.602 C 536.437,527.697 548.469,533.506 555.284,534.601 C 563.333,535.893 573.449,535.355 582.281,535.601 C 592.242,535.878 602.871,536.614 610.278,535.601 C 622.804,533.887 645.754,524.407 650.273,510.604 C 655.127,495.78 648.587,481.675 640.274,476.608 C 628.721,469.567 611.244,470.398 595.28,471.609 C 571.671,473.4 549.261,481.959 524.283,479.608 z M 549.28,242.637 C 540.797,247.683 528.296,262.779 525.283,273.634 C 515.582,308.587 537.339,338.373 556.279,346.625 C 568.451,351.929 586.659,351.414 598.274,347.625 C 624.072,339.208 637.341,303.604 630.27,274.634 C 627.925,265.027 619.636,252.312 611.272,245.638 C 601.619,237.934 585.232,234.535 570.277,236.639 C 561.218,237.913 555.018,239.224 549.28,242.637 z"
   id="path2458"
   fill-rule="evenodd"
   fill="#114C1D" />
<path
   clip-rule="evenodd"
   d="M218.321,189.644c1.066,27.127,2,61.763,2,96.988  c0,34.716-1.54,70.729,1,97.988c2.625,28.17,21.726,48.247,52.993,47.994c30.32-0.245,53.67-20.978,67.992-39.995  c2.332-65.992-0.13-136.78,2-202.975c17.37-1.661,41.623-1.661,58.993,0c1.076,94.132,1.875,191.994,0,285.964  c-17.586,1.687-41.387,1.564-58.993,0c-2.171-5.827,0.453-16.451-4-19.997c-10.503-0.021-17.095,9.173-27.997,13.998  c-31.431,13.912-82.658,14.924-110.986,1c-10.407-5.115-22.231-14.6-27.997-22.997c-6.979-10.165-14.143-27.852-15.998-41.995  c-2.106-16.053-1-35.285-1-53.993c0-51.452-3.214-112.111,1-161.979C177.338,187.743,198.388,187.686,218.321,189.644z"
   id="path2460"
   fill-rule="evenodd"
   fill="#114C1D" />
<path
   clip-rule="evenodd"
   d="M1100.211,465.61c4.861-16.47,12.166-30.496,18.998-44.995  c21.288,11.714,58.612,27.909,89.988,16.998c16.117-5.604,25.671-26.015,15.998-45.994c-8.572-17.706-38.47-30.42-60.992-40.995  c-22.695-10.656-45.87-24.103-57.993-43.994c-8.98-14.735-14.416-43.987-4.999-66.992c10.532-25.731,42.679-44.424,77.99-46.994  c11.043-0.804,22.563-0.648,32.996,0c22.547,1.401,44.861,7.466,61.992,18.998c-3.071,16.594-9.349,29.98-14.998,43.995  c-17.162-8.947-56.943-22.562-81.99-10.999c-10.254,4.734-19.325,15.077-14.998,34.996c3.027,13.934,25.757,24.354,42.995,31.996  c27.178,12.049,52.974,20.82,69.991,40.995c12.66,15.009,20.092,34.023,16.998,65.992c-5.415,55.946-65.148,74.405-130.984,69.991  C1137.214,486.999,1114.515,476.642,1100.211,465.61z"
   id="path2462"
   fill-rule="evenodd" />
<path
   clip-rule="evenodd"
   d="M1853.117,420.615c6.843,4.08,8.64,12.834,11.998,19.998  c3.345,7.133,7.661,14.478,9.999,21.997c-4.763,7.576-14.547,10.211-22.997,13.998c-23.86,10.694-59.45,14.923-97.987,11.999  c-36.34-2.757-67.949-21.118-85.99-41.995c-24.74-28.629-34.032-68.16-30.996-122.984c1.914-34.551,17.269-65.783,36.996-85.989  c33.17-33.977,79.316-45.861,136.982-41.995c24.072,1.614,42.627,9.739,60.992,23.997c-5.232,16.432-14.053,29.274-22.997,41.995  c-7.304-1.477-12.272-7.633-19.997-10.999c-22.587-9.841-58.513-9.837-78.99-1c-23.23,10.025-41.955,33.202-47.994,60.993  c-8.659,39.854-1.492,90.28,26.997,112.985c16.776,13.371,45.154,19.952,73.99,16.998  C1823.904,438.484,1835.185,428.949,1853.117,420.615z"
   id="path2464"
   fill-rule="evenodd" />
<path
   clip-rule="evenodd"
   d="M978.227,198.643c18.664,0,37.328,0,55.993,0  c2.332,93.322,0.334,190.977,1,285.964c-17.068,1.69-40.915,1.62-57.993,0c-2.04-5.959-0.496-15.502-3.999-19.997  c-12,0.779-21.104,9.604-31.996,13.998c-29.516,11.906-81.776,16.464-111.986-1c-16.842-9.735-30.274-29.791-35.996-51.993  c-7.747-30.065-3.276-71.104-5-111.986c-1.696-40.256,0.5-81.477,1-114.985c19.435,1.896,42.017,0.644,62.992,1  c-0.247,49.775,2,105.072,2,156.98c0,18.287-1.768,36.636,2,50.993c3.415,13.012,14.328,24.304,24.997,28.996  c34.946,15.371,81.293-9.975,93.988-36.995C976.479,332.879,974.45,262.859,978.227,198.643z"
   id="path2466"
   fill-rule="evenodd" />
<path
   clip-rule="evenodd"
   d="M458.292,287.632c-3.209,18.255,1.078,37.548,7.999,48.994  c-11.246-5.062-45.031-4.103-47.994-17.997C414.146,299.167,444.572,295.384,458.292,287.632z"
   id="path2468"
   fill-rule="evenodd"
   fill="#EDBB0A" />
<path
   clip-rule="evenodd"
   d="M508.285,478.608c3.978,1.688,10.547,0.785,15.998,1  c-4.949,3.246,1.25,8.259,1,12.998c-5.847,0.848-7.024-2.975-10.999-3.999c-5.103-0.103-10.167,4.035-13.998,1.999  C501.201,484.855,506.896,483.884,508.285,478.608z"
   id="path2470"
   fill-rule="evenodd"
   fill="#EDBB0A" />
<path
   clip-rule="evenodd"
   d="M1488.163,480.608c2.779,9.91,0.132,22.699-4,28.996  c-19.17,3.822-47.301,2.475-68.991,3c-6.361,0.153-12.569,2.781-16.998-2c-0.646-7.416,9.975-7.717,16.998-8.999  c7.641-1.396,16.566-1.51,20.997-3.999c1.363-0.766,5.775-1.758,3-5C1460.129,493.236,1474.784,487.56,1488.163,480.608z"
   id="path2472"
   fill-rule="evenodd"
   fill="#EDBB0A" />
<path
   clip-rule="evenodd"
   d="M 1335.182,129.652 C 1327.115,124.058 1311.912,121.7 1299.187,113.654 C 1290.031,107.864 1275.031,96.496 1276.19,86.657 C 1277.183,78.221 1297.599,68.035 1308.186,66.66 C 1322.708,64.773 1337.587,71.27 1346.181,67.66 C 1347.5155,77.725549 1355.1275,79.179927 1356.179,88.658 C 1357.782,105.83 1342.7163,119.84968 1335.182,129.652 z"
   id="path2474"
   fill-rule="evenodd"
   fill="#EDBB0A" />
<path
   style="fill:#aa0000;fill-opacity:1;fill-rule:evenodd;stroke:none;stroke-width:0.93353056999999995px;stroke-linecap:butt;stroke-linejoin:miter;stroke-opacity:1"
   d="M 503.98122,478.02974 C 498.47832,451.87755 491.71356,425.86843 485.40625,399.85764 C 444.76732,430.05285 472.07416,474.52617 503.98122,478.02974 z"
   id="path2497" /></svg>