<?xml version="1.0" encoding="UTF-8" standalone="no"?>
<!-- Created with Inkscape (http://www.inkscape.org/) -->

<svg
   xmlns:dc="http://purl.org/dc/elements/1.1/"
   xmlns:cc="http://creativecommons.org/ns#"
   xmlns:rdf="http://www.w3.org/1999/02/22-rdf-syntax-ns#"
   xmlns:svg="http://www.w3.org/2000/svg"
   xmlns="http://www.w3.org/2000/svg"
   version="1.2"
   width="1747.6641"
   height="768.29755"
   viewBox="0 0 1810.27 571.81282"
   id="LugUSAC_Logo"
   xml:space="preserve"
   style="overflow:visible"><metadata
     id="metadata3014"><rdf:RDF><cc:Work
         rdf:about=""><dc:format>image/svg+xml</dc:format><dc:type
           rdf:resource="http://purl.org/dc/dcmitype/StillImage" /><dc:title></dc:title></cc:Work></rdf:RDF></metadata><defs
     id="defs2397" /><flowRoot
     transform="matrix(2.353578,0,0,2.353578,-1382.4223,-271.03499)"
     id="flowRoot3269"
     xml:space="preserve"
     style="font-size:22px;font-style:normal;font-variant:normal;font-weight:normal;font-stretch:normal;text-align:start;line-height:100%;writing-mode:lr-tb;text-anchor:start;fill:#114c1d;fill-opacity:1;stroke:none;font-family:Molengo;-inkscape-font-specification:Molengo"><flowRegion
       id="flowRegion3271"><rect
         width="325.51709"
         height="376.37912"
         x="757.84442"
         y="170.13805"
         id="rect3273"
         style="fill:#114c1d" /></flowRegion><flowPara
       id="flowPara3275"
       style="font-size:266px;fill:#114c1d" /></flowRoot><flowRoot
     transform="matrix(2.353578,0,0,2.353578,-1371.8924,-271.03499)"
     id="flowRoot3277"
     xml:space="preserve"
     style="font-size:22px;font-style:normal;font-variant:normal;font-weight:normal;font-stretch:normal;text-align:start;line-height:100%;writing-mode:lr-tb;text-anchor:start;fill:#114c1d;fill-opacity:1;stroke:none;font-family:Molengo;-inkscape-font-specification:Molengo"><flowRegion
       id="flowRegion3279"><rect
         width="325.51709"
         height="376.37912"
         x="757.84442"
         y="170.13805"
         id="rect3281"
         style="fill:#114c1d" /></flowRegion><flowPara
       id="flowPara3283"
       style="font-size:266px;fill:#114c1d" /></flowRoot><g
     transform="translate(3.3637025,3.1299202)"
     id="layer1"
     style="display:inline"><rect
       width="1810.27"
       height="795.82001"
       x="-3.3637025"
       y="-115.13351"
       id="rect3868"
       style="fill:#118b28;fill-opacity:1" /></g><g
     transform="translate(3.3637025,3.1299202)"
     id="layer2"
     style="display:inline"><path
       d="m 1560.6803,359.91121 c 0,-45.03804 12.2275,-81.10933 36.6827,-108.21401 24.6589,-27.10418 57.979,-40.65639 99.9604,-40.65669 25.4739,3e-4 44.5286,2.1401 57.1639,6.41947 12.635,4.27994 27.0023,12.32974 43.1022,24.14946 l -18.9527,33.01446 c -12.024,-8.76287 -23.5383,-14.97855 -34.5429,-18.64707 -11.005,-3.8718 -23.0288,-5.70594 -36.0714,-5.50241 -29.7539,2.6e-4 -53.5976,10.69939 -71.5313,32.09739 -17.73,21.39845 -26.595,47.17823 -26.5949,77.3394 -1e-4,30.16146 8.8649,55.94123 26.5949,77.3394 17.9337,21.3983 41.7774,32.09741 71.5313,32.09739 13.0426,0.20382 25.0664,-1.52842 36.0714,-5.19673 11.0046,-3.87201 22.5189,-10.1896 34.5429,-18.95272 l 18.9527,33.01443 c -16.0999,11.82 -30.4672,19.8698 -43.1022,24.14946 -12.6353,4.27965 -31.69,6.41947 -57.1639,6.41947 -41.9814,0 -75.3015,-13.5522 -99.9604,-40.65667 -24.4552,-27.10439 -36.6827,-63.1757 -36.6827,-108.21403 m 129.918,-148.8707 0,0 m 87.7328,39.12823 0,0 m -87.7328,253.11077 0,0 m 9.1706,0 0,0"
       id="flowRoot2455"
       style="font-size:22px;font-style:normal;font-variant:normal;font-weight:normal;font-stretch:normal;text-align:start;line-height:100%;writing-mode:lr-tb;text-anchor:start;fill:#000000;fill-opacity:1;stroke:none;font-family:Molengo;-inkscape-font-specification:Molengo" /><path
       d="m 96.923311,27.02692 0,393.34183 c -9.4e-5,16.56408 3.056804,28.50308 9.170699,35.81701 6.31745,7.09891 13.2464,10.64834 20.78687,10.64832 3.05675,2e-5 13.55209,-0.86043 31.48599,-2.58143 l 3.97397,37.75308 c -20.37944,4.51746 -37.39614,6.77619 -51.05011,6.77619 -20.786967,0 -36.580911,-6.66862 -47.381857,-20.00589 C 53.107785,475.22367 47.707289,453.49686 47.707336,423.59551 l 0,-396.56859 49.215975,0 m 5.808109,475.94684 0,0 m -30.568926,-267.17558 0,0 m 0,-208.77126 0,0"
       id="flowRoot2437"
       style="font-size:22px;font-style:normal;font-variant:normal;font-weight:normal;font-stretch:normal;text-align:start;line-height:100%;writing-mode:lr-tb;text-anchor:start;fill:#000000;fill-opacity:1;stroke:none;font-family:Molengo;-inkscape-font-specification:Molengo" /><path
       d="m 239.33701,371.52741 c -1e-4,34.84868 6.1137,59.91518 18.34137,75.19957 12.22745,15.28452 29.54982,22.92675 51.96719,22.9267 12.02361,5e-5 23.02839,-3.15876 33.01443,-9.47638 9.98564,-6.52131 17.72976,-14.26543 23.2324,-23.23238 5.50217,-8.9668 9.78183,-17.32231 12.83896,-25.06652 3.05664,-7.94782 4.5851,-14.1635 4.58533,-18.64704 l 0,-176.68845 49.21598,0 0,286.7366 -49.21598,0 0,-52.57856 c -18.34159,38.72067 -48.1972,58.08096 -89.56698,58.08096 -7.3367,0 -15.08081,-1.01895 -23.23238,-3.05689 -8.15183,-1.83412 -17.22062,-5.50241 -27.20635,-11.00482 -9.78216,-5.50238 -18.54523,-12.53322 -26.28928,-21.09255 -7.54042,-8.55928 -13.95987,-20.17546 -19.25844,-34.84858 -5.09486,-14.67301 -7.64228,-31.38402 -7.64223,-50.13305 l 0,-172.10311 49.21598,0 0,154.9845 m 70.30855,131.7521 0,0 m 0,-292.239 0,0 m 107.60264,39.12823 0,0 m -9.47637,253.11077 0,0"
       id="flowRoot2429"
       style="font-size:22px;font-style:normal;font-variant:normal;font-weight:normal;font-stretch:normal;text-align:start;line-height:100%;writing-mode:lr-tb;text-anchor:start;fill:#000000;fill-opacity:1;stroke:none;font-family:Molengo;-inkscape-font-specification:Molengo" /><g
       transform="translate(-2.638789,21.60379)"
       id="g3315"><path
         d="m 1443.9446,470.68012 c 2.779,9.91 -0.868,27.199 -5,33.496 -19.17,3.822 -47.301,2.475 -68.991,3 -6.361,0.153 -12.569,2.781 -16.998,-2 -0.646,-7.416 9.975,-7.717 16.998,-8.999 7.641,-1.396 16.566,-1.51 20.997,-3.999 1.363,-0.766 9.275,-6.758 6.5,-10 20.96,0.63 33.115,-4.546 46.494,-11.498 z"
         id="path2472"
         style="fill:#b3b3b3;fill-rule:evenodd" /><path
         d="m 1293.3544,126.2612 c -8.067,-5.594 -23.27,-7.952 -35.995,-15.998 -9.156,-5.79 -24.156,-17.158003 -22.997,-26.997003 0.993,-8.436 21.409,-18.622 31.996,-19.997 14.522,-1.887 29.401,4.61 37.995,1 1.3345,10.065549 8.9465,11.519927 9.998,20.998 1.603,17.172003 -13.4627,31.191683 -20.997,40.994003 z"
         id="path2474"
         style="fill:#cccccc;fill-rule:evenodd" /><path
         d="m 1471.0002,449.86144 c -9.1974,11.34609 -19.1449,18.36391 -27.9639,23.93191 -38.837,24.521 -91.9631,12.22321 -108.3721,-4.31454 -14.1925,-14.30389 -29.2845,-31.61541 -27.0668,-66.69363 2.4278,-38.63236 33.3012,-62.99352 91.1782,-78.01118 27.5742,-5.70335 53.5801,-5.82567 72.0583,-5.70998 -0.1382,-20.9261 3.8385,-65.37806 -14.8089,-79.41431 -18.7243,-12.50139 -35.958,-12.67521 -55.1399,-11.54166 -29.3024,1.73162 -55.7523,11.79915 -70.0206,18.73949 -4.893,-15.688 -4.5873,-26.23434 -10.6003,-38.59734 -9.518,-19.569 -20.228,-30.396 -26.997,-53.993 -2.086,-7.273 -5.327,-16.675 -3.999,-23.997 1.937,-10.676 15.463,-17.361 18.997,-26.997 9.768,-23.367859 -2.7417,-22.070189 -6.998,-37.995003 -0.145,-3.927036 6.261,-12.474 8.998,-16.998 10.777,-17.809 26.988,-31.943 47.994,-40.9949999 61.791,-26.6250001 131.857,-0.724 158.98,47.9939999 10.442,18.756 13.905,33.699 14.998,60.992003 1.08,26.989 -4.385,45.392 -14.998,63.992 -2.354,4.125 -7.026,9.983 -10.999,15.998 -3.154,4.776 -10.5465,11.64732 -11.2706,17.20993 -0.8347,6.41332 7.2186,13.76607 11.2706,20.78607 11.917,20.645 10.4595,44.45577 11.7925,69.38827 1.333,24.9325 0.3465,47.33864 0.244,82.09185 -0.1025,34.75447 3.6691,61.25808 12.7871,75.33858 9.118,14.0805 17.2764,6.0303 17.1714,9.1513 -0.4,11.864 -29.448,19.478 -42.995,16.997 -18.182,-3.327 -38,-10.88882 -34.24,-37.35276 z M 1345.2612,102.2642 c 1.773,7.982 12.461,19.075 20.997,20.997 19.366,4.362 35.407,-8.103 38.995,-19.998 7.344,-24.340003 -12.554,-40.960003 -30.996,-39.995003 -22.219,1.163 -33.442,18.989 -28.996,38.996003 z m 45.0914,263.17893 c -33.2146,11.49543 -41.2618,33.50735 -37.9401,49.17287 8.318,27.29 23.6202,34.75619 55.2002,33.07127 42.719,-2.26792 57.7528,-31.90937 61.0509,-54.01958 2.0614,-13.81935 2.7695,-21.99833 2.2385,-39.95648 -40.0716,1.48063 -47.3349,0.23649 -80.5495,11.73192 z"
         id="path2454"
         style="fill:#000000;fill-opacity:1;fill-rule:evenodd" /></g><g
       transform="translate(43.361211,21.60379)"
       id="g3320"><path
         d="m 506.43689,468.7955 c 6.95879,0.87417 13.62274,1.04488 20.87836,1.33106 -6.58742,4.32063 1.955,10.74366 1.62223,17.05156 -7.78271,1.12874 -9.34937,-3.9599 -14.64034,-5.32291 -6.79241,-0.1371 -13.5329,5.37083 -18.6322,2.66079 1.21792,-7.65493 8.9231,-8.69782 10.77195,-15.7205 z"
         id="path2470"
         style="fill:#4d4d4d;fill-rule:evenodd" /><path
         d="m 468.29,409.616 c 6.14,-17.352 31.50705,-30.5942 43.89685,-42.0822 -19.20209,-9.32528 -34.96383,-24.34428 -47.89585,-40.9078 -6.921,-11.445 -11.208,-30.738 -7.999,-48.994 2.605,-22.867 8.588,-41.005 20.998,-57.993 4.171,-5.711 9.696,-11.319 9.999,-15.998 0.383,-5.921 -5.055,-11.583 -6.999,-17.998 -10.19353,-28.4281 -4.01477,-66.7351 27.996,-76.991 1.51347,14.8505 6.02068,71.74449 29.997,68.992 32.41899,-31.06274 -28.30891,-71.2772 25.996,-92.989 40.41628,9.55888 -14.3499,55.19042 31.9098,67.8407 23.76001,-23.49172 0.21402,-58.084 36.0832,-74.8387 22.38556,4.835497 9.18777,44.2882 5.999,62.992 -2.589,12.252 -10.162,23.386 -6.999,35.996 13.353,16.128 27.7888,-5.06535 34.996,-13.999 11.61853,-2.67115 36.83967,19.5305 37.996,31.89946 -25.65445,27.22267 -0.48945,0 -25.997,27.09354 7.873,18.855 14.416,32.453 15.998,52.994 5.015,65.101 -36.08,114.985 -103.987,114.985 -12.842,0 -27.954,-4.769 -40.995,-2 -10.532,2.236 -22.54885,7.79458 -22.997,20.998 -0.64423,18.98016 36.354,11.833 54.993,8.999 20.518,-3.121 44.269,-6.422 64.992,-3 15.912,2.627 39.745,15.153 48.994,26.997 10.805,13.835 14.271,37.521 11.998,57.992 -2.561,23.062 -17.422,45.138 -34.995,57.993 -54.499,39.864 -170.181,28.775 -209.974,-13.999 5.183,-10.152 16.358,-22.857 25.997,-33.995 3.073,-3.552 7.51,-8.634 9.999,-8.999 29.79717,17.25704 48.58557,24.5388 81.991,24.997 25.67461,2.00695 53.38217,-0.91184 67.992,-24.997 4.854,-14.824 -1.686,-28.929 -9.999,-33.996 -11.553,-7.041 -29.03,-6.21 -44.994,-4.999 -48.46303,6.6615 -138.05654,30.4798 -124.99,-51.993 z m 54.993,-145.982 c -7.32438,52.07004 21.07548,86.59964 72.991,73.991 25.798,-8.417 39.067,-44.021 31.996,-72.991 -19.50444,-56.21257 -91.94105,-52.97853 -104.987,-1 z"
         id="path2458"
         style="fill:#000000;fill-opacity:1;fill-rule:evenodd" /><path
         d="m 456.292,277.632 c -3.209,18.255 1.078,37.548 7.999,48.994 -11.246,-5.062 -45.031,-4.103 -47.994,-17.997 -4.151,-19.462 26.275,-23.245 39.995,-30.997 z"
         id="path2468"
         style="fill:#000000;fill-rule:evenodd" /><path
         d="m 501.98122,468.02974 c -5.5029,-26.15219 -12.26766,-51.8964 -18.57497,-77.90719 -40.63893,30.19521 -13.33209,74.40362 18.57497,77.90719 z"
         id="path2497"
         style="fill:#b3b3b3;fill-opacity:1;fill-rule:evenodd;stroke:none" /></g><path
       d="m 839.85391,371.52741 c -1e-4,34.84868 6.11371,59.91518 18.34137,75.19957 12.22744,15.28452 29.54982,22.92675 51.96718,22.9267 12.02361,5e-5 23.02841,-3.15876 33.01445,-9.47638 9.98563,-6.52131 17.72975,-14.26543 23.23239,-23.23238 5.50217,-8.9668 9.78184,-17.32231 12.83896,-25.06652 3.05664,-7.94782 4.5851,-14.1635 4.58534,-18.64704 l 0,-176.68845 49.216,0 0,286.7366 -49.216,0 0,-52.57856 c -18.34159,38.72067 -48.19721,58.08096 -89.56699,58.08096 -7.3367,0 -15.08081,-1.01895 -23.23238,-3.05689 -8.15183,-1.83412 -17.22062,-5.50241 -27.20635,-11.00482 -9.78216,-5.50238 -18.54523,-12.53322 -26.28928,-21.09255 -7.54042,-8.55928 -13.95987,-20.17546 -19.25844,-34.84858 -5.09486,-14.67301 -7.64228,-31.38402 -7.64223,-50.13305 l 0,-172.10311 49.21598,0 0,154.9845 m 70.30855,131.7521 0,0 m 0,-292.239 0,0 m 107.60264,39.12823 0,0 m -9.4764,253.11077 0,0"
       id="flowRoot2419"
       style="font-size:22px;font-style:normal;font-variant:normal;font-weight:normal;font-stretch:normal;text-align:start;line-height:100%;writing-mode:lr-tb;text-anchor:start;fill:#000000;fill-opacity:1;stroke:none;font-family:Molengo;-inkscape-font-specification:Molengo" /><path
       d="m 1174.2934,211.04051 c 18.3412,3e-4 34.6446,2.44581 48.9103,7.33655 14.2653,4.6875 25.2701,10.08802 33.0144,16.20153 l -17.4243,36.68273 c -6.3177,-5.0946 -15.2846,-9.88374 -26.9006,-14.36742 -11.6164,-4.48319 -23.1307,-6.7249 -34.5429,-6.72516 -15.2846,2.6e-4 -27.2065,3.9742 -35.7657,11.92188 -8.5594,7.94816 -12.839,16.50746 -12.839,25.67792 0,10.39363 3.2607,18.85103 9.7821,25.3722 6.5213,6.52156 19.6659,13.24672 39.4339,20.17551 l 29.9576,10.39342 c 21.8057,7.54049 37.9053,17.52635 48.2989,29.95757 10.597,12.22768 15.8956,28.53111 15.8958,48.91029 -2e-4,26.49312 -8.967,47.48377 -26.9006,62.972 -17.934,15.48827 -42.3891,23.23238 -73.3654,23.23238 -16.5074,0 -32.4032,-1.73223 -47.6876,-5.19672 -15.0807,-3.26067 -31.9955,-10.29151 -50.7444,-21.09255 l 17.73,-37.90548 c 15.692,9.37451 29.0404,15.89587 40.0453,19.56411 11.0047,3.46452 23.9455,5.19675 38.8225,5.19673 35.256,2e-5 52.8841,-15.18253 52.8843,-45.54771 -2e-4,-18.34127 -16.8131,-33.01435 -50.4388,-44.01928 l -29.9575,-10.39342 c -21.3983,-7.54021 -37.2942,-18.23932 -47.6876,-32.09739 -10.1896,-14.06153 -15.2845,-29.54976 -15.2844,-46.46476 -10e-5,-21.19423 8.8649,-39.73937 26.595,-55.63548 17.7299,-16.09935 40.4527,-24.14915 68.1687,-24.14945 m 1.2227,292.239 0,0 m 0,-292.239 0,0 m 60.2208,39.12823 0,0"
       id="flowRoot2445"
       style="font-size:22px;font-style:normal;font-variant:normal;font-weight:normal;font-stretch:normal;text-align:start;line-height:100%;writing-mode:lr-tb;text-anchor:start;fill:#000000;fill-opacity:1;stroke:#ffffff;font-family:Molengo;-inkscape-font-specification:Molengo" /></g></svg>