<?xml version="1.0" encoding="utf-8"?>
<!DOCTYPE svg PUBLIC "-//W3C//DTD SVG 1.1//EN" "http://www.w3.org/Graphics/SVG/1.1/DTD/svg11.dtd" [
	<!ENTITY ns_svg "http://www.w3.org/2000/svg">
	<!ENTITY ns_xlink "http://www.w3.org/1999/xlink">
]>
<svg  version="1.1" id="LugUSAC_Logo" xmlns="&ns_svg;" xmlns:xlink="&ns_xlink;" width="1875.114" height="592.293"
	 viewBox="0 0 1875.114 592.293" overflow="visible" enable-background="new 0 0 1875.114 592.293" xml:space="preserve">
<path fill-rule="evenodd" clip-rule="evenodd" d="M1515.159,459.61c-10.469,3.081-16.178,12.43-24.997,17.998
	c-38.837,24.521-112.032,11.952-136.982-19.997c-20.601-26.379-20.323-82.843-1-110.986c18.918-27.553,57.097-46.268,100.987-48.994
	c16.766-1.041,34.016,2.276,51.993-2c3.694-6.881,1.743-16.904,0-21.997c-3.627-10.596-15.319-22.711-27.996-26.997
	c-13.929-4.709-34.597-3.733-51.993-3c-17.021,0.717-32.525,5.805-44.995,8.999c-4.893-15.688-6.985-28.632-12.998-40.995
	c-9.518-19.569-20.228-30.396-26.997-53.993c-2.086-7.273-5.327-16.675-3.999-23.997c1.937-10.676,15.463-17.361,18.997-26.997
	c1.689-4.603,4.127-13.918,3-20.997c-0.995-6.254-9.735-9.85-9.998-16.998c-0.146-3.927,6.261-12.474,8.998-16.998
	c10.777-17.809,26.988-31.943,47.994-40.995c61.791-26.625,131.857-0.724,158.98,47.994c10.442,18.756,13.905,33.699,14.998,60.992
	c1.08,26.989-4.385,45.392-14.998,63.992c-2.354,4.125-7.026,9.983-10.999,15.998c-3.154,4.776-9.75,11.394-9.999,16.998
	c-0.199,4.506,5.947,13.978,9.999,20.998c11.917,20.645,17.271,40.691,18.998,72.991c0.939,17.565,2.048,38.551,2.999,58.992
	c1.811,38.893-2.486,70.076,12.999,93.988c2.751,4.249,7.104,6.878,6.999,9.999c-0.4,11.864-29.448,19.478-42.995,16.997
	C1533.972,487.278,1525.386,468.908,1515.159,459.61z M1392.175,105.655c1.773,7.982,12.461,19.075,20.997,20.997
	c19.366,4.362,35.407-8.103,38.995-19.998c7.344-24.34-12.554-40.96-30.996-39.995
	C1398.952,67.822,1387.729,85.648,1392.175,105.655z M1407.173,368.622c-7.045,9.514-12.228,28.845-6.999,45.994
	c8.318,27.29,61.513,32.736,86.989,13.998c14.321-10.533,20.104-27.656,20.997-49.993c0.366-9.157,1.286-20.091-2-29.996
	C1470.115,340.569,1423.608,346.428,1407.173,368.622z"/>
<path fill-rule="evenodd" clip-rule="evenodd" fill="#114C1D" d="M92.337,459.61c-13.042,17.796-43.026,26.384-65.991,16.998
	c-10.134-4.141-21.102-15.563-23.997-25.996c-3.229-11.636-1.833-29.088-2-44.995c-1.1-105.069,0.829-223.066,0-324.959
	C16.875,74.197,37.93,70.009,56.342,65.66c6.168-1.457,7.262-3.555,8.999,5.999c4.515,24.835,1,55.476,1,80.99
	c0,78.497,2,152.734,2,230.971c0,16.742-1.356,32.694,2,43.995C74.527,441.715,88.276,449.817,92.337,459.61z"/>
<path fill-rule="evenodd" clip-rule="evenodd" fill="#114C1D" d="M524.283,479.608c-5.451-0.215-12.021,0.688-15.998-1
	c-26.215-2.676-49.152-27.464-37.995-58.992c6.14-17.352,25.997-25.508,34.996-36.996c-2.247-9.415-12.11-12.934-17.998-18.997
	c-7.982-8.221-13.591-18.04-20.997-26.997c-6.921-11.445-11.208-30.738-7.999-48.994c2.605-22.867,8.588-41.005,20.998-57.993
	c4.171-5.711,9.696-11.319,9.999-15.998c0.383-5.921-5.055-11.583-6.999-17.998c-3.648-12.036-7.764-31.798-4-44.994
	c2.236-7.841,9.162-12.162,14.998-17.998c5.217-5.217,9.638-13.071,16.998-13.999c3.689,20.789,2.234,47.229,15.998,60.993
	c3.417,3.416,10.514,8.696,13.999,7.999c7.725-1.545,9.135-32.657,6.999-40.995c-2.642-10.315-10.688-12.374-12.999-20.998
	c4.851-6.245,20.408-30.538,31.996-30.996c7.695-0.304,11.61,6.262,16.998,11.999c2.075,18.381-6.887,38.933,5.999,49.994
	c3.406,2.924,10.472,6.017,13.999,5c4.83-1.393,7.271-11.492,7.999-17.998c1.159-10.358-2.977-23.219-1-31.996
	c1.569-6.968,7.176-10.331,10.999-13.998c4.484-4.302,7.677-9.438,12.999-9.999c5.38,1.286,8.896,4.436,12.998,6.999
	c-3.387,19.205-3.286,38.426-6.999,55.993c-2.589,12.252-10.162,23.386-6.999,35.996c13.353,16.128,24.398-8.88,34.996-13.999
	c10.746,5.16,18.953,15.852,28.997,24.997c3.441,3.134,8.919,5.342,8.999,8.999c0.207,9.533-23.856,15.633-25.997,24.997
	c7.873,18.855,14.416,32.453,15.998,52.994c5.015,65.101-36.08,114.985-103.987,114.985c-12.842,0-27.954-4.769-40.995-2
	c-10.532,2.236-17.261,11.746-22.997,20.998c10.735,18.834,36.354,11.833,54.993,8.999c20.518-3.121,44.269-6.422,64.992-3
	c15.912,2.627,39.745,15.153,48.994,26.997c10.805,13.835,14.271,37.521,11.998,57.992c-2.561,23.062-17.422,45.138-34.995,57.993
	c-54.499,39.864-170.181,28.775-209.974-13.999c5.183-10.152,16.358-22.857,25.997-33.995c3.073-3.552,7.51-8.634,9.999-8.999
	c5.435-0.798,21.225,10.415,26.997,12.998c9.15,4.095,21.182,9.904,27.997,10.999c8.049,1.292,18.165,0.754,26.997,1
	c9.961,0.277,20.59,1.013,27.997,0c12.526-1.714,35.476-11.194,39.995-24.997c4.854-14.824-1.686-28.929-9.999-33.996
	c-11.553-7.041-29.03-6.21-44.994-4.999C571.671,473.4,549.261,481.959,524.283,479.608z M549.28,242.637
	c-8.483,5.046-20.984,20.142-23.997,30.997c-9.701,34.953,12.056,64.739,30.996,72.991c12.172,5.304,30.38,4.789,41.995,1
	c25.798-8.417,39.067-44.021,31.996-72.991c-2.345-9.607-10.634-22.322-18.998-28.996c-9.653-7.704-26.04-11.103-40.995-8.999
	C561.218,237.913,555.018,239.224,549.28,242.637z"/>
<path fill-rule="evenodd" clip-rule="evenodd" fill="#114C1D" d="M218.321,189.644c1.066,27.127,2,61.763,2,96.988
	c0,34.716-1.54,70.729,1,97.988c2.625,28.17,21.726,48.247,52.993,47.994c30.32-0.245,53.67-20.978,67.992-39.995
	c2.332-65.992-0.13-136.78,2-202.975c17.37-1.661,41.623-1.661,58.993,0c1.076,94.132,1.875,191.994,0,285.964
	c-17.586,1.687-41.387,1.564-58.993,0c-2.171-5.827,0.453-16.451-4-19.997c-10.503-0.021-17.095,9.173-27.997,13.998
	c-31.431,13.912-82.658,14.924-110.986,1c-10.407-5.115-22.231-14.6-27.997-22.997c-6.979-10.165-14.143-27.852-15.998-41.995
	c-2.106-16.053-1-35.285-1-53.993c0-51.452-3.214-112.111,1-161.979C177.338,187.743,198.388,187.686,218.321,189.644z"/>
<path fill-rule="evenodd" clip-rule="evenodd" d="M1100.211,465.61c4.861-16.47,12.166-30.496,18.998-44.995
	c21.288,11.714,58.612,27.909,89.988,16.998c16.117-5.604,25.671-26.015,15.998-45.994c-8.572-17.706-38.47-30.42-60.992-40.995
	c-22.695-10.656-45.87-24.103-57.993-43.994c-8.98-14.735-14.416-43.987-4.999-66.992c10.532-25.731,42.679-44.424,77.99-46.994
	c11.043-0.804,22.563-0.648,32.996,0c22.547,1.401,44.861,7.466,61.992,18.998c-3.071,16.594-9.349,29.98-14.998,43.995
	c-17.162-8.947-56.943-22.562-81.99-10.999c-10.254,4.734-19.325,15.077-14.998,34.996c3.027,13.934,25.757,24.354,42.995,31.996
	c27.178,12.049,52.974,20.82,69.991,40.995c12.66,15.009,20.092,34.023,16.998,65.992c-5.415,55.946-65.148,74.405-130.984,69.991
	C1137.214,486.999,1114.515,476.642,1100.211,465.61z"/>
<path fill-rule="evenodd" clip-rule="evenodd" d="M1853.117,420.615c6.843,4.08,8.64,12.834,11.998,19.998
	c3.345,7.133,7.661,14.478,9.999,21.997c-4.763,7.576-14.547,10.211-22.997,13.998c-23.86,10.694-59.45,14.923-97.987,11.999
	c-36.34-2.757-67.949-21.118-85.99-41.995c-24.74-28.629-34.032-68.16-30.996-122.984c1.914-34.551,17.269-65.783,36.996-85.989
	c33.17-33.977,79.316-45.861,136.982-41.995c24.072,1.614,42.627,9.739,60.992,23.997c-5.232,16.432-14.053,29.274-22.997,41.995
	c-7.304-1.477-12.272-7.633-19.997-10.999c-22.587-9.841-58.513-9.837-78.99-1c-23.23,10.025-41.955,33.202-47.994,60.993
	c-8.659,39.854-1.492,90.28,26.997,112.985c16.776,13.371,45.154,19.952,73.99,16.998
	C1823.904,438.484,1835.185,428.949,1853.117,420.615z"/>
<path fill-rule="evenodd" clip-rule="evenodd" d="M978.227,198.643c18.664,0,37.328,0,55.993,0
	c2.332,93.322,0.334,190.977,1,285.964c-17.068,1.69-40.915,1.62-57.993,0c-2.04-5.959-0.496-15.502-3.999-19.997
	c-12,0.779-21.104,9.604-31.996,13.998c-29.516,11.906-81.776,16.464-111.986-1c-16.842-9.735-30.274-29.791-35.996-51.993
	c-7.747-30.065-3.276-71.104-5-111.986c-1.696-40.256,0.5-81.477,1-114.985c19.435,1.896,42.017,0.644,62.992,1
	c-0.247,49.775,2,105.072,2,156.98c0,18.287-1.768,36.636,2,50.993c3.415,13.012,14.328,24.304,24.997,28.996
	c34.946,15.371,81.293-9.975,93.988-36.995C976.479,332.879,974.45,262.859,978.227,198.643z"/>
<path fill-rule="evenodd" clip-rule="evenodd" fill="#EDBB0A" d="M458.292,287.632c-3.209,18.255,1.078,37.548,7.999,48.994
	c-11.246-5.062-45.031-4.103-47.994-17.997C414.146,299.167,444.572,295.384,458.292,287.632z"/>
<path fill-rule="evenodd" clip-rule="evenodd" fill="#EDBB0A" d="M508.285,478.608c3.978,1.688,10.547,0.785,15.998,1
	c-4.949,3.246,1.25,8.259,1,12.998c-5.847,0.848-7.024-2.975-10.999-3.999c-5.103-0.103-10.167,4.035-13.998,1.999
	C501.201,484.855,506.896,483.884,508.285,478.608z"/>
<path fill-rule="evenodd" clip-rule="evenodd" fill="#EDBB0A" d="M1488.163,480.608c2.779,9.91,0.132,22.699-4,28.996
	c-19.17,3.822-47.301,2.475-68.991,3c-6.361,0.153-12.569,2.781-16.998-2c-0.646-7.416,9.975-7.717,16.998-8.999
	c7.641-1.396,16.566-1.51,20.997-3.999c1.363-0.766,5.775-1.758,3-5C1460.129,493.236,1474.784,487.56,1488.163,480.608z"/>
<path fill-rule="evenodd" clip-rule="evenodd" fill="#EDBB0A" d="M1335.182,129.652c-8.067-5.594-23.27-7.952-35.995-15.998
	c-9.156-5.79-24.156-17.158-22.997-26.997c0.993-8.436,21.409-18.622,31.996-19.997c14.522-1.887,29.401,4.61,37.995,1
	c0.102,1.122-1.453,1.557,0,2c3.356,7.713,9.191,10.352,9.998,18.998C1357.782,105.83,1343.576,120.387,1335.182,129.652z"/>
</svg>
