<?xml version="1.0" encoding="UTF-8" standalone="no"?>
<svg
   xmlns:svg="http://www.w3.org/2000/svg"
   xmlns="http://www.w3.org/2000/svg"
   version="1.0"
   width="1875.114"
   height="592.29303"
   viewBox="0 0 1875.114 592.293"
   id="LugUSAC_Logo"
   xml:space="preserve"
   style="overflow:visible"><defs
   id="defs2397" />
<flowRoot
   transform="matrix(2.353578,0,0,2.353578,-284.97234,-417.69933)"
   id="flowRoot2455"
   xml:space="preserve"
   style="font-size:22px;font-style:normal;font-variant:normal;font-weight:normal;font-stretch:normal;text-align:start;line-height:100%;writing-mode:lr-tb;text-anchor:start;fill:#000000;fill-opacity:1;stroke:none;stroke-width:1px;stroke-linecap:butt;stroke-linejoin:miter;stroke-opacity:1;font-family:Molengo;-inkscape-font-specification:Molengo"><flowRegion
     id="flowRegion2457"><rect
       width="325.51709"
       height="376.37912"
       x="757.84442"
       y="170.13805"
       id="rect2459"
       style="fill:#000000" /></flowRegion><flowPara
     id="flowPara2461"
     style="font-size:266px;fill:#000000">c</flowPara></flowRoot><flowRoot
   transform="matrix(2.353578,0,0,2.4843612,-1829.4313,-467.98139)"
   id="flowRoot2437"
   xml:space="preserve"
   style="font-size:22px;font-style:normal;font-variant:normal;font-weight:normal;font-stretch:normal;text-align:start;line-height:100%;writing-mode:lr-tb;text-anchor:start;fill:#114c1d;fill-opacity:1;stroke:none;stroke-width:1px;stroke-linecap:butt;stroke-linejoin:miter;stroke-opacity:1;font-family:Molengo;-inkscape-font-specification:Molengo"><flowRegion
     id="flowRegion2439"><rect
       width="325.51709"
       height="376.37912"
       x="757.84442"
       y="170.13805"
       id="rect2441"
       style="fill:#114c1d" /></flowRegion><flowPara
     id="flowPara2443"
     style="font-size:266px;fill:#114c1d">l</flowPara></flowRoot><flowRoot
   transform="matrix(2.353578,0,0,2.353578,-1687.0176,-417.69933)"
   id="flowRoot2429"
   xml:space="preserve"
   style="font-size:22px;font-style:normal;font-variant:normal;font-weight:normal;font-stretch:normal;text-align:start;line-height:100%;writing-mode:lr-tb;text-anchor:start;fill:#114c1d;fill-opacity:1;stroke:none;stroke-width:1px;stroke-linecap:butt;stroke-linejoin:miter;stroke-opacity:1;font-family:Molengo;-inkscape-font-specification:Molengo"><flowRegion
     id="flowRegion2431"><rect
       width="325.51709"
       height="376.37912"
       x="757.84442"
       y="170.13805"
       id="rect2433"
       style="fill:#114c1d" /></flowRegion><flowPara
     id="flowPara2435"
     style="font-size:266px;fill:#114c1d">u</flowPara></flowRoot>

<g
   transform="translate(-46,0)"
   id="g3315"><path
     d="M 1471.0002,449.86144 C 1461.8028,461.20753 1451.8553,468.22535 1443.0363,473.79335 C 1404.1993,498.31435 1351.0732,486.01656 1334.6642,469.47881 C 1320.4717,455.17492 1305.3797,437.8634 1307.5974,402.78518 C 1310.0252,364.15282 1340.8986,339.79166 1398.7756,324.774 C 1426.3498,319.07065 1452.3557,318.94833 1470.8339,319.06402 C 1470.6957,298.13792 1474.6724,253.68596 1456.025,239.64971 C 1437.3007,227.14832 1420.067,226.9745 1400.8851,228.10805 C 1371.5827,229.83967 1345.1328,239.9072 1330.8645,246.84754 C 1325.9715,231.15954 1326.2772,220.6132 1320.2642,208.2502 C 1310.7462,188.6812 1300.0362,177.8542 1293.2672,154.2572 C 1291.1812,146.9842 1287.9402,137.5822 1289.2682,130.2602 C 1291.2052,119.5842 1304.7312,112.8992 1308.2652,103.2632 C 1318.0332,79.895341 1305.5235,81.193011 1301.2672,65.268197 C 1301.1222,61.341161 1307.5282,52.794197 1310.2652,48.270197 C 1321.0422,30.461197 1337.2532,16.327197 1358.2592,7.2751971 C 1420.0502,-19.349803 1490.1162,6.5511971 1517.2392,55.269197 C 1527.6812,74.025197 1531.1442,88.968197 1532.2372,116.2612 C 1533.3172,143.2502 1527.8522,161.6532 1517.2392,180.2532 C 1514.8852,184.3782 1510.2132,190.2362 1506.2402,196.2512 C 1503.0862,201.0272 1495.6937,207.89852 1494.9696,213.46113 C 1494.1349,219.87445 1502.1882,227.2272 1506.2402,234.2472 C 1518.1572,254.8922 1516.6997,278.70297 1518.0327,303.63547 C 1519.3657,328.56797 1518.3792,350.97411 1518.2767,385.72732 C 1518.1742,420.48179 1521.9458,446.9854 1531.0638,461.0659 C 1540.1818,475.1464 1548.3402,467.0962 1548.2352,470.2172 C 1547.8352,482.0812 1518.7872,489.6952 1505.2402,487.2142 C 1487.0582,483.8872 1467.2402,476.32538 1471.0002,449.86144 z M 1345.2612,102.2642 C 1347.0342,110.2462 1357.7222,121.3392 1366.2582,123.2612 C 1385.6242,127.6232 1401.6652,115.1582 1405.2532,103.2632 C 1412.5972,78.923197 1392.6992,62.303197 1374.2572,63.268197 C 1352.0382,64.431197 1340.8152,82.257197 1345.2612,102.2642 z M 1390.3526,365.44313 C 1357.138,376.93856 1349.0908,398.95048 1352.4125,414.616 C 1360.7305,441.906 1376.0327,449.37219 1407.6127,447.68727 C 1450.3317,445.41935 1465.3655,415.7779 1468.6636,393.66769 C 1470.725,379.84834 1471.4331,371.66936 1470.9021,353.71121 C 1430.8305,355.19184 1423.5672,353.9477 1390.3526,365.44313 z"
     id="path2454"
     style="opacity:1;fill-rule:evenodd" /><path
     d="M 1293.3544,126.2612 C 1285.2874,120.6672 1270.0844,118.3092 1257.3594,110.2632 C 1248.2034,104.4732 1233.2034,93.105197 1234.3624,83.266197 C 1235.3554,74.830197 1255.7714,64.644197 1266.3584,63.269197 C 1280.8804,61.382197 1295.7594,67.879197 1304.3534,64.269197 C 1305.6879,74.334746 1313.2999,75.789124 1314.3514,85.267197 C 1315.9544,102.4392 1300.8887,116.45888 1293.3544,126.2612 z"
     id="path2474"
     style="fill:#edbb0a;fill-rule:evenodd" /><path
     d="M 1442.9446,475.18012 C 1445.7236,485.09012 1443.0766,497.87912 1438.9446,504.17612 C 1419.7746,507.99812 1391.6436,506.65112 1369.9536,507.17612 C 1363.5926,507.32912 1357.3846,509.95712 1352.9556,505.17612 C 1352.3096,497.76012 1362.9306,497.45912 1369.9536,496.17712 C 1377.5946,494.78112 1386.5196,494.66712 1390.9506,492.17812 C 1392.3136,491.41212 1396.7256,490.42012 1393.9506,487.17812 C 1414.9106,487.80812 1429.5656,482.13212 1442.9446,475.18012 z"
     id="path2472"
     style="fill:#edbb0a;fill-rule:evenodd" /></g>

<g
   id="g3320"><path
     d="M 506.43689,468.7955 C 513.39568,469.66967 520.05963,469.84038 527.31525,470.12656 C 520.72783,474.44719 529.27025,480.87022 528.93748,487.17812 C 521.15477,488.30686 519.58811,483.21822 514.29714,481.85521 C 507.50473,481.71811 500.76424,487.22604 495.66494,484.516 C 496.88286,476.86107 504.58804,475.81818 506.43689,468.7955 z"
     id="path2470"
     style="fill:#edbb0a;fill-rule:evenodd" /><path
     d="M 468.29,409.616 C 474.43,392.264 499.79705,379.0218 512.18685,367.5338 C 492.98476,358.20852 477.22302,343.18952 464.291,326.626 C 457.37,315.181 453.083,295.888 456.292,277.632 C 458.897,254.765 464.88,236.627 477.29,219.639 C 481.461,213.928 486.986,208.32 487.289,203.641 C 487.672,197.72 482.234,192.058 480.29,185.643 C 470.09647,157.2149 476.27523,118.9079 508.286,108.652 C 509.79947,123.5025 514.30668,180.39649 538.283,177.644 C 570.70199,146.58126 509.97409,106.3668 564.279,84.655 C 604.69528,94.21388 549.9291,139.84542 596.1888,152.4957 C 619.94881,129.00398 596.40282,94.4117 632.272,77.657 C 654.65756,82.492497 641.45977,121.9452 638.271,140.649 C 635.682,152.901 628.109,164.035 631.272,176.645 C 644.625,192.773 659.0608,171.57965 666.268,162.646 C 677.88653,159.97485 703.10767,182.1765 704.264,194.54546 C 678.60955,221.76813 703.77455,194.54546 678.267,221.639 C 686.14,240.494 692.683,254.092 694.265,274.633 C 699.28,339.734 658.185,389.618 590.278,389.618 C 577.436,389.618 562.324,384.849 549.283,387.618 C 538.751,389.854 526.73415,395.41258 526.286,408.616 C 525.64177,427.59616 562.64,420.449 581.279,417.615 C 601.797,414.494 625.548,411.193 646.271,414.615 C 662.183,417.242 686.016,429.768 695.265,441.612 C 706.07,455.447 709.536,479.133 707.263,499.604 C 704.702,522.666 689.841,544.742 672.268,557.597 C 617.769,597.461 502.087,586.372 462.294,543.598 C 467.477,533.446 478.652,520.741 488.291,509.603 C 491.364,506.051 495.801,500.969 498.29,500.604 C 528.08717,517.86104 546.87557,525.1428 580.281,525.601 C 605.95561,527.60795 633.66317,524.68916 648.273,500.604 C 653.127,485.78 646.587,471.675 638.274,466.608 C 626.721,459.567 609.244,460.398 593.28,461.609 C 544.81697,468.2705 455.22346,492.0888 468.29,409.616 z M 523.283,263.634 C 515.95862,315.70404 544.35848,350.23364 596.274,337.625 C 622.072,329.208 635.341,293.604 628.27,264.634 C 608.76556,208.42143 536.32895,211.65547 523.283,263.634 z"
     id="path2458"
     style="fill:#114c1d;fill-rule:evenodd" /><path
     d="M 456.292,277.632 C 453.083,295.887 457.37,315.18 464.291,326.626 C 453.045,321.564 419.26,322.523 416.297,308.629 C 412.146,289.167 442.572,285.384 456.292,277.632 z"
     id="path2468"
     style="fill:#edbb0a;fill-rule:evenodd" /><path
     d="M 501.98122,468.02974 C 496.47832,441.87755 489.71356,416.13334 483.40625,390.12255 C 442.76732,420.31776 470.07416,464.52617 501.98122,468.02974 z"
     id="path2497"
     style="fill:#aa0000;fill-opacity:1;fill-rule:evenodd;stroke:none;stroke-width:0.93353057px;stroke-linecap:butt;stroke-linejoin:miter;stroke-opacity:1" /></g><flowRoot
   transform="matrix(2.353578,0,0,2.353578,-1086.5007,-417.69933)"
   id="flowRoot2419"
   xml:space="preserve"
   style="font-size:22px;font-style:normal;font-variant:normal;font-weight:normal;font-stretch:normal;text-align:start;line-height:100%;writing-mode:lr-tb;text-anchor:start;fill:#000000;fill-opacity:1;stroke:none;stroke-width:1px;stroke-linecap:butt;stroke-linejoin:miter;stroke-opacity:1;font-family:Molengo;-inkscape-font-specification:Molengo"><flowRegion
     id="flowRegion2421"><rect
       width="325.51709"
       height="376.37912"
       x="757.84442"
       y="170.13805"
       id="rect2423"
       style="fill:#000000" /></flowRegion><flowPara
     id="flowPara2425"
     style="font-size:266px;fill:#000000">u</flowPara></flowRoot><flowRoot
   transform="matrix(2.353578,0,0,2.353578,-773.76518,-417.69933)"
   id="flowRoot2445"
   xml:space="preserve"
   style="font-size:22px;font-style:normal;font-variant:normal;font-weight:normal;font-stretch:normal;text-align:start;line-height:100%;writing-mode:lr-tb;text-anchor:start;fill:#000000;fill-opacity:1;stroke:none;stroke-width:1px;stroke-linecap:butt;stroke-linejoin:miter;stroke-opacity:1;font-family:Molengo;-inkscape-font-specification:Molengo"><flowRegion
     id="flowRegion2447"><rect
       width="325.51709"
       height="376.37912"
       x="757.84442"
       y="170.13805"
       id="rect2449"
       style="fill:#000000" /></flowRegion><flowPara
     id="flowPara2451"
     style="font-size:266px;fill:#000000">s</flowPara></flowRoot><flowRoot
   transform="matrix(2.353578,0,0,2.353578,-1381.5475,-417.69933)"
   id="flowRoot3269"
   xml:space="preserve"
   style="font-size:22px;font-style:normal;font-variant:normal;font-weight:normal;font-stretch:normal;text-align:start;line-height:100%;writing-mode:lr-tb;text-anchor:start;fill:#114c1d;fill-opacity:1;stroke:none;stroke-width:1px;stroke-linecap:butt;stroke-linejoin:miter;stroke-opacity:1;font-family:Molengo;-inkscape-font-specification:Molengo"><flowRegion
     id="flowRegion3271"><rect
       width="325.51709"
       height="376.37912"
       x="757.84442"
       y="170.13805"
       id="rect3273"
       style="fill:#114c1d" /></flowRegion><flowPara
     id="flowPara3275"
     style="font-size:266px;fill:#114c1d" /></flowRoot><flowRoot
   transform="matrix(2.353578,0,0,2.353578,-1371.0176,-417.69933)"
   id="flowRoot3277"
   xml:space="preserve"
   style="font-size:22px;font-style:normal;font-variant:normal;font-weight:normal;font-stretch:normal;text-align:start;line-height:100%;writing-mode:lr-tb;text-anchor:start;fill:#114c1d;fill-opacity:1;stroke:none;stroke-width:1px;stroke-linecap:butt;stroke-linejoin:miter;stroke-opacity:1;font-family:Molengo;-inkscape-font-specification:Molengo"><flowRegion
     id="flowRegion3279"><rect
       width="325.51709"
       height="376.37912"
       x="757.84442"
       y="170.13805"
       id="rect3281"
       style="fill:#114c1d" /></flowRegion><flowPara
     id="flowPara3283"
     style="font-size:266px;fill:#114c1d" /></flowRoot></svg>