<?xml version="1.0" encoding="UTF-8" standalone="no"?>
<!-- Created with Inkscape (http://www.inkscape.org/) -->

<svg
   xmlns:dc="http://purl.org/dc/elements/1.1/"
   xmlns:cc="http://creativecommons.org/ns#"
   xmlns:rdf="http://www.w3.org/1999/02/22-rdf-syntax-ns#"
   xmlns:svg="http://www.w3.org/2000/svg"
   xmlns="http://www.w3.org/2000/svg"
   version="1.1"
   width="744.09448"
   height="1052.3622"
   id="svg2">
  <defs
     id="defs4" />
  <metadata
     id="metadata7">
    <rdf:RDF>
      <cc:Work
         rdf:about="">
        <dc:format>image/svg+xml</dc:format>
        <dc:type
           rdf:resource="http://purl.org/dc/dcmitype/StillImage" />
        <dc:title></dc:title>
      </cc:Work>
    </rdf:RDF>
  </metadata>
  <g
     id="layer1">
    <path
       d="m 374.86829,978.529 c -15.27222,-7.56008 -33.96039,-15.35629 -44.3594,-18.5056 -5.7367,-1.73734 -11.85556,-3.92155 -13.59744,-4.85378 -3.91069,-2.09293 -38.06004,-2.46056 -67.25459,-0.724 -23.07493,1.37255 -30.54688,0.52561 -54.4601,-6.17303 -14.01203,-3.92509 -22.23876,-7.12836 -23.83639,-9.28124 -0.37457,-0.50475 -4.66512,-2.35604 -9.53455,-4.11397 -4.86944,-1.75791 -9.77292,-3.94467 -10.89664,-4.85947 -1.12372,-0.91479 -4.49486,-2.93499 -7.49144,-4.48931 -2.99657,-1.55432 -4.68215,-2.85313 -3.74572,-2.88623 0.93643,-0.0331 1.7026,-0.70932 1.7026,-1.50268 0,-0.79335 -0.61842,-1.06025 -1.37427,-0.59311 -2.11698,1.30837 -6.7982,-0.63586 -6.7982,-2.82348 0,-1.07323 -0.45971,-1.82623 -1.02156,-1.67333 -1.43901,0.39161 -16.12294,-8.17456 -18.10359,-10.56112 -0.90178,-1.08658 -2.22391,-1.9756 -2.93808,-1.9756 -1.5021,0 -26.737353,-19.13376 -30.021694,-22.76292 -1.21228,-1.33955 -2.30912,-3.04849 -2.437409,-3.79763 -0.12831,-0.74914 -0.78492,-1.20885 -1.45914,-1.02156 -0.67423,0.18729 -1.22588,-0.1713 -1.22588,-0.79683 0,-1.23041 -21.35746,-17.55045 -31.19535,-23.83754 -3.32431,-2.12446 -5.44781,-4.26974 -4.71892,-4.76728 2.72001,-1.85669 8.67268,-10.77902 8.67268,-12.9993 0,-1.26665 0.98208,-3.80184 2.18238,-5.63374 2.35133,-3.58858 2.19878,-7.83941 -0.86854,-24.20312 l -1.73231,-9.24163 3.74572,-3.9097 c 3.46483,-3.61649 3.71035,-4.60598 3.27392,-13.19479 l -0.47181,-9.28509 4.47555,-2.13836 c 4.36939,-2.08763 8.46421,-7.81275 8.46421,-11.83414 0,-1.10419 -4.50075,-8.23613 -10.00167,-15.84873 -5.50091,-7.61261 -10.43157,-14.59271 -10.95702,-15.51134 -0.97071,-1.69709 13.07557,-27.44168 15.98407,-29.29622 0.86318,-0.55039 1.13182,-1.01009 0.59697,-1.02156 -1.09031,-0.0234 27.10619,-49.30257 28.837289,-50.39907 0.60759,-0.38487 1.32887,-1.67653 1.60282,-2.87033 0.27394,-1.19381 7.240384,-13.90379 15.480964,-28.24439 l 14.98288,-26.07382 92.6214,-0.29698 c 50.94177,-0.16334 98.98777,-0.0948 106.76889,0.15239 9.69322,0.30789 13.86744,-0.004 13.25806,-0.98974 -0.48919,-0.79152 -0.26649,-1.82412 0.49487,-2.29467 2.4062,-1.4871 1.50151,-3.41288 -1.68038,-3.57693 -2.30623,-0.11891 -2.47478,-0.31216 -0.68104,-0.78092 2.31307,-0.60446 2.943,-2.00635 2.48532,-5.53095 -0.12163,-0.93643 0.4187,-1.7026 1.20069,-1.7026 2.46313,0 1.55031,-2.63042 -1.97714,-5.69751 -3.25878,-2.83347 -3.30091,-3.06598 -1.02156,-5.63832 1.74361,-1.96774 1.92348,-2.84173 0.67477,-3.27851 -2.59864,-0.90897 -2.02761,-3.26669 0.68104,-2.81189 1.33192,0.22364 2.23339,-0.35099 2.04312,-1.30237 -0.18729,-0.93643 0.33886,-1.7026 1.16922,-1.7026 0.91093,0 1.18628,-1.28878 0.6942,-3.24935 -0.51608,-2.0562 -0.0702,-3.86795 1.21443,-4.93405 1.11647,-0.92659 2.02995,-2.78446 2.02995,-4.12858 0,-1.34413 0.72145,-2.68436 1.60323,-2.97828 1.03847,-0.34616 1.1704,-1.22585 0.37452,-2.49716 -0.6758,-1.0795 -1.05218,-3.03586 -0.8364,-4.34746 0.44996,-2.73503 -4.54937,-5.10671 -10.76458,-5.10671 -3.06566,0 -3.99757,-0.62388 -3.99757,-2.67624 0,-2.99916 -3.67167,-5.44176 -8.42345,-5.60377 -1.73483,-0.0591 -2.38805,-0.41669 -1.45163,-0.79454 3.99012,-1.61005 1.24589,-2.79198 -3.83296,-1.65083 -6.34102,1.42474 -8.08523,0.77355 -8.08523,-3.01854 0,-1.47759 -0.98333,-3.06387 -2.18519,-3.52507 -1.6865,-0.64716 -1.99946,-1.99991 -1.37141,-5.92756 0.58097,-3.63321 0.23197,-5.57192 -1.22001,-6.77695 -1.11858,-0.92834 -2.03525,-2.99194 -2.03703,-4.58578 -0.003,-2.88825 -8.50664,-16.48521 -13.9509,-22.30754 -1.57611,-1.68557 -3.99784,-3.06468 -5.3816,-3.06468 -1.38376,0 -3.21411,-1.53234 -4.06744,-3.4052 -1.11346,-2.44374 -2.62083,-3.4052 -5.33874,-3.4052 -2.08297,0 -4.13688,-0.56578 -4.56426,-1.25728 -0.42738,-0.69151 -2.73374,-1.68704 -5.12523,-2.21231 -4.43652,-0.97442 -9.85566,-6.41323 -9.89859,-9.93451 -0.0384,-3.152 -4.356,-5.22995 -7.18972,-3.46025 -3.68817,2.30329 -11.22218,0.75116 -11.22218,-2.31195 0,-1.3872 -1.8388,-4.61646 -4.08624,-7.17615 -2.24743,-2.55967 -4.08623,-5.52309 -4.08623,-6.58538 0,-2.99702 -2.9115,-5.20039 -6.87171,-5.20039 -4.22855,0 -7.19085,-2.91303 -10.13999,-9.97128 -1.17299,-2.80737 -3.64811,-5.79477 -5.50027,-6.63867 -2.37925,-1.08407 -3.36755,-2.62045 -3.36755,-5.23518 0,-4.77556 -3.1628,-7.32461 -8.88683,-7.16236 -2.87726,0.0816 -5.4242,-0.82543 -6.90131,-2.45763 -1.2876,-1.42277 -3.74226,-2.58687 -5.4548,-2.58687 -1.71254,0 -3.49252,-0.61294 -3.95552,-1.36208 -0.55329,-0.89524 11.79054,-1.36208 36.01471,-1.36208 l 36.85654,0 0,-23.61804 c 0,-12.98992 0.40319,-34.74914 0.89599,-48.35382 l 0.89597,-24.73579 148.25174,0 148.25172,0 0.0139,41.20291 c 0.01,27.35051 -1.85859,82.79372 -5.55563,164.91176 -3.06322,68.03988 -5.23398,124.58321 -4.8239,125.65184 0.95259,2.48239 4.17197,2.49377 6.64225,0.0234 1.1524,-1.1524 2.64148,-1.47331 3.72609,-0.80299 0.99361,0.6141 6.14974,0.79387 11.45805,0.39949 5.89812,-0.4382 12.03514,-0.0432 15.78085,1.01567 3.37114,0.953 8.05949,1.59538 10.41856,1.42752 2.35905,-0.16785 4.69374,0.34937 5.18819,1.14939 0.49443,0.80003 3.6407,1.45459 6.9917,1.45459 3.35099,0 8.29316,0.9194 10.98258,2.04312 6.08233,2.54135 5.61943,2.61617 6.32009,-1.02156 0.43253,-2.24563 0.63985,-1.89634 0.77578,1.30696 0.22101,5.2087 5.05762,10.23641 13.46576,13.99779 5.62027,2.51422 7.10132,4.49504 4.54309,6.0761 -0.68515,0.42346 -1.55617,-7e-5 -1.93558,-0.94117 -0.37942,-0.9411 -0.72885,-0.48521 -0.77652,1.01307 -0.13389,4.20789 1.904,6.41297 5.46004,5.90801 1.96193,-0.27859 3.42216,-1.53288 3.70659,-3.18385 0.25814,-1.49828 1.18381,-3.33709 2.05704,-4.08624 2.11889,-1.81776 4.99288,-10.2272 4.99288,-14.6094 0,-3.31972 0.30914,-3.47795 5.44832,-2.78863 6.70068,0.89874 6.91391,-0.66027 0.67174,-4.91129 -2.61689,-1.78214 -4.75798,-3.76548 -4.75798,-4.40743 0,-0.64195 -2.45174,-2.78968 -5.44832,-4.77271 -2.99657,-1.98304 -5.44832,-4.48479 -5.44832,-5.55943 0,-2.93413 5.256,-0.90385 10.89664,4.20918 8.97085,8.1317 15.90428,12.86267 24.68708,16.84498 4.83237,2.19111 11.92172,6.76867 15.75411,10.17238 3.83239,3.4037 7.6246,6.41264 8.42712,6.68651 0.80251,0.27388 1.11,1.82663 0.68329,3.45056 -0.54317,2.06713 -2.62363,3.4968 -6.93739,4.76728 -3.79797,1.11856 -6.56396,2.85968 -7.21055,4.53884 -1.08631,2.82107 -12.03321,13.56849 -27.05353,26.56055 -4.76352,4.12029 -9.46664,8.25761 -10.45137,9.19404 -0.98473,0.93643 -2.24483,1.7026 -2.80022,1.7026 -0.55539,0 -5.04295,3.87671 -9.97237,8.61492 -4.9294,4.7382 -12.94665,10.93749 -17.81608,13.77618 -12.50083,7.28752 -24.61896,17.14858 -38.81927,31.58898 -9.82477,9.99087 -14.19974,13.36115 -22.03482,16.97459 -8.28831,3.82247 -9.58388,4.86783 -8.513,6.86878 3.58685,6.70208 -0.96385,19.38586 -7.54815,21.03842 -4.64998,1.16707 -4.49443,5.47559 0.41504,11.49676 2.12436,2.6054 4.5734,6.81281 5.44228,9.3498 0.86888,2.53698 2.53807,5.31342 3.70931,6.16984 1.70853,1.24931 1.84435,2.30716 0.68707,5.35104 -0.79334,2.08665 -1.44244,6.80696 -1.44244,10.48958 l 0,6.69567 -5.92161,-0.81165 c -5.60356,-0.76805 -6.23165,-0.4985 -11.69385,5.01857 -3.17473,3.2066 -6.70986,7.26119 -7.85583,9.01018 -1.14599,1.74898 -3.23899,3.17997 -4.65111,3.17997 -2.04698,0 -2.56751,1.0093 -2.56751,4.97838 0,4.7367 -0.12095,4.86895 -2.49089,2.72416 -3.3109,-2.99633 -5.27104,-2.84225 -7.09045,0.55735 -1.18468,2.21361 -2.33251,2.62977 -5.39682,1.95674 -2.29072,-0.50313 -5.47418,-0.0692 -7.73725,1.05475 -2.63371,1.30797 -5.34709,1.57132 -8.61242,0.83588 -5.9273,-1.33496 -8.69223,1.47391 -7.70032,7.82271 0.36657,2.34633 0.0225,4.91011 -0.76473,5.69728 -2.15004,2.15004 -0.19386,5.70058 3.14077,5.70058 2.5178,0 2.68079,0.30471 1.14978,2.14947 -1.5264,1.83918 -1.14473,2.6497 2.64397,5.6148 l 4.42788,3.46534 -4.1396,2.51745 c -2.27679,1.38459 -6.23183,2.43879 -8.789,2.34265 -7.00073,-0.26319 -16.57459,7.99135 -17.74295,15.2979 -0.51157,3.19921 -2.41437,7.0663 -4.5969,9.34235 -3.291,3.43203 -4.51586,3.82951 -10.5344,3.4186 -3.74572,-0.25576 -8.27476,-0.54635 -10.06452,-0.6458 -2.25225,-0.12518 -4.76835,1.56601 -8.17248,5.49298 -2.7051,3.12059 -7.98304,7.31745 -11.72875,9.32634 -4.72811,2.53577 -7.57351,5.21426 -9.30622,8.76033 -1.37269,2.80929 -3.32025,5.1078 -4.3279,5.1078 -3.35915,0 -7.14837,6.68343 -8.09788,14.28301 -1.12495,9.00388 -2.1892,9.27567 -13.80504,3.5256 z"
       id="path3082"
       style="fill:#000000" />
    <g
       transform="matrix(0.83051584,0,0,0.83051584,173.72194,604.60324)"
       id="g3793">
      <g
         transform="translate(679.9742,309.5443)"
         id="g3360">
        <path
           d="m -639.997,-197.375 h 10.125 l 6.276,-24.705 c 0.541,-2.16 1.216,-5.738 1.891,-10.8 0.338,3.51 1.08,7.087 2.025,10.935 l 6.142,24.57 h 10.192 l 12.624,-49.072 h -9.046 l -7.154,28.485 c -0.945,3.713 -1.62,7.29 -1.891,10.732 -0.81,-5.4 -1.484,-9.045 -1.957,-11.002 l -6.817,-28.215 h -7.898 l -7.155,28.485 c -0.674,2.835 -1.688,6.278 -1.957,10.732 -0.81,-5.4 -1.484,-9.045 -1.957,-11.002 l -7.02,-28.215 h -9.045 l 12.622,49.072 z m 54.606,0 h 8.37 v -35.37 h -8.37 v 35.37 z m 0,-41.175 h 8.37 v -7.897 h -8.37 v 7.897 z m 17.28,41.175 h 8.235 v -11.408 l 4.05,-4.792 7.83,16.2 h 9.113 l -11.342,-22.815 10.464,-12.555 h -9.247 l -10.868,14.31 v -28.012 h -8.235 v 49.072 l 0,0 z m 33.817,0 h 8.37 v -35.37 h -8.37 v 35.37 z m 0,-41.175 h 8.37 v -7.897 h -8.37 v 7.897 z m 25.515,37.8 c 2.43,2.835 4.995,4.05 8.572,4.05 7.628,0 13.5,-6.952 13.5,-18.36 0,-11.003 -5.738,-18.36 -13.771,-18.36 -3.915,0 -6.613,1.35 -9.585,4.522 l -0.878,-3.847 h -6.075 v 48.195 h 8.235 c 0.002,0 0.002,-16.2 0.002,-16.2 z m -0.067,-5.738 v -16.807 c 2.092,-2.025 3.981,-3.105 6.275,-3.105 4.658,0 7.492,3.983 7.492,11.34 0,7.425 -2.902,11.542 -7.425,11.542 -2.292,0 -4.183,-1.012 -6.342,-2.97 z m 55.956,2.16 -6.143,-3.78 c -1.957,3.105 -4.05,4.522 -7.222,4.522 -4.927,0 -7.425,-3.375 -7.493,-10.058 h 21.195 c 0,-0.607 0.066,-1.215 0.066,-1.823 0,-11.475 -5.467,-17.955 -14.646,-17.955 -9.181,0 -14.852,6.683 -14.852,18.427 0,11.61 5.604,18.292 14.985,18.292 6.55,0.003 11.411,-2.63 14.11,-7.625 z m -20.723,-15.322 c 0.338,-4.792 2.7,-7.493 6.48,-7.493 3.98,0 6.413,2.768 6.413,7.493 h -12.893 z m 49.208,18.495 0.878,3.78 h 6.48 c -0.271,-3.78 -0.405,-6.548 -0.405,-8.235 v -40.837 h -8.235 v 17.077 c -2.43,-2.835 -4.994,-4.05 -8.57,-4.05 -7.628,0 -13.5,6.952 -13.5,18.36 0,11.002 5.805,18.36 13.838,18.36 3.979,0 7.016,-1.418 9.514,-4.455 z m -1.215,-5.603 c -2.092,2.025 -3.915,3.037 -6.21,3.037 -4.658,0 -7.492,-3.982 -7.492,-11.34 0,-7.425 2.902,-11.475 7.425,-11.475 2.295,0 4.118,1.012 6.277,2.97 0,0.001 0,16.808 0,16.808 z m 17.076,9.383 h 8.37 v -35.37 h -8.37 v 35.37 z m 0,-41.175 h 8.37 v -7.897 h -8.37 v 7.897 z m 35.64,41.175 h 7.965 c -0.338,-1.958 -0.54,-3.577 -0.54,-4.793 v -20.79 c 0,-6.48 -4.655,-10.463 -12.96,-10.463 -6.073,0 -10.598,2.295 -13.566,6.885 l 5.67,3.577 c 1.89,-2.632 4.521,-4.05 7.762,-4.05 3.241,0 4.995,1.485 4.995,4.05 v 2.767 c -13.5,1.688 -20.048,5.873 -20.048,13.77 0,5.872 3.51,9.45 9.45,9.45 3.778,0 7.288,-1.147 10.528,-3.51 0.002,0.002 0.744,3.107 0.744,3.107 z m -0.945,-17.213 v 7.56 c -2.563,2.498 -5.13,3.713 -7.762,3.713 -2.43,0 -3.779,-1.417 -3.779,-3.78 0,-4.185 3.712,-6.413 11.541,-7.493 z"
           id="path3362" />
      </g>
      <g
         transform="translate(679.9742,309.5443)"
         id="g3364">
        <path
           d="m -639.997,-197.375 h 10.125 l 6.276,-24.705 c 0.541,-2.16 1.216,-5.738 1.891,-10.8 0.338,3.51 1.08,7.087 2.025,10.935 l 6.142,24.57 h 10.192 l 12.624,-49.072 h -9.046 l -7.154,28.485 c -0.945,3.713 -1.62,7.29 -1.891,10.732 -0.81,-5.4 -1.484,-9.045 -1.957,-11.002 l -6.817,-28.215 h -7.898 l -7.155,28.485 c -0.674,2.835 -1.688,6.278 -1.957,10.732 -0.81,-5.4 -1.484,-9.045 -1.957,-11.002 l -7.02,-28.215 h -9.045 l 12.622,49.072 z m 54.606,0 h 8.37 v -35.37 h -8.37 v 35.37 z m 0,-41.175 h 8.37 v -7.897 h -8.37 v 7.897 z m 17.28,41.175 h 8.235 v -11.408 l 4.05,-4.792 7.83,16.2 h 9.113 l -11.342,-22.815 10.464,-12.555 h -9.247 l -10.868,14.31 v -28.012 h -8.235 v 49.072 l 0,0 z m 33.817,0 h 8.37 v -35.37 h -8.37 v 35.37 z m 0,-41.175 h 8.37 v -7.897 h -8.37 v 7.897 z m 25.515,37.8 c 2.43,2.835 4.995,4.05 8.572,4.05 7.628,0 13.5,-6.952 13.5,-18.36 0,-11.003 -5.738,-18.36 -13.771,-18.36 -3.915,0 -6.613,1.35 -9.585,4.522 l -0.878,-3.847 h -6.075 v 48.195 h 8.235 c 0.002,0 0.002,-16.2 0.002,-16.2 z m -0.067,-5.738 v -16.807 c 2.092,-2.025 3.981,-3.105 6.275,-3.105 4.658,0 7.492,3.983 7.492,11.34 0,7.425 -2.902,11.542 -7.425,11.542 -2.292,0 -4.183,-1.012 -6.342,-2.97 z m 55.956,2.16 -6.143,-3.78 c -1.957,3.105 -4.05,4.522 -7.222,4.522 -4.927,0 -7.425,-3.375 -7.493,-10.058 h 21.195 c 0,-0.607 0.066,-1.215 0.066,-1.823 0,-11.475 -5.467,-17.955 -14.646,-17.955 -9.181,0 -14.852,6.683 -14.852,18.427 0,11.61 5.604,18.292 14.985,18.292 6.55,0.003 11.411,-2.63 14.11,-7.625 z m -20.723,-15.322 c 0.338,-4.792 2.7,-7.493 6.48,-7.493 3.98,0 6.413,2.768 6.413,7.493 h -12.893 z m 49.208,18.495 0.878,3.78 h 6.48 c -0.271,-3.78 -0.405,-6.548 -0.405,-8.235 v -40.837 h -8.235 v 17.077 c -2.43,-2.835 -4.994,-4.05 -8.57,-4.05 -7.628,0 -13.5,6.952 -13.5,18.36 0,11.002 5.805,18.36 13.838,18.36 3.979,0 7.016,-1.418 9.514,-4.455 z m -1.215,-5.603 c -2.092,2.025 -3.915,3.037 -6.21,3.037 -4.658,0 -7.492,-3.982 -7.492,-11.34 0,-7.425 2.902,-11.475 7.425,-11.475 2.295,0 4.118,1.012 6.277,2.97 0,0.001 0,16.808 0,16.808 z m 17.076,9.383 h 8.37 v -35.37 h -8.37 v 35.37 z m 0,-41.175 h 8.37 v -7.897 h -8.37 v 7.897 z m 35.64,41.175 h 7.965 c -0.338,-1.958 -0.54,-3.577 -0.54,-4.793 v -20.79 c 0,-6.48 -4.655,-10.463 -12.96,-10.463 -6.073,0 -10.598,2.295 -13.566,6.885 l 5.67,3.577 c 1.89,-2.632 4.521,-4.05 7.762,-4.05 3.241,0 4.995,1.485 4.995,4.05 v 2.767 c -13.5,1.688 -20.048,5.873 -20.048,13.77 0,5.872 3.51,9.45 9.45,9.45 3.778,0 7.288,-1.147 10.528,-3.51 0.002,0.002 0.744,3.107 0.744,3.107 z m -0.945,-17.213 v 7.56 c -2.563,2.498 -5.13,3.713 -7.762,3.713 -2.43,0 -3.779,-1.417 -3.779,-3.78 0,-4.185 3.712,-6.413 11.541,-7.493 z"
           id="path3366"
           style="stroke:#010101;stroke-width:0.30000001" />
      </g>
      <g
         id="g3408">
        <path
           d="M 35.493,336.796 H 71.2 V 186.431 c -14.22,0 -27.807,0.948 -39.815,2.528 V 162.1 c 20.855,-4.108 38.867,-10.112 53.719,-18.644 h 26.228 v 193.34 h 35.708 v 32.231 H 35.493 v -32.231 z"
           id="path3410"
           style="stroke:#000000;stroke-width:0.5" />
      </g>
      <g
         id="g3412">
        <path
           d="m 236.527,142.456 c 54.035,0 82.475,37.131 82.475,115.182 0,78.051 -28.439,114.182 -82.475,114.182 -54.036,0 -82.475,-36.131 -82.475,-114.182 0,-78.051 28.44,-115.182 82.475,-115.182 z m 0,193.972 c 27.176,0 41.396,-23.808 41.396,-78.79 0,-54.983 -14.22,-80.106 -41.396,-80.106 -26.859,0 -41.711,25.123 -41.711,80.106 0.001,54.983 14.852,78.79 41.711,78.79 z"
           id="path3414"
           style="stroke:#000000;stroke-width:0.5" />
      </g>
      <g
         transform="translate(679.9742,309.5443)"
         id="g3420">
        <path
           d="m -639.997,-197.375 h 10.125 l 6.276,-24.705 c 0.541,-2.16 1.216,-5.738 1.891,-10.8 0.338,3.51 1.08,7.087 2.025,10.935 l 6.142,24.57 h 10.192 l 12.624,-49.072 h -9.046 l -7.154,28.485 c -0.945,3.713 -1.62,7.29 -1.891,10.732 -0.81,-5.4 -1.484,-9.045 -1.957,-11.002 l -6.817,-28.215 h -7.898 l -7.155,28.485 c -0.674,2.835 -1.688,6.278 -1.957,10.732 -0.81,-5.4 -1.484,-9.045 -1.957,-11.002 l -7.02,-28.215 h -9.045 l 12.622,49.072 z m 54.606,0 h 8.37 v -35.37 h -8.37 v 35.37 z m 0,-41.175 h 8.37 v -7.897 h -8.37 v 7.897 z m 17.28,41.175 h 8.235 v -11.408 l 4.05,-4.792 7.83,16.2 h 9.113 l -11.342,-22.815 10.464,-12.555 h -9.247 l -10.868,14.31 v -28.012 h -8.235 v 49.072 l 0,0 z m 33.818,0 h 8.37 v -35.37 h -8.37 v 35.37 z m 0,-41.175 h 8.37 v -7.897 h -8.37 v 7.897 z m 25.514,37.8 c 2.43,2.835 4.995,4.05 8.572,4.05 7.628,0 13.5,-6.952 13.5,-18.36 0,-11.003 -5.738,-18.36 -13.771,-18.36 -3.915,0 -6.613,1.35 -9.585,4.522 l -0.878,-3.847 h -6.075 v 48.195 h 8.235 c 0.002,0 0.002,-16.2 0.002,-16.2 z m -0.067,-5.738 v -16.807 c 2.092,-2.025 3.981,-3.105 6.275,-3.105 4.658,0 7.492,3.983 7.492,11.34 0,7.425 -2.902,11.542 -7.425,11.542 -2.292,0 -4.183,-1.012 -6.342,-2.97 z m 55.956,2.16 -6.143,-3.78 c -1.957,3.105 -4.05,4.522 -7.222,4.522 -4.927,0 -7.425,-3.375 -7.493,-10.058 h 21.195 c 0,-0.607 0.066,-1.215 0.066,-1.823 0,-11.475 -5.467,-17.955 -14.646,-17.955 -9.181,0 -14.852,6.683 -14.852,18.427 0,11.61 5.604,18.292 14.985,18.292 6.55,0.003 11.411,-2.63 14.11,-7.625 z m -20.723,-15.322 c 0.338,-4.792 2.7,-7.493 6.48,-7.493 3.98,0 6.413,2.768 6.413,7.493 h -12.893 z m 49.208,18.495 0.878,3.78 h 6.48 c -0.271,-3.78 -0.405,-6.548 -0.405,-8.235 v -40.837 h -8.235 v 17.077 c -2.43,-2.835 -4.994,-4.05 -8.57,-4.05 -7.628,0 -13.5,6.952 -13.5,18.36 0,11.002 5.805,18.36 13.838,18.36 3.979,0 7.016,-1.418 9.514,-4.455 z m -1.215,-5.603 c -2.092,2.025 -3.915,3.037 -6.21,3.037 -4.658,0 -7.492,-3.982 -7.492,-11.34 0,-7.425 2.902,-11.475 7.425,-11.475 2.295,0 4.118,1.012 6.277,2.97 0,0.001 0,16.808 0,16.808 z m 17.077,9.383 h 8.37 v -35.37 h -8.37 v 35.37 z m 0,-41.175 h 8.37 v -7.897 h -8.37 v 7.897 z m 35.639,41.175 h 7.965 c -0.338,-1.958 -0.54,-3.577 -0.54,-4.793 v -20.79 c 0,-6.48 -4.655,-10.463 -12.96,-10.463 -6.073,0 -10.598,2.295 -13.566,6.885 l 5.67,3.577 c 1.89,-2.632 4.521,-4.05 7.762,-4.05 3.241,0 4.995,1.485 4.995,4.05 v 2.767 c -13.5,1.688 -20.048,5.873 -20.048,13.77 0,5.872 3.51,9.45 9.45,9.45 3.778,0 7.288,-1.147 10.528,-3.51 0.002,0.002 0.744,3.107 0.744,3.107 z m -0.945,-17.213 v 7.56 c -2.563,2.498 -5.13,3.713 -7.762,3.713 -2.43,0 -3.779,-1.417 -3.779,-3.78 0,-4.185 3.712,-6.413 11.541,-7.493 z"
           id="path3422" />
      </g>
      <g
         transform="translate(679.9742,309.5443)"
         id="g3424">
        <path
           d="m -639.997,-197.375 h 10.125 l 6.276,-24.705 c 0.541,-2.16 1.216,-5.738 1.891,-10.8 0.338,3.51 1.08,7.087 2.025,10.935 l 6.142,24.57 h 10.192 l 12.624,-49.072 h -9.046 l -7.154,28.485 c -0.945,3.713 -1.62,7.29 -1.891,10.732 -0.81,-5.4 -1.484,-9.045 -1.957,-11.002 l -6.817,-28.215 h -7.898 l -7.155,28.485 c -0.674,2.835 -1.688,6.278 -1.957,10.732 -0.81,-5.4 -1.484,-9.045 -1.957,-11.002 l -7.02,-28.215 h -9.045 l 12.622,49.072 z m 54.606,0 h 8.37 v -35.37 h -8.37 v 35.37 z m 0,-41.175 h 8.37 v -7.897 h -8.37 v 7.897 z m 17.28,41.175 h 8.235 v -11.408 l 4.05,-4.792 7.83,16.2 h 9.113 l -11.342,-22.815 10.464,-12.555 h -9.247 l -10.868,14.31 v -28.012 h -8.235 v 49.072 l 0,0 z m 33.818,0 h 8.37 v -35.37 h -8.37 v 35.37 z m 0,-41.175 h 8.37 v -7.897 h -8.37 v 7.897 z m 25.514,37.8 c 2.43,2.835 4.995,4.05 8.572,4.05 7.628,0 13.5,-6.952 13.5,-18.36 0,-11.003 -5.738,-18.36 -13.771,-18.36 -3.915,0 -6.613,1.35 -9.585,4.522 l -0.878,-3.847 h -6.075 v 48.195 h 8.235 c 0.002,0 0.002,-16.2 0.002,-16.2 z m -0.067,-5.738 v -16.807 c 2.092,-2.025 3.981,-3.105 6.275,-3.105 4.658,0 7.492,3.983 7.492,11.34 0,7.425 -2.902,11.542 -7.425,11.542 -2.292,0 -4.183,-1.012 -6.342,-2.97 z m 55.956,2.16 -6.143,-3.78 c -1.957,3.105 -4.05,4.522 -7.222,4.522 -4.927,0 -7.425,-3.375 -7.493,-10.058 h 21.195 c 0,-0.607 0.066,-1.215 0.066,-1.823 0,-11.475 -5.467,-17.955 -14.646,-17.955 -9.181,0 -14.852,6.683 -14.852,18.427 0,11.61 5.604,18.292 14.985,18.292 6.55,0.003 11.411,-2.63 14.11,-7.625 z m -20.723,-15.322 c 0.338,-4.792 2.7,-7.493 6.48,-7.493 3.98,0 6.413,2.768 6.413,7.493 h -12.893 z m 49.208,18.495 0.878,3.78 h 6.48 c -0.271,-3.78 -0.405,-6.548 -0.405,-8.235 v -40.837 h -8.235 v 17.077 c -2.43,-2.835 -4.994,-4.05 -8.57,-4.05 -7.628,0 -13.5,6.952 -13.5,18.36 0,11.002 5.805,18.36 13.838,18.36 3.979,0 7.016,-1.418 9.514,-4.455 z m -1.215,-5.603 c -2.092,2.025 -3.915,3.037 -6.21,3.037 -4.658,0 -7.492,-3.982 -7.492,-11.34 0,-7.425 2.902,-11.475 7.425,-11.475 2.295,0 4.118,1.012 6.277,2.97 0,0.001 0,16.808 0,16.808 z m 17.077,9.383 h 8.37 v -35.37 h -8.37 v 35.37 z m 0,-41.175 h 8.37 v -7.897 h -8.37 v 7.897 z m 35.639,41.175 h 7.965 c -0.338,-1.958 -0.54,-3.577 -0.54,-4.793 v -20.79 c 0,-6.48 -4.655,-10.463 -12.96,-10.463 -6.073,0 -10.598,2.295 -13.566,6.885 l 5.67,3.577 c 1.89,-2.632 4.521,-4.05 7.762,-4.05 3.241,0 4.995,1.485 4.995,4.05 v 2.767 c -13.5,1.688 -20.048,5.873 -20.048,13.77 0,5.872 3.51,9.45 9.45,9.45 3.778,0 7.288,-1.147 10.528,-3.51 0.002,0.002 0.744,3.107 0.744,3.107 z m -0.945,-17.213 v 7.56 c -2.563,2.498 -5.13,3.713 -7.762,3.713 -2.43,0 -3.779,-1.417 -3.779,-3.78 0,-4.185 3.712,-6.413 11.541,-7.493 z"
           id="path3426"
           style="fill:#ffffff" />
      </g>
      <g
         id="g3468">
        <path
           d="M 35.493,336.796 H 71.2 V 186.431 c -14.22,0 -27.807,0.948 -39.815,2.528 V 162.1 c 20.855,-4.108 38.867,-10.112 53.719,-18.644 h 26.228 v 193.34 h 35.708 v 32.231 H 35.493 v -32.231 z"
           id="path3470"
           style="fill:#ffffff;stroke:#ffffff;stroke-width:0.5" />
      </g>
      <g
         id="g3472">
        <path
           d="m 236.528,142.456 c 54.035,0 82.475,37.131 82.475,115.182 0,78.051 -28.44,114.182 -82.475,114.182 -54.035,0 -82.475,-36.131 -82.475,-114.182 0,-78.051 28.439,-115.182 82.475,-115.182 z m 0,193.972 c 27.176,0 41.396,-23.808 41.396,-78.79 0,-54.983 -14.22,-80.106 -41.396,-80.106 -26.859,0 -41.711,25.123 -41.711,80.106 0,54.983 14.851,78.79 41.711,78.79 z"
           id="path3474"
           style="fill:#ffffff;stroke:#ffffff;stroke-width:0.5" />
      </g>
      <rect
         width="287.073"
         height="10.78"
         x="28.919996"
         y="10.521982"
         id="rect3789"
         style="fill:#ffffff;fill-opacity:1;stroke:none" />
      <rect
         width="287.073"
         height="10.78"
         x="28.919996"
         y="28.52198"
         id="rect3791"
         style="fill:#ffffff;fill-opacity:1;stroke:none" />
    </g>
  </g>
</svg>
