<?xml version="1.0" encoding="UTF-8" standalone="no"?>
<!-- Created with Inkscape (http://www.inkscape.org/) -->

<svg
   xmlns:dc="http://purl.org/dc/elements/1.1/"
   xmlns:cc="http://creativecommons.org/ns#"
   xmlns:rdf="http://www.w3.org/1999/02/22-rdf-syntax-ns#"
   xmlns:svg="http://www.w3.org/2000/svg"
   xmlns="http://www.w3.org/2000/svg"
   xmlns:xlink="http://www.w3.org/1999/xlink"
   xmlns:sodipodi="http://sodipodi.sourceforge.net/DTD/sodipodi-0.dtd"
   xmlns:inkscape="http://www.inkscape.org/namespaces/inkscape"
   width="765"
   height="990"
   id="svg2"
   version="1.1"
   inkscape:version="0.48.2 r9819"
   sodipodi:docname="SecretosTipograficos.svg"
   inkscape:export-filename="/home/tian/Pictures/ArtesLibres/posters-libres/eventos/taller-tipografias/SecretosTipograficos_300.pdf.png"
   inkscape:export-xdpi="300"
   inkscape:export-ydpi="300">
  <defs
     id="defs4">
    <clipPath
       id="clipPath3144"
       clipPathUnits="userSpaceOnUse">
      <path
         id="path3146"
         d="m 0,0 5099,0 0,1315.71 -5099,0 L 0,0 z" />
    </clipPath>
  </defs>
  <sodipodi:namedview
     id="base"
     pagecolor="#ffffff"
     bordercolor="#666666"
     borderopacity="1.0"
     inkscape:pageopacity="1"
     inkscape:pageshadow="2"
     inkscape:zoom="0.25533483"
     inkscape:cx="648.44466"
     inkscape:cy="245.01407"
     inkscape:document-units="px"
     inkscape:current-layer="layer1"
     showgrid="true"
     showguides="true"
     inkscape:guide-bbox="true"
     inkscape:window-width="1214"
     inkscape:window-height="742"
     inkscape:window-x="64"
     inkscape:window-y="0"
     inkscape:window-maximized="1">
    <sodipodi:guide
       orientation="1,0"
       position="382.5,920"
       id="guide2999" />
    <inkscape:grid
       type="xygrid"
       id="grid3001"
       empspacing="6"
       visible="true"
       enabled="true"
       snapvisiblegridlinesonly="true"
       spacingx="0.25in"
       units="in"
       spacingy="0.25in" />
  </sodipodi:namedview>
  <metadata
     id="metadata7">
    <rdf:RDF>
      <cc:Work
         rdf:about="">
        <dc:format>image/svg+xml</dc:format>
        <dc:type
           rdf:resource="http://purl.org/dc/dcmitype/StillImage" />
        <dc:title></dc:title>
      </cc:Work>
    </rdf:RDF>
  </metadata>
  <g
     inkscape:label="Layer 1"
     inkscape:groupmode="layer"
     id="layer1"
     transform="translate(0,-62.362183)">
    <text
       xml:space="preserve"
       style="font-size:67.90753937px;font-style:normal;font-variant:normal;font-weight:300;font-stretch:normal;text-align:center;line-height:125%;letter-spacing:0px;word-spacing:0px;text-anchor:middle;fill:#000000;fill-opacity:1;stroke:none;font-family:Raleway;-inkscape-font-specification:Raleway Light"
       x="382.5"
       y="219.86218"
       id="text2985"
       sodipodi:linespacing="125%"><tspan
         sodipodi:role="line"
         id="tspan2987"
         x="382.5"
         y="219.86218"
         style="font-size:90.1897049px">SECRETOS</tspan></text>
    <text
       xml:space="preserve"
       style="font-size:63.72549057px;font-style:normal;font-variant:normal;font-weight:300;font-stretch:normal;text-align:center;line-height:125%;letter-spacing:0px;word-spacing:0px;text-anchor:middle;fill:#000000;fill-opacity:1;stroke:none;font-family:Raleway;-inkscape-font-specification:Raleway Light"
       x="382.5"
       y="309.86218"
       id="text2989"
       sodipodi:linespacing="125%"><tspan
         sodipodi:role="line"
         id="tspan2991"
         x="382.5"
         y="309.86218"
         style="font-size:84.63541412px;font-style:normal;font-variant:normal;font-weight:bold;font-stretch:normal;text-align:center;text-anchor:middle;font-family:Lobster Two;-inkscape-font-specification:Lobster Two Bold">TIPOGRÁFICOS</tspan></text>
    <text
       sodipodi:linespacing="125%"
       id="text2993"
       y="399.86218"
       x="382.5"
       style="font-size:90.43478394px;font-style:normal;font-variant:normal;font-weight:300;font-stretch:normal;line-height:125%;letter-spacing:0px;word-spacing:0px;fill:#000000;fill-opacity:1;stroke:none;font-family:Raleway;-inkscape-font-specification:Raleway Light"
       xml:space="preserve"><tspan
         style="font-size:90.43478394px;font-style:normal;font-variant:normal;font-weight:bold;font-stretch:normal;text-align:center;text-anchor:middle;font-family:Paytone One;-inkscape-font-specification:Paytone One Bold"
         y="399.86218"
         x="382.5"
         id="tspan2995"
         sodipodi:role="line">REVELADOS</tspan></text>
    <text
       xml:space="preserve"
       style="font-size:62.5px;font-style:normal;font-variant:normal;font-weight:900;font-stretch:normal;text-align:start;line-height:125%;letter-spacing:0px;word-spacing:0px;writing-mode:lr-tb;text-anchor:start;fill:#000000;fill-opacity:1;stroke:none;font-family:Iwona Cond Heavy;-inkscape-font-specification:'Iwona Cond Heavy, Heavy'"
       x="89.6875"
       y="489.54968"
       id="text2998"
       sodipodi:linespacing="125%"><tspan
         sodipodi:role="line"
         id="tspan3000"
         x="89.6875"
         y="489.54968">TEC z4</tspan></text>
    <text
       sodipodi:linespacing="125%"
       id="text3002"
       y="579.54968"
       x="89.6875"
       style="font-size:62.5px;font-style:normal;font-variant:normal;font-weight:900;font-stretch:normal;text-align:start;line-height:125%;letter-spacing:0px;word-spacing:0px;writing-mode:lr-tb;text-anchor:start;fill:#000000;fill-opacity:1;stroke:none;font-family:Iwona Cond Heavy;-inkscape-font-specification:'Iwona Cond Heavy, Heavy'"
       xml:space="preserve"><tspan
         y="579.54968"
         x="89.6875"
         id="tspan3004"
         sodipodi:role="line">USAC</tspan></text>
    <text
       xml:space="preserve"
       style="font-size:64px;font-style:normal;font-variant:normal;font-weight:900;font-stretch:normal;text-align:start;line-height:125%;letter-spacing:0px;word-spacing:0px;writing-mode:lr-tb;text-anchor:start;fill:#000000;fill-opacity:1;stroke:none;font-family:Iwona Cond Heavy;-inkscape-font-specification:'Iwona Cond Heavy, Heavy'"
       x="89.6875"
       y="669.54968"
       id="text3006"
       sodipodi:linespacing="125%"><tspan
         sodipodi:role="line"
         id="tspan3008"
         x="89.6875"
         y="669.54968"
         style="font-size:62.5px">URL</tspan></text>
    <text
       sodipodi:linespacing="125%"
       id="text3010"
       y="489.54968"
       x="674.6875"
       style="font-size:64px;font-style:normal;font-variant:normal;font-weight:900;font-stretch:normal;text-align:start;line-height:125%;letter-spacing:0px;word-spacing:0px;writing-mode:lr-tb;text-anchor:start;fill:#000000;fill-opacity:1;stroke:none;font-family:Iwona Cond Heavy;-inkscape-font-specification:'Iwona Cond Heavy, Heavy'"
       xml:space="preserve"><tspan
         y="489.54968"
         x="674.6875"
         id="tspan3012"
         sodipodi:role="line"
         style="font-size:62.5px;text-align:end;text-anchor:end">Sábado 4</tspan></text>
    <text
       xml:space="preserve"
       style="font-size:64px;font-style:normal;font-variant:normal;font-weight:900;font-stretch:normal;text-align:start;line-height:125%;letter-spacing:0px;word-spacing:0px;writing-mode:lr-tb;text-anchor:start;fill:#000000;fill-opacity:1;stroke:none;font-family:Iwona Cond Heavy;-inkscape-font-specification:'Iwona Cond Heavy, Heavy'"
       x="674.6875"
       y="579.54968"
       id="text3014"
       sodipodi:linespacing="125%"><tspan
         style="font-size:62.5px;text-align:end;text-anchor:end"
         sodipodi:role="line"
         id="tspan3016"
         x="674.6875"
         y="579.54968">Lunes 6</tspan></text>
    <text
       sodipodi:linespacing="125%"
       id="text3018"
       y="669.54968"
       x="674.6875"
       style="font-size:64px;font-style:normal;font-variant:normal;font-weight:900;font-stretch:normal;text-align:start;line-height:125%;letter-spacing:0px;word-spacing:0px;writing-mode:lr-tb;text-anchor:start;fill:#000000;fill-opacity:1;stroke:none;font-family:Iwona Cond Heavy;-inkscape-font-specification:'Iwona Cond Heavy, Heavy'"
       xml:space="preserve"><tspan
         y="669.54968"
         x="674.6875"
         id="tspan3020"
         sodipodi:role="line"
         style="font-size:62.5px;text-align:end;text-anchor:end">Martes 7</tspan></text>
    <text
       xml:space="preserve"
       style="font-size:31.25px;font-style:normal;font-variant:normal;font-weight:normal;font-stretch:normal;text-align:end;line-height:125%;letter-spacing:0px;word-spacing:0px;writing-mode:lr-tb;text-anchor:end;fill:#333333;fill-opacity:1;stroke:none;font-family:Iwona;-inkscape-font-specification:Iwona"
       x="674.6875"
       y="512.04968"
       id="text3022"
       sodipodi:linespacing="125%"><tspan
         sodipodi:role="line"
         id="tspan3024"
         x="674.6875"
         y="512.04968"
         style="font-size:31.25px;font-style:normal;font-variant:normal;font-weight:normal;font-stretch:normal;text-align:end;line-height:125%;writing-mode:lr-tb;text-anchor:end;fill:#333333;font-family:Iwona;-inkscape-font-specification:Iwona">15:30-17:30</tspan></text>
    <text
       sodipodi:linespacing="125%"
       id="text3026"
       y="692.04968"
       x="674.6875"
       style="font-size:31.25px;font-style:normal;font-variant:normal;font-weight:normal;font-stretch:normal;text-align:end;line-height:125%;letter-spacing:0px;word-spacing:0px;writing-mode:lr-tb;text-anchor:end;fill:#333333;fill-opacity:1;stroke:none;font-family:Iwona;-inkscape-font-specification:Iwona"
       xml:space="preserve"><tspan
         style="font-size:31.25px;font-style:normal;font-variant:normal;font-weight:normal;font-stretch:normal;text-align:end;line-height:125%;writing-mode:lr-tb;text-anchor:end;fill:#333333;font-family:Iwona;-inkscape-font-specification:Iwona"
         y="692.04968"
         x="674.6875"
         id="tspan3028"
         sodipodi:role="line">17:30-19:00</tspan></text>
    <text
       xml:space="preserve"
       style="font-size:31.25px;font-style:normal;font-variant:normal;font-weight:normal;font-stretch:normal;text-align:end;line-height:125%;letter-spacing:0px;word-spacing:0px;writing-mode:lr-tb;text-anchor:end;fill:#333333;fill-opacity:1;stroke:none;font-family:Iwona;-inkscape-font-specification:Iwona"
       x="674.6875"
       y="602.04968"
       id="text3030"
       sodipodi:linespacing="125%"><tspan
         sodipodi:role="line"
         id="tspan3032"
         x="674.6875"
         y="602.04968"
         style="font-size:31.25px;font-style:normal;font-variant:normal;font-weight:normal;font-stretch:normal;text-align:end;line-height:125%;writing-mode:lr-tb;text-anchor:end;fill:#333333;font-family:Iwona;-inkscape-font-specification:Iwona">17:00-19:30</tspan></text>
    <text
       sodipodi:linespacing="125%"
       id="text3016"
       y="602.04968"
       x="89.6875"
       style="font-size:31.25px;font-style:normal;font-variant:normal;font-weight:normal;font-stretch:normal;text-align:start;line-height:125%;letter-spacing:0px;word-spacing:0px;writing-mode:lr-tb;text-anchor:start;fill:#333333;fill-opacity:1;stroke:none;font-family:Iwona;-inkscape-font-specification:Iwona"
       xml:space="preserve"><tspan
         sodipodi:role="line"
         id="tspan3021"
         x="89.6875"
         y="602.04968"
         style="-inkscape-font-specification:Cantarell;font-family:Cantarell;font-weight:normal;font-style:normal;font-stretch:normal;font-variant:normal">Facultad de Arquitectura</tspan></text>
    <text
       xml:space="preserve"
       style="font-size:31.25px;font-style:normal;font-variant:normal;font-weight:normal;font-stretch:normal;text-align:start;line-height:125%;letter-spacing:0px;word-spacing:0px;writing-mode:lr-tb;text-anchor:start;fill:#333333;fill-opacity:1;stroke:none;font-family:Iwona;-inkscape-font-specification:Iwona"
       x="89.6875"
       y="692.04968"
       id="text3023"
       sodipodi:linespacing="125%"><tspan
         y="692.04968"
         x="89.6875"
         id="tspan3025"
         sodipodi:role="line"
         style="-inkscape-font-specification:Cantarell;font-family:Cantarell;font-weight:normal;font-style:normal;font-stretch:normal;font-variant:normal">Auditorium</tspan></text>
    <flowRoot
       xml:space="preserve"
       id="flowRoot3043"
       style="font-size:23px;font-style:normal;font-variant:normal;font-weight:normal;font-stretch:normal;text-align:start;line-height:114.99999762%;letter-spacing:0px;word-spacing:0px;writing-mode:lr-tb;text-anchor:start;fill:#000000;fill-opacity:1;stroke:none;font-family:Lato;-inkscape-font-specification:Lato"
       transform="translate(0,23.242109)"><flowRegion
         id="flowRegion3045"><rect
           id="rect3047"
           width="180"
           height="135"
           x="90"
           y="720"
           style="font-size:23px;font-style:normal;font-variant:normal;font-weight:normal;font-stretch:normal;text-align:start;line-height:114.99999762%;writing-mode:lr-tb;text-anchor:start;font-family:Lato;-inkscape-font-specification:Lato" /></flowRegion><flowPara
         id="flowPara3061"
         style="font-size:16px;line-height:120.00000477%">Las tipografías privativas no se pueden compartir, y cuando están mal, no se pueden componer. </flowPara><flowPara
         style="font-size:16px;line-height:120.00000477%"
         id="flowPara3104">Hacer tu propia tipografía es un arte oscuro y envuelto en misterio. </flowPara><flowPara
         style="font-size:16px;line-height:120.00000477%"
         id="flowPara3106" /></flowRoot>    <flowRoot
       transform="translate(194.5,24.070182)"
       style="font-size:23px;font-style:normal;font-variant:normal;font-weight:normal;font-stretch:normal;text-align:start;line-height:114.99999762%;letter-spacing:0px;word-spacing:0px;writing-mode:lr-tb;text-anchor:start;fill:#000000;fill-opacity:1;stroke:none;font-family:Lato;-inkscape-font-specification:Lato"
       id="flowRoot3063"
       xml:space="preserve"><flowRegion
         id="flowRegion3065"><rect
           style="font-size:23px;font-style:normal;font-variant:normal;font-weight:normal;font-stretch:normal;text-align:start;line-height:114.99999762%;writing-mode:lr-tb;text-anchor:start;font-family:Lato;-inkscape-font-specification:Lato"
           y="720"
           x="90"
           height="131.12007"
           width="202.5"
           id="rect3067" /></flowRegion><flowPara
         style="font-size:16px;line-height:120.00000477%"
         id="flowPara3075">Tiempo atrás el software solía ser igual, pero el movimiento del software libre liberó el conocimiento, las herramientas y el negocio del software.</flowPara></flowRoot>    <flowRoot
       xml:space="preserve"
       id="flowRoot3077"
       style="font-size:23px;font-style:normal;font-variant:normal;font-weight:normal;font-stretch:normal;text-align:start;line-height:114.99999762%;letter-spacing:0px;word-spacing:0px;writing-mode:lr-tb;text-anchor:start;fill:#000000;fill-opacity:1;stroke:none;font-family:Lato;-inkscape-font-specification:Lato"
       transform="translate(405,24.070182)"><flowRegion
         id="flowRegion3079"><rect
           id="rect3081"
           width="180"
           height="135"
           x="90"
           y="720"
           style="font-size:23px;font-style:normal;font-variant:normal;font-weight:normal;font-stretch:normal;text-align:start;line-height:114.99999762%;writing-mode:lr-tb;text-anchor:start;font-family:Lato;-inkscape-font-specification:Lato" /></flowRegion><flowPara
         id="flowPara3089"
         style="font-size:16px;line-height:120.00000477%">Ahora es tiempo de liberar la tipografía. Dave Crossland revelara como diseñar tipografías, utilizando software libre y haciendo dinero con ellas.</flowPara></flowRoot>    <image
       y="939.86218"
       x="270.5"
       id="image3253"
       xlink:href="file:///home/tian/Pictures/ArtesLibres/posters-libres/eventos/taller-tipografias/royal.png"
       height="67.5"
       width="169.11604" />
    <g
       style="overflow:visible"
       id="g4103"
       transform="matrix(0.11524985,0,0,0.11524985,44.99911,941.09921)">
      <path
         style="font-size:22px;font-style:normal;font-variant:normal;font-weight:normal;font-stretch:normal;text-align:start;line-height:100%;writing-mode:lr-tb;text-anchor:start;fill:#000000;fill-opacity:1;stroke:none;font-family:Molengo;-inkscape-font-specification:Molengo"
         id="flowRoot2455"
         transform="matrix(2.353578,0,0,2.353578,-284.97234,-417.69933)"
         d="m 765.7666,321.21593 c -1e-5,-19.13599 5.1953,-34.46214 15.58594,-45.97851 10.47718,-11.51616 24.63439,-17.27429 42.47168,-17.27442 10.82349,1.3e-4 18.91951,0.9093 24.28808,2.72754 5.3684,1.81848 11.47288,5.23872 18.31348,10.26074 l -8.05273,14.02735 c -5.10882,-3.72321 -10.00107,-6.36416 -14.67676,-7.92286 -4.67586,-1.64507 -9.78458,-2.42437 -15.32617,-2.33789 -12.64199,1.1e-4 -22.77284,4.54601 -30.39258,13.6377 -7.53324,9.09188 -11.29983,20.04532 -11.29981,32.86035 -2e-5,12.81515 3.76657,23.76859 11.29981,32.86035 7.61974,9.09182 17.75059,13.63771 30.39258,13.6377 5.54159,0.0866 10.65031,-0.6494 15.32617,-2.20801 4.67569,-1.64516 9.56794,-4.32941 14.67676,-8.05273 l 8.05273,14.02734 c -6.8406,5.02214 -12.94508,8.44238 -18.31348,10.26074 -5.36857,1.81836 -13.46459,2.72754 -24.28808,2.72754 -17.83729,0 -31.9945,-5.75813 -42.47168,-17.27441 C 770.9619,355.6782 765.76659,340.35204 765.7666,321.21593 m 55.2002,-63.25293 0,0 m 37.27636,16.625 0,0 m -37.27636,107.54297 0,0 m 3.89648,0 0,0"
         inkscape:connector-curvature="0" />
      <path
         style="font-size:22px;font-style:normal;font-variant:normal;font-weight:normal;font-stretch:normal;text-align:start;line-height:100%;writing-mode:lr-tb;text-anchor:start;fill:#114c1d;fill-opacity:1;stroke:none;font-family:Molengo;-inkscape-font-specification:Molengo"
         id="flowRoot2437"
         transform="matrix(2.353578,0,0,2.4843612,-1829.4313,-467.98139)"
         d="m 800.05566,190.55382 0,158.32715 c -4e-5,6.66734 1.29879,11.473 3.89649,14.41699 2.68419,2.85744 5.6282,4.28615 8.83203,4.28614 1.29877,1e-5 5.75808,-0.34634 13.37793,-1.03907 l 1.68848,15.19629 c -8.65892,1.81836 -15.88906,2.72754 -21.69043,2.72754 -8.83207,0 -15.54268,-2.68424 -20.13184,-8.05273 -4.58922,-5.45507 -6.88381,-14.2005 -6.88379,-26.23633 l 0,-159.62598 20.91113,0 m 2.46778,191.57715 0,0 M 789.53516,274.588 l 0,0 m 0,-84.03418 0,0"
         inkscape:connector-curvature="0" />
      <path
         style="font-size:22px;font-style:normal;font-variant:normal;font-weight:normal;font-stretch:normal;text-align:start;line-height:100%;writing-mode:lr-tb;text-anchor:start;fill:#114c1d;fill-opacity:1;stroke:none;font-family:Molengo;-inkscape-font-specification:Molengo"
         id="flowRoot2429"
         transform="matrix(2.353578,0,0,2.353578,-1687.0176,-417.69933)"
         d="m 800.05566,326.15148 c -4e-5,14.80668 2.59762,25.45706 7.79297,31.95117 5.19526,6.49416 12.55528,9.74123 22.08008,9.74121 5.10865,2e-5 9.78442,-1.34211 14.02734,-4.02637 4.24275,-2.77081 7.53311,-6.06117 9.8711,-9.87109 2.33779,-3.80986 4.15615,-7.35999 5.45508,-10.65039 1.29872,-3.37691 1.94814,-6.01786 1.94824,-7.92285 l 0,-75.07227 20.91113,0 0,121.83008 -20.91113,0 0,-22.33984 c -7.79307,16.45183 -20.47827,24.67773 -38.05567,24.67773 -3.11725,0 -6.40761,-0.43294 -9.87109,-1.29883 -3.46359,-0.77929 -7.31678,-2.33789 -11.55957,-4.67578 -4.15629,-2.33788 -7.87959,-5.32518 -11.16992,-8.96191 -3.20381,-3.63671 -5.93134,-8.57225 -8.18262,-14.80664 -2.16473,-6.23434 -3.24709,-13.3346 -3.24707,-21.30078 l 0,-73.12403 20.91113,0 0,65.85059 m 29.87305,55.97949 0,0 m 0,-124.16797 0,0 m 45.71875,16.625 0,0 m -4.02637,107.54297 0,0"
         inkscape:connector-curvature="0" />
      <g
         id="g3315"
         transform="translate(-46,0)">
        <path
           style="fill:#edbb0a;fill-rule:evenodd"
           id="path2472"
           d="m 1443.9446,470.68012 c 2.779,9.91 -0.868,27.199 -5,33.496 -19.17,3.822 -47.301,2.475 -68.991,3 -6.361,0.153 -12.569,2.781 -16.998,-2 -0.646,-7.416 9.975,-7.717 16.998,-8.999 7.641,-1.396 16.566,-1.51 20.997,-3.999 1.363,-0.766 9.275,-6.758 6.5,-10 20.96,0.63 33.115,-4.546 46.494,-11.498 z"
           inkscape:connector-curvature="0" />
        <path
           style="fill:#edbb0a;fill-rule:evenodd"
           id="path2474"
           d="m 1293.3544,126.2612 c -8.067,-5.594 -23.27,-7.952 -35.995,-15.998 -9.156,-5.79 -24.156,-17.158003 -22.997,-26.997003 0.993,-8.436 21.409,-18.622 31.996,-19.997 14.522,-1.887 29.401,4.61 37.995,1 1.3345,10.065549 8.9465,11.519927 9.998,20.998 1.603,17.172003 -13.4627,31.191683 -20.997,40.994003 z"
           inkscape:connector-curvature="0" />
        <path
           style="fill-rule:evenodd"
           id="path2454"
           d="m 1471.0002,449.86144 c -9.1974,11.34609 -19.1449,18.36391 -27.9639,23.93191 -38.837,24.521 -91.9631,12.22321 -108.3721,-4.31454 -14.1925,-14.30389 -29.2845,-31.61541 -27.0668,-66.69363 2.4278,-38.63236 33.3012,-62.99352 91.1782,-78.01118 27.5742,-5.70335 53.5801,-5.82567 72.0583,-5.70998 -0.1382,-20.9261 3.8385,-65.37806 -14.8089,-79.41431 -18.7243,-12.50139 -35.958,-12.67521 -55.1399,-11.54166 -29.3024,1.73162 -55.7523,11.79915 -70.0206,18.73949 -4.893,-15.688 -4.5873,-26.23434 -10.6003,-38.59734 -9.518,-19.569 -20.228,-30.396 -26.997,-53.993 -2.086,-7.273 -5.327,-16.675 -3.999,-23.997 1.937,-10.676 15.463,-17.361 18.997,-26.997 9.768,-23.367859 -2.7417,-22.070189 -6.998,-37.995003 -0.145,-3.927036 6.261,-12.474 8.998,-16.998 10.777,-17.809 26.988,-31.943 47.994,-40.9949999 61.791,-26.6250001 131.857,-0.724 158.98,47.9939999 10.442,18.756 13.905,33.699 14.998,60.992003 1.08,26.989 -4.385,45.392 -14.998,63.992 -2.354,4.125 -7.026,9.983 -10.999,15.998 -3.154,4.776 -10.5465,11.64732 -11.2706,17.20993 -0.8347,6.41332 7.2186,13.76607 11.2706,20.78607 11.917,20.645 10.4595,44.45577 11.7925,69.38827 1.333,24.9325 0.3465,47.33864 0.244,82.09185 -0.1025,34.75447 3.6691,61.25808 12.7871,75.33858 9.118,14.0805 17.2764,6.0303 17.1714,9.1513 -0.4,11.864 -29.448,19.478 -42.995,16.997 -18.182,-3.327 -38,-10.88882 -34.24,-37.35276 z M 1345.2612,102.2642 c 1.773,7.982 12.461,19.075 20.997,20.997 19.366,4.362 35.407,-8.103 38.995,-19.998 7.344,-24.340003 -12.554,-40.960003 -30.996,-39.995003 -22.219,1.163 -33.442,18.989 -28.996,38.996003 z m 45.0914,263.17893 c -33.2146,11.49543 -41.2618,33.50735 -37.9401,49.17287 8.318,27.29 23.6202,34.75619 55.2002,33.07127 42.719,-2.26792 57.7528,-31.90937 61.0509,-54.01958 2.0614,-13.81935 2.7695,-21.99833 2.2385,-39.95648 -40.0716,1.48063 -47.3349,0.23649 -80.5495,11.73192 z"
           inkscape:connector-curvature="0" />
      </g>
      <g
         id="g3320">
        <path
           style="fill:#edbb0a;fill-rule:evenodd"
           id="path2470"
           d="m 506.43689,468.7955 c 6.95879,0.87417 13.62274,1.04488 20.87836,1.33106 -6.58742,4.32063 1.955,10.74366 1.62223,17.05156 -7.78271,1.12874 -9.34937,-3.9599 -14.64034,-5.32291 -6.79241,-0.1371 -13.5329,5.37083 -18.6322,2.66079 1.21792,-7.65493 8.9231,-8.69782 10.77195,-15.7205 z"
           inkscape:connector-curvature="0" />
        <path
           style="fill:#114c1d;fill-rule:evenodd"
           id="path2458"
           d="m 468.29,409.616 c 6.14,-17.352 31.50705,-30.5942 43.89685,-42.0822 -19.20209,-9.32528 -34.96383,-24.34428 -47.89585,-40.9078 -6.921,-11.445 -11.208,-30.738 -7.999,-48.994 2.605,-22.867 8.588,-41.005 20.998,-57.993 4.171,-5.711 9.696,-11.319 9.999,-15.998 0.383,-5.921 -5.055,-11.583 -6.999,-17.998 -10.19353,-28.4281 -4.01477,-66.7351 27.996,-76.991 1.51347,14.8505 6.02068,71.74449 29.997,68.992 32.41899,-31.06274 -28.30891,-71.2772 25.996,-92.989 40.41628,9.55888 -14.3499,55.19042 31.9098,67.8407 23.76001,-23.49172 0.21402,-58.084 36.0832,-74.8387 22.38556,4.835497 9.18777,44.2882 5.999,62.992 -2.589,12.252 -10.162,23.386 -6.999,35.996 13.353,16.128 27.7888,-5.06535 34.996,-13.999 11.61853,-2.67115 36.83967,19.5305 37.996,31.89946 -25.65445,27.22267 -0.48945,0 -25.997,27.09354 7.873,18.855 14.416,32.453 15.998,52.994 5.015,65.101 -36.08,114.985 -103.987,114.985 -12.842,0 -27.954,-4.769 -40.995,-2 -10.532,2.236 -22.54885,7.79458 -22.997,20.998 -0.64423,18.98016 36.354,11.833 54.993,8.999 20.518,-3.121 44.269,-6.422 64.992,-3 15.912,2.627 39.745,15.153 48.994,26.997 10.805,13.835 14.271,37.521 11.998,57.992 -2.561,23.062 -17.422,45.138 -34.995,57.993 -54.499,39.864 -170.181,28.775 -209.974,-13.999 5.183,-10.152 16.358,-22.857 25.997,-33.995 3.073,-3.552 7.51,-8.634 9.999,-8.999 29.79717,17.25704 48.58557,24.5388 81.991,24.997 25.67461,2.00695 53.38217,-0.91184 67.992,-24.997 4.854,-14.824 -1.686,-28.929 -9.999,-33.996 -11.553,-7.041 -29.03,-6.21 -44.994,-4.999 -48.46303,6.6615 -138.05654,30.4798 -124.99,-51.993 z m 54.993,-145.982 c -7.32438,52.07004 21.07548,86.59964 72.991,73.991 25.798,-8.417 39.067,-44.021 31.996,-72.991 -19.50444,-56.21257 -91.94105,-52.97853 -104.987,-1 z"
           inkscape:connector-curvature="0" />
        <path
           style="fill:#edbb0a;fill-rule:evenodd"
           id="path2468"
           d="m 456.292,277.632 c -3.209,18.255 1.078,37.548 7.999,48.994 -11.246,-5.062 -45.031,-4.103 -47.994,-17.997 -4.151,-19.462 26.275,-23.245 39.995,-30.997 z"
           inkscape:connector-curvature="0" />
        <path
           style="fill:#aa0000;fill-opacity:1;fill-rule:evenodd;stroke:none"
           id="path2497"
           d="m 501.98122,468.02974 c -5.5029,-26.15219 -12.26766,-51.8964 -18.57497,-77.90719 -40.63893,30.19521 -13.33209,74.40362 18.57497,77.90719 z"
           inkscape:connector-curvature="0" />
      </g>
      <path
         style="font-size:22px;font-style:normal;font-variant:normal;font-weight:normal;font-stretch:normal;text-align:start;line-height:100%;writing-mode:lr-tb;text-anchor:start;fill:#000000;fill-opacity:1;stroke:none;font-family:Molengo;-inkscape-font-specification:Molengo"
         id="flowRoot2419"
         transform="matrix(2.353578,0,0,2.353578,-1086.5007,-417.69933)"
         d="m 800.05566,326.15148 c -4e-5,14.80668 2.59762,25.45706 7.79297,31.95117 5.19526,6.49416 12.55528,9.74123 22.08008,9.74121 5.10865,2e-5 9.78442,-1.34211 14.02734,-4.02637 4.24275,-2.77081 7.53311,-6.06117 9.8711,-9.87109 2.33779,-3.80986 4.15615,-7.35999 5.45508,-10.65039 1.29872,-3.37691 1.94814,-6.01786 1.94824,-7.92285 l 0,-75.07227 20.91113,0 0,121.83008 -20.91113,0 0,-22.33984 c -7.79307,16.45183 -20.47827,24.67773 -38.05567,24.67773 -3.11725,0 -6.40761,-0.43294 -9.87109,-1.29883 -3.46359,-0.77929 -7.31678,-2.33789 -11.55957,-4.67578 -4.15629,-2.33788 -7.87959,-5.32518 -11.16992,-8.96191 -3.20381,-3.63671 -5.93134,-8.57225 -8.18262,-14.80664 -2.16473,-6.23434 -3.24709,-13.3346 -3.24707,-21.30078 l 0,-73.12403 20.91113,0 0,65.85059 m 29.87305,55.97949 0,0 m 0,-124.16797 0,0 m 45.71875,16.625 0,0 m -4.02637,107.54297 0,0"
         inkscape:connector-curvature="0" />
      <path
         style="font-size:22px;font-style:normal;font-variant:normal;font-weight:normal;font-stretch:normal;text-align:start;line-height:100%;writing-mode:lr-tb;text-anchor:start;fill:#000000;fill-opacity:1;stroke:none;font-family:Molengo;-inkscape-font-specification:Molengo"
         id="flowRoot2445"
         transform="matrix(2.353578,0,0,2.353578,-773.76518,-417.69933)"
         d="m 809.27734,257.963 c 7.79291,1.3e-4 14.71999,1.03919 20.78125,3.11719 6.06112,1.99165 10.7369,4.28625 14.02735,6.88379 l -7.40332,15.58594 c -2.68432,-2.16462 -6.49422,-4.19945 -11.42969,-6.1045 -4.93561,-1.90484 -9.82786,-2.85731 -14.67676,-2.85742 -6.49418,1.1e-4 -11.55961,1.68858 -15.19629,5.06543 -3.63675,3.37705 -5.45511,7.01377 -5.45508,10.91016 -3e-5,4.4161 1.38539,8.00952 4.15625,10.78027 2.7708,2.77091 8.35575,5.62833 16.75489,8.57227 l 12.72851,4.41601 c 9.2649,3.20384 16.10539,7.44668 20.52149,12.72852 4.50251,5.19536 6.75381,12.12244 6.7539,20.78125 -9e-5,11.25653 -3.80998,20.17514 -11.42968,26.75586 -7.61987,6.58073 -18.01048,9.87109 -31.17188,9.87109 -7.01371,0 -13.76761,-0.736 -20.26172,-2.20801 -6.40757,-1.38541 -13.59442,-4.37271 -21.56054,-8.96191 l 7.5332,-16.10547 c 6.66729,3.98309 12.33884,6.75392 17.01465,8.3125 4.67574,1.47202 10.17411,2.20802 16.49511,2.20801 14.97976,1e-5 22.46966,-6.45083 22.46973,-19.35254 -7e-5,-7.79293 -7.14362,-14.0273 -21.43066,-18.70313 l -12.72852,-4.41601 c -9.09182,-3.20372 -15.84572,-7.74961 -20.26172,-13.6377 -4.32944,-5.97453 -6.49415,-12.55525 -6.49414,-19.74218 -1e-5,-9.00511 3.76659,-16.88466 11.29981,-23.63868 7.53317,-6.84037 17.18778,-10.26061 28.96386,-10.26074 m 0.51954,124.16797 0,0 m 0,-124.16797 0,0 m 25.58691,16.625 0,0"
         inkscape:connector-curvature="0" />
      <flowRoot
         style="font-size:22px;font-style:normal;font-variant:normal;font-weight:normal;font-stretch:normal;text-align:start;line-height:100%;writing-mode:lr-tb;text-anchor:start;fill:#114c1d;fill-opacity:1;stroke:none;font-family:Molengo;-inkscape-font-specification:Molengo"
         xml:space="preserve"
         id="flowRoot3269"
         transform="matrix(2.353578,0,0,2.353578,-1381.5475,-417.69933)"><flowRegion
           id="flowRegion3271"><rect
             style="fill:#114c1d"
             id="rect3273"
             y="170.13805"
             x="757.84442"
             height="376.37912"
             width="325.51709" /></flowRegion><flowPara
           style="font-size:266px;fill:#114c1d"
           id="flowPara3275" /></flowRoot>      <flowRoot
         style="font-size:22px;font-style:normal;font-variant:normal;font-weight:normal;font-stretch:normal;text-align:start;line-height:100%;writing-mode:lr-tb;text-anchor:start;fill:#114c1d;fill-opacity:1;stroke:none;font-family:Molengo;-inkscape-font-specification:Molengo"
         xml:space="preserve"
         id="flowRoot3277"
         transform="matrix(2.353578,0,0,2.353578,-1371.0176,-417.69933)"><flowRegion
           id="flowRegion3279"><rect
             style="fill:#114c1d"
             id="rect3281"
             y="170.13805"
             x="757.84442"
             height="376.37912"
             width="325.51709" /></flowRegion><flowPara
           style="font-size:266px;fill:#114c1d"
           id="flowPara3283" /></flowRoot>    </g>
    <text
       xml:space="preserve"
       style="font-size:64px;font-style:normal;font-variant:normal;font-weight:300;font-stretch:normal;line-height:125%;letter-spacing:0px;word-spacing:0px;fill:#000000;fill-opacity:1;stroke:none;font-family:Raleway;-inkscape-font-specification:Raleway Light"
       x="206.5"
       y="1011.3622"
       id="text3065"
       sodipodi:linespacing="125%"><tspan
         sodipodi:role="line"
         id="tspan3067"
         x="206.5"
         y="1011.3622"
         style="font-size:26px;font-style:normal;font-variant:normal;font-weight:normal;font-stretch:normal;font-family:Molengo;-inkscape-font-specification:Molengo">.org</tspan></text>
    <text
       xml:space="preserve"
       style="font-size:59.61190033px;font-style:normal;font-variant:normal;font-weight:300;font-stretch:normal;line-height:125%;letter-spacing:0px;word-spacing:0px;fill:#333333;fill-opacity:1;stroke:none;font-family:Bowlby One SC Regular;-inkscape-font-specification:Bowlby One SC Regular"
       x="67.5"
       y="129.86218"
       id="text3063"
       sodipodi:linespacing="125%"><tspan
         sodipodi:role="line"
         id="tspan3065"
         x="67.5"
         y="129.86218">uF</tspan></text>
    <g
       transform="matrix(0.51305097,0,0,-0.51305097,458.86966,1007.3648)"
       inkscape:label="ink_ext_XXXXXX"
       id="g3136">
      <g
         transform="scale(0.1,0.1)"
         id="g3138">
        <g
           id="g3140">
          <g
             clip-path="url(#clipPath3144)"
             id="g3142">
            <path
               id="path3148"
               style="fill:#46474d;fill-opacity:1;fill-rule:nonzero;stroke:none"
               d="m 1564.75,777.398 c -10,26.672 -30.48,44.766 -61.43,44.766 -28.58,0 -49.06,-11.434 -49.06,-38.105 0,-59.043 177.16,-46.668 177.16,-158.11 0,-70.476 -44.29,-105.722 -120.48,-105.722 -56.2,0 -109.06,31.441 -128.59,81.441 l 54.3,23.812 c 15.71,-32.386 36.19,-53.82 74.76,-53.82 32.86,0 58.1,12.391 58.1,45.727 0,67.621 -177.16,54.289 -177.16,160.011 0,61.438 51.44,96.192 110.97,96.192 55.24,0 100.96,-27.617 121.44,-77.617 l -60.01,-18.575"
               inkscape:connector-curvature="0" />
            <path
               id="path3150"
               style="fill:#46474d;fill-opacity:1;fill-rule:nonzero;stroke:none"
               d="m 1838.55,818.355 c -53.81,0 -78.57,-40.957 -78.57,-121.445 -0.96,-80.48 24.28,-121.437 78.57,-121.437 53.82,0 78.58,40.957 78.58,121.437 0,80.488 -24.76,121.445 -78.58,121.445 z m 0,-298.128 c -93.81,0 -144.29,64.3 -144.29,176.683 0,112.395 50.48,176.68 144.29,176.68 93.82,0 144.3,-64.285 144.3,-176.68 0,-112.383 -50.48,-176.683 -144.3,-176.683"
               inkscape:connector-curvature="0" />
            <path
               id="path3152"
               style="fill:#46474d;fill-opacity:1;fill-rule:nonzero;stroke:none"
               d="m 2254.75,868.836 65.71,0 0,-215.254 c 0,-100.488 -61.9,-133.355 -131.91,-133.355 -70,0 -131.91,32.867 -131.91,133.355 l 0,215.254 65.72,0 0,-218.117 c 0,-55.711 21.9,-75.246 66.19,-75.246 44.3,0 66.2,19.535 66.2,75.246 l 0,218.117"
               inkscape:connector-curvature="0" />
            <path
               id="path3154"
               style="fill:#46474d;fill-opacity:1;fill-rule:nonzero;stroke:none"
               d="m 2482.36,718.348 48.57,0 c 51.43,0 67.15,16.191 67.15,48.574 0,32.383 -19.53,48.574 -55.72,48.574 l -60,0 0,-97.148 z m -65.72,-193.356 0,343.844 137.14,0 c 78.11,0 109.54,-45.246 110.01,-101.914 0.48,-42.383 -20.94,-76.672 -62.86,-88.574 l 75.73,-153.356 -72.88,0 -64.76,140.016 -56.66,0 0,-140.016 -65.72,0"
               inkscape:connector-curvature="0" />
            <path
               id="path3156"
               style="fill:#46474d;fill-opacity:1;fill-rule:nonzero;stroke:none"
               d="m 2934.74,768.824 c -9.52,29.055 -30,49.531 -62.38,49.531 -43.81,0 -70.48,-40.957 -70.48,-121.445 -0.96,-80.48 22.85,-121.437 72.38,-121.437 29.52,0 47.63,10.48 67.15,50.957 l 60.96,-16.196 c -20.48,-59.523 -65.25,-90.007 -128.11,-90.007 -87.62,0 -138.1,64.3 -138.1,176.683 0,112.395 50.48,176.68 138.1,176.68 65.73,0 103.82,-29.52 120.01,-90.477 l -59.53,-14.289"
               inkscape:connector-curvature="0" />
            <path
               id="path3158"
               style="fill:#46474d;fill-opacity:1;fill-rule:nonzero;stroke:none"
               d="m 3075.2,524.992 0,343.844 227.64,0 0,-55.246 -161.92,0 0,-81.914 117.63,0 0,-55.242 -117.63,0 0,-96.2 167.16,0 0,-55.242 -232.88,0"
               inkscape:connector-curvature="0" />
            <path
               id="path3160"
               style="fill:#46474d;fill-opacity:1;fill-rule:nonzero;stroke:none"
               d="m 3391.87,524.992 0,343.844 219.06,0 0,-55.246 -153.35,0 0,-81.914 114.78,0 0,-55.242 -114.78,0 0,-151.442 -65.71,0"
               inkscape:connector-curvature="0" />
            <path
               id="path3162"
               style="fill:#46474d;fill-opacity:1;fill-rule:nonzero;stroke:none"
               d="m 3728.07,653.582 80,0 -38.57,149.531 -0.95,0 -40.48,-149.531 z m -0.96,215.73 81.92,0 97.63,-344.32 -65.25,0 -19.05,74.293 -108.58,0 -20.47,-74.293 -65.25,0 99.05,344.32"
               inkscape:connector-curvature="0" />
            <path
               id="path3164"
               style="fill:#46474d;fill-opacity:1;fill-rule:nonzero;stroke:none"
               d="m 4049.97,578.332 65.72,0 c 38.09,0 54.76,17.145 54.76,50 0,32.867 -16.67,50.016 -54.76,50.016 l -65.72,0 0,-100.016 z m 0,153.344 65.72,0 c 31.43,0 47.15,18.097 47.15,41.914 0,23.808 -15.72,41.906 -47.15,41.906 l -65.72,0 0,-83.82 z m -65.72,137.16 127.63,0 c 68.57,0 112.86,-22.863 116.67,-84.297 0,-35.715 -14.76,-63.34 -52.38,-78.098 44.76,-18.093 60.01,-38.574 60.01,-90.968 0,-53.332 -37.63,-90.481 -125.26,-90.481 l -126.67,0 0,343.844"
               inkscape:connector-curvature="0" />
            <path
               id="path3166"
               style="fill:#46474d;fill-opacity:1;fill-rule:nonzero;stroke:none"
               d="m 4394.24,718.348 48.58,0 c 51.43,0 67.15,16.191 67.15,48.574 0,32.383 -19.53,48.574 -55.72,48.574 l -60.01,0 0,-97.148 z m -65.71,-193.356 0,343.844 137.15,0 c 78.1,0 109.53,-45.246 110.01,-101.914 0.48,-42.383 -20.96,-76.672 -62.86,-88.574 l 75.72,-153.356 -72.86,0 -64.78,140.016 -56.67,0 0,-140.016 -65.71,0"
               inkscape:connector-curvature="0" />
            <path
               id="path3168"
               style="fill:#46474d;fill-opacity:1;fill-rule:nonzero;stroke:none"
               d="m 4677.1,524.992 65.7305,0 0,343.844 -65.7305,0 0,-343.844 z"
               inkscape:connector-curvature="0" />
            <path
               id="path3170"
               style="fill:#46474d;fill-opacity:1;fill-rule:nonzero;stroke:none"
               d="m 5031.87,768.824 c -9.52,29.055 -30,49.531 -62.38,49.531 -43.81,0 -70.48,-40.957 -70.48,-121.445 -0.96,-80.48 22.85,-121.437 72.38,-121.437 29.52,0 47.63,10.48 67.15,50.957 l 60.96,-16.196 c -20.48,-59.523 -65.25,-90.007 -128.11,-90.007 -87.63,0 -138.1,64.3 -138.1,176.683 0,112.395 50.47,176.68 138.1,176.68 65.72,0 103.82,-29.52 120.01,-90.477 l -59.53,-14.289"
               inkscape:connector-curvature="0" />
            <path
               id="path3172"
               style="fill:#46474d;fill-opacity:1;fill-rule:nonzero;stroke:none"
               d="M 349.734,1004.79 0,284.211 751.762,0.03125 1398.71,222.109 600.562,524.379 893.422,1315.69 349.734,1004.79"
               inkscape:connector-curvature="0" />
            <path
               id="path3174"
               style="fill:#46474d;fill-opacity:1;fill-rule:nonzero;stroke:none"
               d="m 2398.25,208.039 19.56,0 28.13,-107.18 0.54,0 27.32,107.18 19.57,0 27.87,-107.711 0.53,0 27.06,107.711 19.56,0 -37.24,-139.3281 -19.56,0 -27.86,107.7111 -0.55,0 -27.6,-107.7111 -19.55,0 -37.78,139.3281"
               inkscape:connector-curvature="0" />
            <path
               id="path3176"
               style="fill:#46474d;fill-opacity:1;fill-rule:nonzero;stroke:none"
               d="m 2588.71,208.039 19.55,0 28.14,-107.18 0.53,0 27.33,107.18 19.56,0 27.86,-107.711 0.54,0 27.06,107.711 19.56,0 -37.24,-139.3281 -19.55,0 -27.88,107.7111 -0.53,0 -27.6,-107.7111 -19.56,0 -37.77,139.3281"
               inkscape:connector-curvature="0" />
            <path
               id="path3178"
               style="fill:#46474d;fill-opacity:1;fill-rule:nonzero;stroke:none"
               d="m 2779.16,208.039 19.56,0 28.13,-107.18 0.54,0 27.32,107.18 19.56,0 27.87,-107.711 0.54,0 27.06,107.711 19.56,0 -37.24,-139.3281 -19.56,0 -27.87,107.7111 -0.53,0 -27.6,-107.7111 -19.56,0 -37.78,139.3281"
               inkscape:connector-curvature="0" />
            <path
               id="path3180"
               style="fill:#46474d;fill-opacity:1;fill-rule:nonzero;stroke:none"
               d="m 2987.56,68.7109 26.2617,0 0,29.4688 -26.2617,0 0,-29.4688 z"
               inkscape:connector-curvature="0" />
            <path
               id="path3182"
               style="fill:#46474d;fill-opacity:1;fill-rule:nonzero;stroke:none"
               d="m 3075.15,104.078 c 9.11,-13.1366 22.51,-21.4374 39.93,-21.4374 20.9,0 30.01,11.25 30.01,23.0394 0,35.371 -82.53,16.621 -80.92,67.531 0.81,24.109 19.29,37.769 46.09,37.508 18.21,-0.27 38.31,-10.188 47.69,-24.391 l -13.39,-11.777 c -10.73,13.121 -20.9,19.558 -35.91,19.558 -16.35,0 -25.19,-8.308 -25.19,-20.64 0,-30.27 80.92,-14.731 80.92,-66.719 0,-27.0586 -23.57,-40.7188 -48.76,-40.7188 -21.71,0 -42.87,9.379 -55.74,26.5274 l 15.27,11.5194"
               inkscape:connector-curvature="0" />
            <path
               id="path3184"
               style="fill:#46474d;fill-opacity:1;fill-rule:nonzero;stroke:none"
               d="m 3251.16,194.109 c -23.04,0 -37.78,-19.839 -37.78,-55.73 0,-35.91 14.74,-55.7384 37.78,-55.7384 23.04,0 37.78,19.8284 37.78,55.7384 0,35.891 -14.74,55.73 -37.78,55.73 z m 0,-128.0778 c -38.05,0 -57.07,32.1485 -57.07,72.3478 0,40.18 19.02,72.34 57.07,72.34 38.05,0 57.08,-32.16 57.08,-72.34 0,-40.1993 -19.03,-72.3478 -57.08,-72.3478"
               inkscape:connector-curvature="0" />
            <path
               id="path3186"
               style="fill:#46474d;fill-opacity:1;fill-rule:nonzero;stroke:none"
               d="m 3435.74,68.7109 0,18.7579 -0.54,0 c -10.99,-12.3399 -25.46,-21.4376 -41.26,-21.4376 -20.63,0 -40.19,10.7188 -40.19,40.7188 l 0,101.289 19.28,0 0,-100.75 c 0,-18.4804 8.85,-24.6484 22.79,-24.6484 14.46,0 31.07,11.7891 39.92,21.1684 l 0,104.23 19.28,0 0,-139.3281 -19.28,0"
               inkscape:connector-curvature="0" />
            <path
               id="path3188"
               style="fill:#46474d;fill-opacity:1;fill-rule:nonzero;stroke:none"
               d="m 3509.38,208.039 19.29,0 0,-27.598 0.53,0 c 10.72,19.028 22.24,29.739 45.29,29.739 l 0,-19.282 c -24.11,-0.539 -36.71,-16.347 -45.82,-45.019 l 0,-77.1681 -19.29,0 0,139.3281"
               inkscape:connector-curvature="0" />
            <path
               id="path3190"
               style="fill:#46474d;fill-opacity:1;fill-rule:nonzero;stroke:none"
               d="m 3692.36,166.512 c -5.36,16.879 -16.35,27.597 -32.96,27.597 -23.85,0 -37.78,-20.359 -37.78,-55.73 0,-35.379 13.93,-55.7384 37.78,-55.7384 17.68,0 27.6,5.8906 38.31,25.7304 l 15.55,-6.98 C 3699.32,77.8203 3687,66.0312 3659.4,66.0312 c -34.83,0 -57.08,27.3282 -57.08,72.3478 0,45.012 22.25,72.34 57.08,72.34 28.66,0 42.06,-16.071 50.91,-37.778 l -17.95,-6.429"
               inkscape:connector-curvature="0" />
            <path
               id="path3192"
               style="fill:#46474d;fill-opacity:1;fill-rule:nonzero;stroke:none"
               d="m 3838.61,151.238 c 0,25.723 -12.33,42.871 -33.22,42.871 -23.31,0 -35.9,-17.148 -37.51,-42.871 l 70.73,0 z m 23.58,-52.7888 c -9.11,-15.8086 -21.97,-32.418 -53.59,-32.418 -31.08,0 -60.56,21.4376 -60.56,72.3478 0,45.012 22.51,72.34 56.81,72.34 28.93,0 53.06,-18.758 53.06,-63.231 l 0,-12.859 -90.57,0 c 0,-30.551 18.22,-51.9884 41.26,-51.9884 17.15,0 30.55,9.1094 38.58,23.5784 l 15.01,-7.7698"
               inkscape:connector-curvature="0" />
            <path
               id="path3194"
               style="fill:#46474d;fill-opacity:1;fill-rule:nonzero;stroke:none"
               d="m 3913.86,68.7109 0,122.7111 -23.57,0 0,16.617 23.57,0 0,15.801 c 0,32.961 11.26,41 34.04,41 5.62,0 11.52,-0.801 17.14,-1.34 l 0,-17.148 c -4.56,0.539 -9.64,1.878 -13.93,1.878 -13.13,0 -17.95,-4.289 -17.95,-19.82 l 0,-20.371 30.27,0 0,-16.617 -30.27,0 0,-122.7111 -19.3,0"
               inkscape:connector-curvature="0" />
            <path
               id="path3196"
               style="fill:#46474d;fill-opacity:1;fill-rule:nonzero;stroke:none"
               d="m 4080.5,144 c -44.22,-7.77 -65.92,-20.629 -65.92,-39.922 0,-12.8592 12.33,-21.4374 23.05,-21.4374 13.93,0 31.61,10.1797 42.87,23.0394 l 0,38.32 z m -81.19,37.25 c 8.84,16.07 25.99,29.469 52.25,29.469 23.58,0 48.23,-11.25 48.23,-41.797 l 0,-70.2032 c 0,-15.2774 1.34,-22.7774 3.21,-30.0079 l -19.82,0 L 4081.03,88 c -9.64,-10.7188 -25.19,-21.9688 -46.08,-21.9688 -21.44,0 -39.66,12.8594 -39.66,38.3088 0,30.551 23.31,45.82 85.21,56.808 l 0,7.5 c 0,18.493 -12.06,25.461 -28.67,25.461 -21.43,0 -31.88,-12.328 -35.64,-21.711 l -16.88,8.852"
               inkscape:connector-curvature="0" />
            <path
               id="path3198"
               style="fill:#46474d;fill-opacity:1;fill-rule:nonzero;stroke:none"
               d="m 4172.63,101.391 c 13.66,-13.391 22.78,-18.7504 35.1,-18.7504 24.12,0 39.39,19.2894 39.39,54.6604 0,42.07 -16.88,56.808 -39.39,56.808 -11.52,0 -24.65,-7.781 -35.1,-19.3 l 0,-73.418 z m 0,160.781 0,-67.524 1.08,0.524 c 10.71,8.848 23.57,15.547 36.71,15.547 23.57,0 55.99,-18.219 55.99,-72.34 0,-55.7384 -32.42,-72.3478 -57.07,-72.3478 -16.61,0 -28.93,6.9688 -40.19,17.4102 l -3.48,-14.7305 -13.4,0 c 1.6,10.1797 1.06,20.3594 1.06,30.5391 l 0,162.922 19.3,0"
               inkscape:connector-curvature="0" />
            <path
               id="path3200"
               style="fill:#46474d;fill-opacity:1;fill-rule:nonzero;stroke:none"
               d="m 4309.24,208.039 19.29,0 0,-27.598 0.54,0 c 10.71,19.028 22.23,29.739 45.28,29.739 l 0,-19.282 c -24.11,-0.539 -36.71,-16.347 -45.82,-45.019 l 0,-77.1681 -19.29,0 0,139.3281"
               inkscape:connector-curvature="0" />
            <path
               id="path3202"
               style="fill:#46474d;fill-opacity:1;fill-rule:nonzero;stroke:none"
               d="m 4419.08,208.039 19.29,0 0,-139.3281 -19.29,0 0,139.3281 z m 19.29,56.801 0,-23.039 -19.29,0 0,23.039 19.29,0"
               inkscape:connector-curvature="0" />
            <path
               id="path3204"
               style="fill:#46474d;fill-opacity:1;fill-rule:nonzero;stroke:none"
               d="m 4578.47,166.512 c -5.35,16.879 -16.34,27.597 -32.95,27.597 -23.85,0 -37.78,-20.359 -37.78,-55.73 0,-35.379 13.93,-55.7384 37.78,-55.7384 17.69,0 27.6,5.8906 38.31,25.7304 l 15.55,-6.98 c -13.94,-23.5707 -26.26,-35.3598 -53.86,-35.3598 -34.83,0 -57.07,27.3282 -57.07,72.3478 0,45.012 22.24,72.34 57.07,72.34 28.67,0 42.06,-16.071 50.91,-37.778 l -17.96,-6.429"
               inkscape:connector-curvature="0" />
            <path
               id="path3206"
               style="fill:#46474d;fill-opacity:1;fill-rule:nonzero;stroke:none"
               d="m 4645.7,68.7109 26.2617,0 0,29.4688 -26.2617,0 0,-29.4688 z"
               inkscape:connector-curvature="0" />
            <path
               id="path3208"
               style="fill:#46474d;fill-opacity:1;fill-rule:nonzero;stroke:none"
               d="m 4778.56,194.109 c -23.04,0 -37.77,-19.839 -37.77,-55.73 0,-35.91 14.73,-55.7384 37.77,-55.7384 23.05,0 37.78,19.8284 37.78,55.7384 0,35.891 -14.73,55.73 -37.78,55.73 z m 0,-128.0778 c -38.05,0 -57.07,32.1485 -57.07,72.3478 0,40.18 19.02,72.34 57.07,72.34 38.06,0 57.08,-32.16 57.08,-72.34 0,-40.1993 -19.02,-72.3478 -57.08,-72.3478"
               inkscape:connector-curvature="0" />
            <path
               id="path3210"
               style="fill:#46474d;fill-opacity:1;fill-rule:nonzero;stroke:none"
               d="m 4876.06,208.039 19.29,0 0,-27.598 0.53,0 c 10.72,19.028 22.24,29.739 45.29,29.739 l 0,-19.282 c -24.11,-0.539 -36.71,-16.347 -45.82,-45.019 l 0,-77.1681 -19.29,0 0,139.3281"
               inkscape:connector-curvature="0" />
            <path
               id="path3212"
               style="fill:#46474d;fill-opacity:1;fill-rule:nonzero;stroke:none"
               d="m 5021.53,194.109 c -21.97,0 -33.76,-13.937 -33.76,-32.16 0,-18.488 14.47,-32.148 35.91,-32.148 21.97,0 33.22,14.461 33.22,31.078 0,20.371 -11.79,33.23 -35.37,33.23 z m -0.8,-119.4996 c -30.29,0 -38.86,-13.3985 -38.86,-23.3086 0,-10.461 6.44,-17.4297 45.02,-17.4297 23.05,0 41.8,6.4375 42.07,20.0977 -0.27,13.6601 -14.2,20.6406 -48.23,20.6406 z m 66.18,119.4996 c -8.04,0 -16.61,-1.339 -21.44,-3.75 4.03,-4.828 9.65,-15.55 9.65,-28.41 0,-27.597 -22.77,-48.758 -50.91,-48.758 -11.26,0 -17.14,1.598 -24.65,3.75 -7.5,-2.152 -10.99,-6.703 -10.99,-12.863 0,-6.4374 4.56,-10.1874 11.52,-10.1874 65.92,0 87.08,-11.7812 87.08,-39.1211 0,-20.3593 -20.09,-37.5078 -63.49,-37.5078 -39.12,0 -60.02,10.7266 -60.02,33.7578 0,13.9414 8.57,20.6407 23.57,28.4102 -10.71,3.2109 -17.41,11.5117 -17.41,19.8203 0,12.07 8.04,17.148 18.75,23.852 -13.13,9.91 -19.02,23.578 -19.02,38.847 0,29.473 23.04,48.77 52.79,48.77 15,0 25.45,-3.207 34.56,-9.649 8.31,5.899 19.56,11.25 30.01,12.328 l 0,-19.289"
               inkscape:connector-curvature="0" />
          </g>
        </g>
      </g>
    </g>
  </g>
</svg>
